<svg xmlns="http://www.w3.org/2000/svg" viewBox="0 0 280.365 240"
    xmlns:v="https://vecta.io/nano">
    <defs>
        <linearGradient id="svg7265676973" x1=".5" x2=".5" y2="1">
            <stop offset="0" stop-color="#009343"/>
            <stop offset="1" stop-color="#069b00"/>
        </linearGradient>
    </defs>
    <path d="M82.395 237.495c4.626-3.823 7.065-9.683 6.518-15.659-.717-5.849-5.157-11.225-10.917-12.467s-12.326 2.2-14.075 7.823c-.963-10.848-2.072-22.15-7.84-31.388a33.24 33.24 0 0 0-24.07-15.421c-9.992-1.078-19.855 2.948-26.238 10.711-6.114 7.737-7.611 18.986-3.329 27.869 3.154 6.544 8.966 11.414 15.054 15.376a97.16 97.16 0 0 0 66.453 14.536" fill="#f2f2f2"/>
    <path d="M15.465 173.58a160.32 160.32 0 0 1 47.106 63.7c.449 1.1-1.339 1.58-1.783.492a158.67 158.67 0 0 0-46.631-62.881c-.923-.752.392-2.053 1.307-1.307z" fill="#fff"/>
    <path d="M85.504 237.495c-4.626-3.823-7.065-9.683-6.518-15.659.717-5.849 5.157-11.225 10.917-12.467s12.326 2.2 14.075 7.823c.963-10.848 2.072-22.15 7.84-31.388a33.24 33.24 0 0 1 24.07-15.421c9.992-1.078 19.855 2.948 26.238 10.711 6.114 7.737 7.611 18.986 3.329 27.869-3.154 6.544-8.966 11.414-15.054 15.376a97.16 97.16 0 0 1-66.452 14.537" fill="#f2f2f2"/>
    <path d="M152.432 173.58a160.32 160.32 0 0 0-47.106 63.7c-.449 1.1 1.339 1.58 1.783.492 10.043-24.529 26.075-46.148 46.631-62.881.923-.752-.392-2.053-1.307-1.307z" fill="#fff"/>
    <g fill="#f2f2f2">
        <circle cx="98.859" cy="92.888" r="15.076"/>
        <path d="M52.38 40.918h103.865v5.683h-90.61c-22.405 0-40.568 18.163-40.568 40.568v64.561H13.701c-.502 0-.984-.2-1.339-.555s-.555-.837-.555-1.339v-68.35A40.57 40.57 0 0 1 52.38 40.918z"/>
    </g>
    <path d="M72.354 237.811v-86.322h25.289v86.322a2.19 2.19 0 0 1-2.188 2.188H74.542a2.19 2.19 0 0 1-2.188-2.188z" fill="#3C5569"/>
    <path d="M6.457 149.787v-70.19c.029-23.265 18.882-42.119 42.147-42.148h107.154v114.77H8.889c-1.343-.001-2.431-1.089-2.432-2.432zM154.785 38.42H48.604c-22.73.026-41.15 18.447-41.174 41.177v70.19a1.46 1.46 0 0 0 1.459 1.459h145.9z" fill="#3f3d56"/>
    <path d="M98.859 100.669c-4.832-.006-8.748-3.922-8.754-8.754V29.179a1.46 1.46 0 0 0-1.459-1.459H54.604c-1.343-.001-2.431-1.089-2.432-2.432V2.432C52.173 1.089 53.261.001 54.604 0h50.577c1.343.001 2.431 1.089 2.432 2.432v89.483c-.006 4.832-3.922 8.748-8.754 8.754z" fill="url(#svg7265676973)"/>
    <path d="M159.649 36.474h0c15.276-.032 27.686 12.324 27.72 27.6v79.907h54.468a8.25 8.25 0 0 1 8.267 8.233H131.929V64.078c.035-15.276 12.444-27.632 27.72-27.6z" fill="#3C5569"/>
    <path d="M153.001 81.978l5.74 23.711L271.02 78.51l-5.74-23.711a1.77 1.77 0 0 0-1.147-1.262 1.75 1.75 0 0 0-.649-.1l-64.9-33.606a1.79 1.79 0 0 0-2.264.544l-31.28 43.62-11.792 16.449a.25.25 0 0 0-.043.2 1.77 1.77 0 0 0-.204 1.334z" fill="#fff"/>
    <path d="M153.2 80.647c.011.063.047.118.1.154.062.042.138.058.211.042a.26.26 0 0 0 .145-.1l.04-.056.614-.859 11.151-15.545 31.271-43.61c.369-.511 1.056-.675 1.616-.387l64.4 33.345.578.3c.023.01.048.018.072.025a.78.78 0 0 1 .132-.013.25.25 0 0 0 .141-.119c.032-.06.038-.13.019-.194s-.065-.119-.125-.151l-.08-.042-64.9-33.606a1.79 1.79 0 0 0-2.264.544l-31.28 43.62-11.801 16.449a.25.25 0 0 0-.04.203z" fill="#3f3d56"/>
    <path d="M186.922 83.062l2.5.277 18.55 2.055 12.3 1.361.726.081 15.345-11.985.588-.459 3.624-2.83 12.894-10.07.077-.707 4.586-41.393c.13-1.187-.724-2.256-1.911-2.389l-61.206-6.78a2.17 2.17 0 0 0-2.389 1.911l-3.234 29.2-1.794 16.188-1.6 14.482-.744 6.725-.217 1.948a2.17 2.17 0 0 0 1.905 2.385z" fill="#e6e6e6"/>
    <path d="M203.74 46.783l26.513 2.936 9.4 1.041a3.18 3.18 0 1 0 .7-6.322l-11.694-1.3-24.219-2.68a3.18 3.18 0 0 0-3.294 4.448 3.18 3.18 0 0 0 2.594 1.877zm-1.508 11.731l.206.031 30.777 3.41 5.139.57c1.735.173 3.286-1.083 3.478-2.816s-1.047-3.298-2.778-3.509l-7.43-.822-24.38-2.7-4.1-.455a3.18 3.18 0 0 0-.909 6.292zm-3.483 10.397a3.18 3.18 0 0 0 2.373 1.52l12.615 1.4 22.467 2.489h0l.718.08 3.624-2.83a3.18 3.18 0 0 0 0-.647 3.19 3.19 0 0 0-2.814-2.832l-3.121-.347-12.38-1.37-8.908-.988-11.506-1.275a3.18 3.18 0 0 0-3.073 4.8zm17.718-36.463l6.6.731 2.914.324 4.4.487c1.735.173 3.286-1.083 3.478-2.816s-1.047-3.298-2.778-3.509l-13.909-1.539a3.18 3.18 0 1 0-.7 6.323z" fill="#fff"/>
    <path d="M162.527 50.059l8.043 33.223 13.423 2.552 12.417 2.364 13.322 2.535 4.257.81c.504.095 1.025-.031 1.43-.346l3.415-2.667 2.162-1.689 15.345-11.985-9.757-40.3a2.14 2.14 0 0 0-.605-1.05c-.532-.511-1.288-.716-2.006-.543l-59.852 14.489c-1.16.282-1.873 1.45-1.593 2.611z" fill="url(#svg7265676973)"/>
    <g fill="#fff">
        <path d="M180.968 76.49c.415 1.706 2.133 2.755 3.84 2.343l35.119-8.5c1.706-.415 2.754-2.133 2.343-3.84a.97.97 0 0 0-.034-.12 3.18 3.18 0 0 0-3.806-2.223l-35.119 8.5c-1.707.414-2.755 2.133-2.343 3.84zm3.024 9.343l12.417 2.364 26.3-6.367a3.181 3.181 0 1 0-1.5-6.183l-35.12 8.5a3.16 3.16 0 0 0-1.823 1.221 3.2 3.2 0 0 0-.274.465zm25.739 4.899l4.257.81a1.79 1.79 0 0 0 1.43-.346l3.415-2.667zm-21.687-32.059c.415 1.706 2.133 2.755 3.84 2.343l13.6-3.293c1.706-.415 2.754-2.133 2.343-3.84-.106-.441-.306-.853-.586-1.209-.769-.983-2.041-1.427-3.254-1.134l-13.6 3.293a3.18 3.18 0 0 0-2.343 3.84z"/>
        <path d="M196.408 88.197l13.324 2.536 4.256.81c.504.094 1.024-.032 1.429-.346l3.417-2.668-1.2.29-2.532 1.975a1.28 1.28 0 0 1-1.021.247l-3.151-.6-13.323-2.532zm39.8-13.879l.13.536.591-.459zm-39.8 13.879l13.324 2.536 4.256.81c.504.094 1.024-.032 1.429-.346l3.417-2.668-1.2.29-2.532 1.975a1.28 1.28 0 0 1-1.021.247l-3.151-.6-13.323-2.532zm0 0l13.324 2.536 4.256.81c.504.094 1.024-.032 1.429-.346l3.417-2.668-1.2.29-2.532 1.975a1.28 1.28 0 0 1-1.021.247l-3.151-.6-13.323-2.532zm-43.407-6.219l15.035 62.108c.232.956 1.195 1.543 2.151 1.312l108.814-26.342c.956-.232 1.543-1.195 1.312-2.151l-15.035-62.108a1.77 1.77 0 0 0-1.147-1.262 1.75 1.75 0 0 0-.649-.1 1.68 1.68 0 0 0-.736.194c-.107.049-.207.111-.3.183l-8.931 6.974-12.97 10.132-4.345 3.394h0 0l-15.935 12.439-2.634 2.062-2.532 1.975a1.28 1.28 0 0 1-1.021.247l-3.151-.6-13.32-2.526-13.336-2.536-29.209-5.564c-.249-.05-.506-.044-.753.016-.332.08-.634.254-.87.5a2 2 0 0 0-.24.317 1.77 1.77 0 0 0-.2 1.33zm43.411 6.219l13.324 2.536 4.256.81c.504.094 1.024-.032 1.429-.346l3.417-2.668-1.2.29-2.532 1.975a1.28 1.28 0 0 1-1.021.247l-3.151-.6-13.327-2.532zm0 0l13.324 2.536 4.256.81c.504.094 1.024-.032 1.429-.346l3.417-2.668-1.2.29-2.532 1.975a1.28 1.28 0 0 1-1.021.247l-3.151-.6-13.327-2.532zm0 0l13.324 2.536 4.256.81c.504.094 1.024-.032 1.429-.346l3.417-2.668-1.2.29-2.532 1.975a1.28 1.28 0 0 1-1.021.247l-3.151-.6-13.327-2.532z"/>
    </g>
    <path d="M196.408 88.196l13.324 2.536 4.256.81c.504.094 1.024-.032 1.429-.346l3.417-2.668-1.2.29-2.532 1.975a1.28 1.28 0 0 1-1.021.247l-3.151-.6-13.323-2.532zm39.8-13.879l.13.536.591-.459zm-39.8 13.879l13.324 2.536 4.256.81c.504.094 1.024-.032 1.429-.346l3.417-2.668-1.2.29-2.532 1.975a1.28 1.28 0 0 1-1.021.247l-3.151-.6-13.323-2.532zm0 0l13.324 2.536 4.256.81c.504.094 1.024-.032 1.429-.346l3.417-2.668-1.2.29-2.532 1.975a1.28 1.28 0 0 1-1.021.247l-3.151-.6-13.323-2.532zm-42.712-7.51l.066.05c.011-.018.03-.034.045-.053.299-.311.735-.452 1.16-.373l29.026 5.522 12.415 2.366 13.324 2.535 4.255.81c.504.094 1.024-.032 1.429-.346l3.417-2.668-1.2.29-2.532 1.975a1.28 1.28 0 0 1-1.021.247l-3.151-.6-13.322-2.533-13.336-2.536-29.209-5.564c-.249-.05-.506-.044-.753.016zm-.7 1.292l15.035 62.108c.232.956 1.195 1.543 2.151 1.312l108.819-26.343c.956-.232 1.543-1.195 1.312-2.151l-15.035-62.108a1.77 1.77 0 0 0-1.147-1.262 1.75 1.75 0 0 0-.649-.1 1.68 1.68 0 0 0-.736.194c-.107.049-.207.111-.3.183l-8.931 6.974-12.97 10.132-4.345 3.394h0 0L220.265 86.75l-2.634 2.062-2.532 1.975a1.28 1.28 0 0 1-1.021.247l-3.151-.6-13.32-2.526-13.336-2.536-29.209-5.564c-.249-.05-.506-.044-.753.016-.332.08-.634.254-.87.5a2 2 0 0 0-.24.317 1.77 1.77 0 0 0-.2 1.33zm.5-.12c-.09-.371-.008-.762.224-1.065.01-.022.025-.041.044-.057.011-.018.03-.034.045-.053.299-.311.735-.452 1.16-.373l29.026 5.522 12.415 2.366 13.324 2.535 4.256.81c.504.094 1.024-.032 1.429-.346l3.417-2.668 2.161-1.689 15.342-11.987.591-.459 3.621-2.829 12.9-10.071 9.323-7.281c.142-.111.305-.19.48-.232a.97.97 0 0 1 .148-.024.78.78 0 0 1 .132-.013 1.3 1.3 0 0 1 .438.071c.408.142.716.481.82.9l15.035 62.108c.08.329.026.675-.15.964s-.46.495-.789.575l-108.824 26.346c-.328.079-.675.025-.963-.152s-.494-.46-.573-.788zm42.915 6.339l13.324 2.535 4.255.81c.504.094 1.024-.032 1.429-.346l3.417-2.668-1.2.29-2.532 1.975a1.28 1.28 0 0 1-1.021.247l-3.151-.6-13.325-2.532zm0 0l13.324 2.535 4.255.81c.504.094 1.024-.032 1.429-.346l3.417-2.668-1.2.29-2.532 1.975a1.28 1.28 0 0 1-1.021.247l-3.151-.6-13.325-2.532zm0 0l13.324 2.535 4.255.81c.504.094 1.024-.032 1.429-.346l3.417-2.668-1.2.29-2.532 1.975a1.28 1.28 0 0 1-1.021.247l-3.151-.6-13.325-2.532z" fill="#3f3d56"/>
    <path d="M250.641 106.851c-.511-2.119.791-4.252 2.909-4.767l13.734-3.325a3.95 3.95 0 0 1 4.766 2.909 3.95 3.95 0 0 1-2.909 4.766l-13.734 3.325c-2.119.511-4.252-.791-4.767-2.909z" fill="url(#svg7265676973)"/>
    <circle cx="98.859" cy="91.915" r="3.404" fill="#fff"/>
</svg>