<svg xmlns="http://www.w3.org/2000/svg"
    xmlns:xlink="http://www.w3.org/1999/xlink" viewBox="0 0 257 192"
    xmlns:v="https://vecta.io/nano">
    <style><![CDATA[.B{fill:#fff}.C{fill:#3f3d56}.D{fill:#2f2e41}.E{fill:url(#svge16b38f9d4)}.F{fill:#a0616a}.G{fill:#e6e6e6}]]></style>
    <defs>
        <linearGradient id="svge16b38f9d4" x1=".5" x2=".5" y2="1">
            <stop offset="0" stop-color="#00acf8"/>
            <stop offset="1" stop-color="#2b50ea"/>
        </linearGradient>
        <path id="svgf9c5ce1fb8" d="M171.599 151.642h-7.133c-.247 0-.447-.2-.447-.447s.2-.447.447-.447h7.133c.247 0 .447.2.447.447s-.2.447-.447.447z"/>
        <path id="svg6fb135bee0" d="M78.334 91.158l-1.639 1.807c-.057.062-.193.03-.3-.071s-.156-.235-.1-.3l1.639-1.807c.057-.062.193-.03.3.071s.156.238.1.3z"/>
        <path id="svg1e79ed2751" d="M127.844 68.54h-12.493a.41.41 0 0 1-.408-.409.41.41 0 0 1 .408-.408h12.494a.41.41 0 0 1 .408.409.41.41 0 0 1-.408.408z"/>
        <path id="svgceb7bf6787" d="M127.844 70.154h-12.493a.41.41 0 0 1-.389-.409.41.41 0 0 1 .389-.409h12.493a.41.41 0 0 1 .389.409.41.41 0 0 1-.389.409z"/>
        <path id="svg5682c378c6" d="M120.766 71.767h-5.415a.41.41 0 0 1-.389-.409.41.41 0 0 1 .389-.409h5.416a.41.41 0 0 1 .389.409.41.41 0 0 1-.389.409z"/>
        <path id="svg2eedc8cb9a" d="M130.519 12.22h-12.493a.41.41 0 0 1-.389-.409.41.41 0 0 1 .389-.409h12.494a.41.41 0 0 1 .389.409.41.41 0 0 1-.389.409z"/>
    </defs>
    <path d="M246.253 166.664c.283-8.475-3.585-16.9-11.109-19.783 1.71 9.203.224 18.715-4.211 26.958-1.746 3.332-4.011 6.9-3.389 10.3a7.2 7.2 0 0 0 3.685 4.792c1.882.964 3.89 1.658 5.966 2.062l.367.361c4.618-7.734 8.407-16.215 8.691-24.69z" fill="#f2f2f2"/>
    <g class="B">
        <path d="M235.039 147.04a29.8 29.8 0 0 1 5.279 19.028c-.061 1.542-.354 3.067-.869 4.522a9.99 9.99 0 0 1-2.633 3.81 21.05 21.05 0 0 0-3.124 3.142 5.42 5.42 0 0 0-.891 4.139c.393 1.616 1.145 3.123 2.2 4.408 1.219 1.398 2.061 3.085 2.444 4.9.03.234.4.121.37-.112-.433-3.352-3.331-5.3-4.385-8.332a5.21 5.21 0 0 1 .362-4.516 16.32 16.32 0 0 1 3.118-3.242 10.72 10.72 0 0 0 2.7-3.648 14.41 14.41 0 0 0 1.036-4.5c.272-3.333.002-6.688-.8-9.935a28.89 28.89 0 0 0-4.52-9.945c-.13-.182-.419.1-.289.278z"/>
        <path d="M240.574 163.793a6 6 0 0 0 4.6-5.21c.019-.241-.354-.229-.373.012a5.55 5.55 0 0 1-4.291 4.839c-.098.017-.164.111-.148.209s.109.165.208.15zm-3.155 10.16a8.07 8.07 0 0 1-3.4-5.662c-.031-.233-.4-.121-.37.112a8.39 8.39 0 0 0 3.552 5.883c.185.128.403-.205.218-.333zm1.143-20.527c-.853.402-1.853.333-2.642-.182-.184-.13-.4.2-.219.333a3.04 3.04 0 0 0 2.922.208c.1-.033.164-.13.155-.235-.009-.047-.037-.088-.079-.111s-.091-.028-.136-.012z"/>
    </g>
    <path d="M208.54 161.574l.336.257a30.26 30.26 0 0 1 4.148 3.828l.294.326a32.87 32.87 0 0 1 6.638 11.908 34.6 34.6 0 0 1 1.226 5.481c.364 2.59.546 5.457 1.733 7.591a5.41 5.41 0 0 0 .407.643l13.7.233.1-.043.543.035-.022-.3c0-.057-.01-.115-.014-.172 0-.038-.007-.076-.008-.111v-.035c0-.035-.005-.067-.007-.1l-.159-1.71c-.38-4.293-1.3-8.514-2.74-12.569-.044-.118-.088-.24-.138-.358-.667-1.755-1.493-3.446-2.468-5.051-.533-.868-1.115-1.705-1.744-2.506-1.627-2.062-3.614-3.812-5.864-5.166a19.79 19.79 0 0 0-15.539-2.3c-.143.037-.281.076-.422.119z" fill="#f2f2f2"/>
    <g class="B">
        <path d="M208.543 161.753a27.66 27.66 0 0 1 16.214 10.361 12.06 12.06 0 0 1 1.978 3.756c.384 1.416.379 2.909-.014 4.322-.443 1.344-.729 2.734-.852 4.144a4.3 4.3 0 0 0 1.725 3.5c1.388.935 2.966 1.55 4.62 1.8 1.831.4 3.744.784 5.134 2.007.168.148.427-.157.259-.305-2.418-2.128-6.161-1.754-8.932-3.274a4.25 4.25 0 0 1-2.422-3.442 14.12 14.12 0 0 1 .787-4.213 8.83 8.83 0 0 0 .172-4.248 11.26 11.26 0 0 0-1.814-3.839c-1.829-2.588-4.112-4.824-6.738-6.6-3.037-2.072-6.441-3.546-10.03-4.343-.226-.051-.311.324-.087.374z"/>
        <path d="M223.602 170.332a5.2 5.2 0 0 0 .9-6.521c-.13-.184-.452.052-.322.236 1.205 1.965.847 4.509-.853 6.066-.177.184.095.402.275.219zm3.381 9.171a8.53 8.53 0 0 1-6.442-1.968c-.169-.148-.428.158-.259.305a8.88 8.88 0 0 0 6.709 2.034c.242-.023.232-.393-.008-.371zm-11.452-15.341c-.554.833-1.45 1.375-2.445 1.479-.241.02-.231.39.008.371a3.76 3.76 0 0 0 2.708-1.631c.069-.075.066-.19-.006-.262a.2.2 0 0 0-.265.043z"/>
    </g>
    <g class="C">
        <path d="M204.464 157.041c.029-.032-.19-.06-.594-.083v-13.625h-19.62v1.1h-8.831c-2.159.006-3.906 1.757-3.905 3.916v5.635c-.002 2.16 1.746 3.912 3.906 3.916l9.05.012 3.974.006h.273l3.977.006 11.107.015h.957c.143-.162-.427-.741-.294-.898z"/>
        <path d="M204.672 157.293c-.649.948-1.174.914-1.634.3-.242-.353-.437-.736-.58-1.139-1.4-3.594-2.312-11.838-4.949-8.955l-1.58 1.693c-.986 1.04-2.016 2.168-3.037 3.166 0 0 .023-.108.02-.105-.5.494-.124-3.776-.323-4.978-.042-.26-.111-.376-.221-.272-.008-.117-.014-.233-.013-.351-.001-.186.008-.371.028-.556.017-.17.039-.341.072-.514l8.619-46.207c.463-2.481 2.482-4.375 4.988-4.679a5.95 5.95 0 0 1 1.733.061l1.569.294c.619.116 1.215.334 1.763.646h0a5.79 5.79 0 0 1 2.839 6.1z"/>
    </g>
    <path d="M131.076 183.614l-4.046-1.94 5.558-16.957 5.972 2.864zm27.128-2.734l-.886.548-1.786 1.073-.9.525v.009h-.018-.006l-.458.113-.657-1.74-.3-.8-.428-1.135-.785-2.077-4.131-10.936 6.423-1.588.241.986h0l.119.489 2.244 9.124.458 1.865.015.057.276 1.115.238.965.264 1.079z" class="F"/>
    <g class="D">
        <path d="M196.52 142.475l-1.242 1.955q-1.168 1.806-2.4 3.558c-.484.45-1.013.837-1.581 1.159-.024.018-.05.03-.074.045a5.8 5.8 0 0 1-1.326.533l-.5.125-1.786.372-3.127.405-.25.021c-4.265.226-8.54-.116-12.715-1.016-2.134-.405-4.313-.891-6.569-1.395l-2.226-.495-.175-.039-3.272-.7-4.354-.834.107 2.125c.087 1.634.425 3.245 1 4.777.905 2.058.933 4.396.077 6.475l-.517 1.5a5.14 5.14 0 0 1-.526 4.538l-.1.158 4.313 10.939.279.709h-2.208-2.717-4.6l-6.643-13.362-.318-.638v-.033l.687-25.678c.009-.227.027-.456.057-.682a7.81 7.81 0 0 1 2.963-5.257c1.581-1.239 3.593-1.791 5.585-1.532l2.274.3 4.646.6 3.272.426.065.009 9.651 1.252.693-2.831.128-.048 4.063-1.493 14.053-5.164.036-.012.924-.34.11.179.1.161a27.65 27.65 0 0 1 2.22 5.167 81.29 81.29 0 0 1 2.333 8.931q.04.2.071.358l.009.033a1.19 1.19 0 0 0 .018.092c.276 1.566.1 3.178-.508 4.647z"/>
        <path d="M197.113 133.012l-.16-.572c-.472-1.422-1.022-2.817-1.647-4.178l-2.544-5.006q-.727-1.305-1.563-2.715-.419-.706-.871-1.439a.76.76 0 0 0-.039-.066l-.086-.143-13.9 1.865-5.178.694-.309 2.587-.074.641-.208 1.746h0l-.276 2.306h-.024l-7.683-1-7.918-1.028-4.253-.551a7.48 7.48 0 0 0-5.585 1.532c-1.652 1.285-2.719 3.179-2.963 5.257l-.054.635-4.012 9.533a61.63 61.63 0 0 0-4.536 17.891l-2.943 9.431.419.039 6.236.581 1.647.155 3.626-5.307a27.19 27.19 0 0 0 1.171-1.865 28.36 28.36 0 0 0 1.6-3.23l7.844-18.714q.91.156 1.8.3 4.124.67 7.918 1.094a93.07 93.07 0 0 0 21.685.212q2.671-.326 5.163-.858.914-.192 1.8-.414l.413-.1c2.498-.648 4.496-2.519 5.305-4.97a7.78 7.78 0 0 0 .199-4.343zm-64.748 47.833l-4.378-2.1-.687-.331-1.1 2.7-7.657 1.69c-.778.172-1.354.829-1.423 1.623a1.82 1.82 0 0 0 1.123 1.843l7.481 3.06 2.375-2.142-.583 2.876 2.818 1.153 3.088-9.855zm26.909-4.158l.279.709h-.279z"/>
    </g>
    <g class="C">
        <path d="M106.966 125.117c0-1.6-.535-2.893-1.192-2.9H56.287c-.66 0-1.192 1.3-1.195 2.9v65.749a.6.6 0 0 1-.538.594q-.721.069-1.442.129h-.036l-.785.063h0q-.2-.374-.4-.755a.6.6 0 0 1-.068-.277v-69.263l.048-1.323a16.99 16.99 0 0 1 .223-1.794c.5-2.768 1.638-4.643 2.928-4.649h52.014a1.39 1.39 0 0 1 .547.116 2.13 2.13 0 0 1 .675.474 4.19 4.19 0 0 1 .663.909c.738 1.48 1.162 3.096 1.245 4.747v.054l.059 1.466.042 6.386.027 3.808.08 11.949.03 4.243.131 43.566h0a.6.6 0 0 1-.594.6h-2.39a.6.6 0 0 1-.594-.6zM71.689 95.875l-3.442 15.184-2.2 2.416H64.46L71 85.867l.323 4.69h0z"/>
        <path d="M88.256 111.393l-20.193-.128-1.792-.012-1.278-.009-1.489-.009h-.012a.82.82 0 0 0-.577.238l-2.514 2.521a.65.65 0 0 0-.134.191c-.016.02-.029.042-.039.066a.84.84 0 0 0 .755 1.174h26.159a.83.83 0 0 0 .749-.477l.205-.447.422-.909.478-1.025a.82.82 0 0 0 .077-.349.83.83 0 0 0-.817-.825z"/>
    </g>
    <path d="M88.094 114.5l-.207.449a.83.83 0 0 1-.747.476H60.98a.84.84 0 0 1-.754-1.173.25.25 0 0 1 .038-.066zm-16.77-23.943h0l-5.6 22.914h-1.263l6.54-27.608z" opacity=".17"/>
    <path d="M78.201 94.756l-7.927-60.465a.86.86 0 0 0-.327-.572l-5.457-6.848-.49-.378a.87.87 0 0 0-.636-.17l-.82.11a.86.86 0 0 0-.743.965h0l8.215 62.649h0l.5 3.832.6 4.55v.006l.927 7.08c.032.244.167.462.37.601s.455.185.694.126l.52-.131c.199-.052.374-.172.493-.34l.232-.331.107-.155 3.59-9.923a.86.86 0 0 0 .152-.606z" class="C"/>
    <path d="M64.485 26.871l9.971 78.42-.108.154-.231.33a.87.87 0 0 1-.494.34l-.521.131c-.239.059-.491.014-.694-.125s-.338-.357-.37-.601l-10.24-78.121c-.062-.472.269-.905.741-.968l.822-.108c.225-.03.454.031.633.171z" opacity=".17"/>
    <path d="M64.778 29.113l5.291 7.572 6.289 47.977-3.41 6.782z" class="E"/>
    <g class="C">
        <path d="M178.498 191.407l-3.629.068 10.086-35.127 3.629 1.124z"/>
        <path d="M202.297 191.473l-3.626-.069-9.951-33.491-.137-.441 2.327-.721 1.432.021.354 1.147z"/>
    </g>
    <path d="M157.75 177.547l-4.587 1.594-.72.249 1.115 2.692-4.255 6.6a1.82 1.82 0 0 0 2.221 2.672l7.464-3.1.184-3.2 1.6 2.454 2.811-1.168-4.722-9.181z" class="D"/>
    <path d="M129.906 78.951c.439.859 1.236 1.479 2.177 1.693s1.928-.001 2.695-.586l9.646 6.42.018-6.032-9.163-5.172a3.28 3.28 0 0 0-5.374 3.677z" class="F"/>
    <g class="G">
        <path d="M137.113 81.739l4.5-5.133 18.326 10.907 24.292-2.23c2.434-.22 4.841.654 6.566 2.386s2.591 4.141 2.363 6.574h0a8.23 8.23 0 0 1-8.937 7.442l-27.359-2.539z"/>
        <path d="M193.496 81.818l-.042-.053-11.482-1.136-7.758 13.7c-6.669 8.173-1.823 13.81-1.533 14.648l-2.315 10.7.519 3.581.259 1.064 26.423 13.845-5.431-18.138 5.3-16.541a23.35 23.35 0 0 0-3.943-21.667z"/>
    </g>
    <path d="M206.075 69.762l.009.435a9.98 9.98 0 0 1-13.072 9.494l-1.834-.6c-.015-.006-.033-.009-.048-.015l-3.023-.989a2.08 2.08 0 0 1 .006-.384c-4.509-1.931 1.724-8.275 3.272-13.04.241-.742-8.037-.188-7.645-.822l-.253-.134c2.863-4.538 8.349-6.681 13.53-5.286.065.015.134.036.2.054 5.873.146 8.958 4.249 8.958 9.577 0 .571-.033 1.142-.1 1.71z" class="D"/>
    <path d="M200.987 71.86a9.57 9.57 0 0 1-12.07 6.148q-.41-.134-.8-.3c-4.777-2.032-7.07-7.495-5.176-12.328s7.29-7.282 12.175-5.527 7.488 7.078 5.874 12.011z" class="F"/>
    <path d="M191.179 79.093c-.015-.006-.033-.009-.048-.015l-3.023-.989c-.01-.128-.008-.256.006-.384.26-1.2.859-2.301 1.726-3.171 1.226-1.465 1.654-3.438 1.145-5.279s-1.889-3.315-3.692-3.943l-.077-.027c-1.19-.399-2.351-.88-3.474-1.442l-.253-.134a4.19 4.19 0 0 1-1.543-1.234c.723-2.233 2.305-4.087 4.396-5.153s4.521-1.255 6.753-.527l1.754.572c2.213.722 4.051 2.291 5.112 4.363a9.92 9.92 0 0 1 2.975 3.734 9.78 9.78 0 0 1-11.757 13.629z" class="D"/>
    <path d="M196.965 125.841a2.59 2.59 0 0 1-1.658 2.42 2.51 2.51 0 0 1-.723.161l-.2.009h-4.99v24.274l-.229.3-1.3 1.636-.282.352-.431.525-.146.176-.737.876h0l-.125.149-.6.709a2.48 2.48 0 0 1-.725-.611c-.124-.15-.23-.314-.315-.489l-.015-.033a2.55 2.55 0 0 1-.25-1.117V128.43h-11.193c-.33.002-.658-.062-.963-.188-.782-.314-1.362-.991-1.551-1.812h0c-.139-.588-.066-1.207.208-1.746a2.36 2.36 0 0 1 .455-.635h0a2.57 2.57 0 0 1 1.849-.787h21.341c1.423.003 2.577 1.156 2.58 2.579zm14.211-50.1a8.09 8.09 0 0 0-9.438 6.481h0c-.713 3.81 1.369 7.592 4.969 9.029l-2.432 13.038 5.075.952 5.378-28.833z" class="C"/>
    <g class="D">
        <ellipse cx="203.87" cy="61.982" rx="4.161" ry="4.172"/>
        <path d="M252.378 73.96a18.74 18.74 0 0 1-5.639.74c-5.537.1-11.215-.39-16.255-2.693s-9.379-6.677-10.5-12.114c-.483-2.344-.426-4.954-1.9-6.837-1.748-2.235-5.262-2.539-7.709-1.109-2.406 1.585-3.98 4.16-4.292 7.024l-.986 1.607c.023 1.035 1.14 1.723 2.167 1.82s2.061-.187 3.09-.11a5.8 5.8 0 0 1 4.752 4.273 12.57 12.57 0 0 1-.222 6.713c-.681 2.163-1.245 4.36-1.688 6.584a9.03 9.03 0 0 0 1.214 6.525 10.18 10.18 0 0 0 4.027 3.035 27.16 27.16 0 0 0 38.299-18.928 7.43 7.43 0 0 1-4.358 3.47z"/>
    </g>
    <path d="M172.487 162.179h-8.475a1.94 1.94 0 0 1-1.916-1.669c-.523-3.861-.523-7.775 0-11.636a1.94 1.94 0 0 1 1.883-1.668 10.58 10.58 0 0 1 8.537 0 1.91 1.91 0 0 1 1.456.7c.372.458.519 1.058.4 1.636a26.19 26.19 0 0 0 0 10.292c.119.578-.028 1.178-.4 1.636a1.91 1.91 0 0 1-1.485.709z" class="E"/>
    <g class="B">
        <use xlink:href="#svgf9c5ce1fb8"/>
        <use xlink:href="#svgf9c5ce1fb8" y="3.576"/>
        <use xlink:href="#svgf9c5ce1fb8" y="7.152"/>
    </g>
    <path d="M71.212 67.462h0a.28.28 0 0 1 .3-.244l45.856.122a.28.28 0 0 1 .3.245h0a.28.28 0 0 1-.3.244l-45.856-.123a.28.28 0 0 1-.3-.244z" class="C"/>
    <path d="M83.338 95.78l-1.947 2.147c-.184.156-.442.189-.66.086a1.96 1.96 0 0 1-.833-.573c-1.391-1.583-2.953-3.007-4.658-4.246-.28-.198-.504-.466-.648-.777a.63.63 0 0 1 .015-.658c-.025-1.128.837-2.079 1.962-2.164.225-.235.733-.146 1.188.211a47.34 47.34 0 0 1 5.266 4.8c.401.425.536.93.315 1.174z" class="E"/>
    <g class="B">
        <use xlink:href="#svg6fb135bee0"/>
        <path d="M79.953 92.632l-1.639 1.807c-.057.062-.193.03-.3-.071s-.156-.235-.1-.3l1.63-1.804c.057-.062.193-.03.3.071s.165.236.109.297z"/>
        <use xlink:href="#svg6fb135bee0" x="3.237" y="2.95"/>
    </g>
    <path d="M257 191.646c.001.094-.037.185-.103.251s-.157.104-.251.104H.354c-.188-.01-.336-.166-.336-.354s.148-.344.336-.354h256.292c.094 0 .184.037.251.104s.104.157.103.251z" fill="#ccc"/>
    <path d="M174.969 151.316a3.27 3.27 0 0 0 .814-4.942l5.82-10.035-6.007.339-4.606 9.478a3.28 3.28 0 0 0 3.979 5.16z" class="F"/>
    <path d="M177.319 143.938l-5.378-4.2 9.773-18.988-3.662-24.18a8.23 8.23 0 0 1 8.392-9.467h0a8.24 8.24 0 0 1 7.939 8.5l-.9 27.532zM130.677 84.11h-18.161a1.84 1.84 0 0 1-1.836-1.841V58.161a1.84 1.84 0 0 1 1.836-1.84h18.161a1.84 1.84 0 0 1 1.836 1.84V82.27a1.84 1.84 0 0 1-1.836 1.84z" class="G"/>
    <path d="M129.401 82.576h-15.61c-.901-.002-1.63-.733-1.63-1.634V59.488c0-.901.729-1.632 1.63-1.634h15.61c.901.002 1.63.733 1.63 1.634v21.453c.001.901-.729 1.633-1.63 1.635z" class="B"/>
    <g class="E">
        <path d="M127.844 61.931h-12.493a.41.41 0 0 1-.389-.409.41.41 0 0 1 .389-.409h12.494a.41.41 0 0 1 .389.409.41.41 0 0 1-.389.409z"/>
        <path d="M127.844 63.545h-12.493a.41.41 0 0 1-.389-.409.41.41 0 0 1 .389-.409h12.493a.41.41 0 0 1 .389.409.41.41 0 0 1-.389.409z"/>
        <path d="M120.766 65.159h-5.415a.41.41 0 0 1-.389-.409.41.41 0 0 1 .389-.409h5.416a.41.41 0 0 1 .389.409.41.41 0 0 1-.389.409z"/>
    </g>
    <g fill="#e4e4e4">
        <use xlink:href="#svg1e79ed2751"/>
        <use xlink:href="#svgceb7bf6787"/>
        <use xlink:href="#svg5682c378c6"/>
        <use xlink:href="#svg1e79ed2751" y="6.609"/>
        <use xlink:href="#svgceb7bf6787" y="6.609"/>
        <use xlink:href="#svg5682c378c6" y="6.611"/>
    </g>
    <path d="M68.879 51.987l48.719-41.779h.077v.613h.149L69.277 52.452z" class="D"/>
    <path d="M102.516 99.967h-22.4c-.73.002-1.32.593-1.32 1.323v13.983c0 .73.59 1.321 1.32 1.323h22.4c.73-.002 1.32-.593 1.32-1.323V101.29c0-.73-.59-1.321-1.32-1.323z" class="B"/>
    <g fill="#cacaca">
        <path d="M102.516 99.967h-22.4c-.73.002-1.32.593-1.32 1.323v13.983c0 .73.59 1.321 1.32 1.323h22.4c.73-.002 1.32-.593 1.32-1.323V101.29c0-.73-.59-1.321-1.32-1.323zm.433 10.044c-.008 2.957-2.378 5.365-5.335 5.419-2.273.03 1.258.041-1.484.041-6.269 0-12.805-.06-15.244-.1a1.23 1.23 0 0 1-1.2-1.228v-12.852c0-.239.194-.434.433-.435h22.4c.239.001.433.195.434.434z"/>
        <path d="M99.561 108.891H82.493c-.31-.001-.586-.195-.69-.487l-2.636-7.414c-.08-.224-.046-.473.091-.668s.36-.311.598-.312l22.89-.041h0c.246.001.476.125.611.331s.159.466.062.692l-.04-.017.04.017-3.187 7.455a.73.73 0 0 1-.671.444z"/>
    </g>
    <ellipse cx="91.302" cy="108.891" rx="1.824" ry="1.828" class="C"/>
    <g class="G">
        <path d="M42.243 182.492a9.87 9.87 0 0 1-4.441 6.565c-.547.371-1.125.695-1.727.969a15 15 0 0 1-2.042.751 34.93 34.93 0 0 1-9.588.953l-9.761.063c-2.565.015-5.213.015-7.582-.971a1.08 1.08 0 0 1-.1-.045c-2.327-1.007-4.31-3.221-4.253-5.754a5.2 5.2 0 0 1 .731-2.53 7.4 7.4 0 0 1 1.082-1.418c1.398-1.331 3.005-2.425 4.756-3.239 2.764-1.392 5.888-3.2 6.7-6.058.085-.301.143-.609.172-.921a7.91 7.91 0 0 0-1.98-5.394l-.372-.483-.835-1-.36-.417a15.11 15.11 0 0 1-2.847-4.258c-.255-.653-.396-1.344-.419-2.044-.065-2.53 2.755-5.078 4.889-3.883q1.569-.152 3.139-.313l3.843-.387h0l.853-.083q4-.4 7.992-.8c1.183-.116 2.574-.161 3.344.751.838 1 .4 2.569-.425 3.573s-1.98 1.71-2.758 2.747a6 6 0 0 0-.954 4.7c.083.483.209.957.374 1.418.292.823.695 1.602 1.2 2.315 1.748 2.455 4.336 4.148 6.634 6.094s4.452 4.422 4.767 7.42l.021.265a6.84 6.84 0 0 1-.053 1.414z"/>
        <path d="M23.551 155.206a33.87 33.87 0 0 1-5.865-7.783 34.61 34.61 0 0 1-3.435-9.081c-.723-3.221-.962-6.532-.71-9.824a34.45 34.45 0 0 1 7.107-18.419q.377-.485.772-.955c.293-.35.792.154.5.5-11.119 13.287-10.193 32.88 2.131 45.058.118.141.108.349-.022.478s-.337.139-.478.022z"/>
        <path d="M20.363 110.702a8.57 8.57 0 0 0 .841-.368l.041.064z"/>
        <path d="M25.831 104.44a6.86 6.86 0 0 1-.621 1.871 8.96 8.96 0 0 1-3.73 3.88l-.273.143-.33-.518c-.759-1.133-1.32-2.386-1.659-3.707a5.43 5.43 0 0 1 .835-4.538c.997-1.304 2.776-1.722 4.25-1a2.99 2.99 0 0 1 .981.951l-.41.507a.51.51 0 0 1-.039.045l-.36.444-1.486 1.833a9.38 9.38 0 0 0 2.122.146l.172-.009.548-.048zm-10.026 12.22l-.19 2.485-.051.673-.163-.08c-3.743-1.865-6.501-5.251-7.57-9.294a14.16 14.16 0 0 1-.372-2.113l2.892-.45a9.5 9.5 0 0 0-2.871-2.494 14.4 14.4 0 0 1 2.6-6.9c.25 4.166 4.6 6.815 6.194 10.668.991 2.443.818 5.204-.469 7.505zm-.826 21.828l-.692.015c-4-.026-7.812-1.703-10.534-4.634a14.15 14.15 0 0 1-2.595-4.074l.059-.009 2.892-.45a9.46 9.46 0 0 0-3.938-3.01 14.22 14.22 0 0 1-.048-4.068c2.176 3.555 7.261 3.841 10.474 6.487a8.69 8.69 0 0 1 2.957 5.015 8.19 8.19 0 0 1 .152 1.472v.352l.071.161zm9.558 4.115l-1.846 2.277a9.4 9.4 0 0 0 2.295.137 14.57 14.57 0 0 1-3.8 6.457l-.523.486-.11.1-.16-.456h0l-.909-2.524a8.63 8.63 0 0 1-2.3-4.234v-.006a8.34 8.34 0 0 1-.146-2.861c.508-4.139 4-7.861 3.13-11.94a14.44 14.44 0 0 1 4.31 5.862l-1.486 1.833c.7.129 1.411.178 2.122.146a13.97 13.97 0 0 1 .4 3.081v.444l-.939 1.159a.42.42 0 0 1-.039.045zM133.352 20.34h-18.16a1.84 1.84 0 0 1-1.836-1.84V1.84A1.84 1.84 0 0 1 115.192 0h18.16a1.84 1.84 0 0 1 1.836 1.84v16.659a1.84 1.84 0 0 1-1.836 1.841z"/>
    </g>
    <path d="M132.076 18.803h-15.61c-.901-.002-1.63-.733-1.63-1.634v-14c0-.901.729-1.632 1.63-1.634h15.61c.901.002 1.63.733 1.63 1.634v14c0 .901-.729 1.632-1.63 1.634z" class="B"/>
    <g class="E">
        <path d="M130.519 5.61h-12.493a.41.41 0 0 1-.389-.409.41.41 0 0 1 .389-.409h12.494a.41.41 0 0 1 .389.409.41.41 0 0 1-.389.409z"/>
        <path d="M130.519 7.225h-12.493a.41.41 0 0 1-.389-.409.41.41 0 0 1 .389-.409h12.494a.41.41 0 0 1 .389.409.41.41 0 0 1-.389.409z"/>
        <path d="M123.441 8.839h-5.415a.41.41 0 0 1-.389-.409.41.41 0 0 1 .389-.409h5.416a.41.41 0 0 1 .389.409.41.41 0 0 1-.389.409z"/>
    </g>
    <g fill="#e4e4e4">
        <use xlink:href="#svg2eedc8cb9a"/>
        <use xlink:href="#svg2eedc8cb9a" y="1.614"/>
        <use xlink:href="#svg5682c378c6" x="2.675" y="-56.32"/>
    </g>
</svg>