<svg xmlns="http://www.w3.org/2000/svg" viewBox="0 0 320.6 240"
    xmlns:v="https://vecta.io/nano">
    <defs>
        <linearGradient id="svg737570706f" x1=".5" x2=".5" y2="1">
            <stop offset="0" stop-color="#00acf8"/>
            <stop offset="1" stop-color="#2b50ea"/>
        </linearGradient>
    </defs>
    <g fill="#e6e6e6">
        <path d="M244.857 179.989l-22.535-9.942V161.5l8.031-.045c2.555-.014 4.818-1.655 5.626-4.079l5.642-16.925c.606-1.819.301-3.819-.82-5.374s-2.922-2.477-4.839-2.477h-13.64v-7.953h17.123c2.779 0 5.19-1.92 5.813-4.628l3.885-16.9c.407-1.77-.016-3.63-1.147-5.051s-2.849-2.249-4.666-2.249h-21.008v-1.988c.023-1.436-.73-2.772-1.97-3.497s-2.774-.725-4.013 0-1.993 2.061-1.97 3.497v1.988H73.527v-1.988c.023-1.436-.73-2.772-1.97-3.497s-2.774-.725-4.013 0-1.993 2.061-1.97 3.497v1.988h-16.7c-1.817 0-3.534.828-4.666 2.249s-1.554 3.28-1.147 5.051l3.885 16.9c.623 2.709 3.034 4.629 5.813 4.629h12.815v7.953h-9.331c-1.907 0-3.699.911-4.822 2.453s-1.441 3.527-.856 5.342l5.758 17.871c.798 2.477 3.109 4.151 5.711 4.136l3.539-.02v7.667l-18.227 9.942c-3.294 0-5.965 2.671-5.965 5.965h0c0 3.294 2.671 5.965 5.965 5.965h18.227v43.744a3.98 3.98 0 0 0 3.977 3.977 3.98 3.98 0 0 0 3.977-3.977v-43.747h140.841v43.744a3.98 3.98 0 0 0 3.976 3.914 3.98 3.98 0 0 0 3.976-3.914v-43.744h22.536c3.294 0 5.965-2.671 5.965-5.965h0c0-3.294-2.671-5.965-5.965-5.965zm-171.33-55.343h140.841v7.953H73.527zm0 45.4v-7.715l140.843-.791v8.5z"/>
        <path d="M228.562 179.96c2.477-19.92 14.823-39.547 33.82-46.03-7.494 20.503-7.494 42.997 0 63.5 2.919 7.9 6.988 16.375 4.242 24.333-1.708 4.952-5.888 8.741-10.56 11.109s-9.857 3.5-14.978 4.6l-1.008.833c-8.122-18.35-13.993-38.425-11.516-58.345z"/>
    </g>
    <g fill="#fff">
        <path d="M262.571 134.308a79.05 79.05 0 0 0-19.652 44.49c-.432 3.551-.301 7.148.387 10.659.781 3.398 2.458 6.525 4.856 9.056 2.189 2.4 4.706 4.611 6.272 7.506 1.577 3.021 1.789 6.572.584 9.76-1.383 3.966-4.108 7.2-6.883 10.266-3.081 3.407-6.335 6.9-7.645 11.413-.159.547-1 .269-.84-.277 2.279-7.858 9.907-12.322 13.544-19.4 1.7-3.3 2.41-7.137.819-10.623-1.392-3.049-3.985-5.326-6.223-7.742-2.376-2.435-4.119-5.414-5.078-8.678a31.47 31.47 0 0 1-.8-10.6 76.69 76.69 0 0 1 5.6-23.307 80.45 80.45 0 0 1 14.474-23.184c.378-.424.961.243.585.664z"/>
        <path d="M243.157 173.443a11.86 11.86 0 0 1-9.028-12.424.44.44 0 0 1 .463-.4c.237.012.422.208.421.444-.42 5.397 3.154 10.295 8.422 11.54.554.132.273.971-.278.84zm3.735 23.996a22.86 22.86 0 0 0 10.208-13.165c.161-.547 1-.269.84.277a23.78 23.78 0 0 1-10.65 13.678c-.491.291-.886-.5-.4-.79zm4.913-48.27c2.04.969 4.431.848 6.362-.323.487-.3.881.5.4.79-2.139 1.283-4.775 1.423-7.037.373-.227-.083-.35-.328-.281-.559.078-.229.325-.354.556-.281z"/>
    </g>
    <path d="M320.291 169.51l-.9.59c-3.999 2.631-7.779 5.583-11.3 8.826-.276.246-.553.5-.821.754-8.405 7.904-15.269 17.299-20.244 27.709-1.976 4.144-3.633 8.432-4.958 12.828-1.829 6.07-3.33 12.8-6.952 17.763a15.52 15.52 0 0 1-1.21 1.493h-32.727c-.074-.037-.149-.067-.224-.1l-1.307.06.164-.7c.03-.134.067-.269.1-.4.022-.09.045-.179.06-.261.007-.03.015-.06.022-.082.015-.082.038-.157.053-.232q.493-2 1.015-4.01a133.29 133.29 0 0 1 11.207-29.415l.463-.836a86.37 86.37 0 0 1 7.758-11.768c1.596-2.024 3.293-3.965 5.085-5.817a63.5 63.5 0 0 1 15.889-11.9c11.738-6.2 25.327-8.572 37.872-4.786a16.13 16.13 0 0 1 .955.284z" fill="#e6e6e6"/>
    <g fill="#fff">
        <path d="M320.215 169.926a79.05 79.05 0 0 0-42.477 23.691c-2.483 2.576-4.544 5.527-6.108 8.744-1.422 3.183-1.966 6.689-1.575 10.154.3 3.238.981 6.515.489 9.769-.56 3.362-2.528 6.325-5.41 8.144-3.492 2.334-7.614 3.274-11.676 4.053-4.511.865-9.21 1.693-12.975 4.51-.456.341-.959-.386-.5-.727 6.55-4.9 15.328-3.874 22.494-7.335 3.344-1.615 6.221-4.247 7.049-7.989.724-3.272.024-6.652-.307-9.928-.431-3.374-.029-6.803 1.17-9.986a31.47 31.47 0 0 1 5.75-8.946c5.33-6.017 11.573-11.159 18.5-15.237 7.882-4.697 16.509-8.012 25.508-9.8.557-.11.621.773.068.882z"/>
        <path d="M281.153 189.485a11.86 11.86 0 0 1 .272-15.355c.378-.426 1.057.141.679.567-3.584 4.056-3.68 10.118-.224 14.284.363.438-.366.94-.727.504zm-11.465 21.408a22.86 22.86 0 0 0 16.077-4.366c.457-.34.961.388.5.727a23.78 23.78 0 0 1-16.739 4.509c-.567-.063-.406-.933.158-.87zm32.983-35.584c1.045 2.002 3.027 3.345 5.274 3.573.568.056.406.926-.158.87a7.52 7.52 0 0 1-5.844-3.939c-.131-.203-.082-.473.112-.616.201-.138.476-.088.616.112z"/>
    </g>
    <path d="M7.683 197.649c1.741-14 10.417-27.793 23.768-32.349a65 65 0 0 0 0 44.625c2.052 5.549 4.911 11.508 2.981 17.1-1.2 3.48-4.138 6.143-7.421 7.807a43.15 43.15 0 0 1-10.526 3.236l-.708.586c-5.709-12.897-9.835-27.006-8.094-41.005z" fill="#e6e6e6"/>
    <g fill="#fff">
        <path d="M31.583 165.565c-7.775 8.712-12.608 19.652-13.811 31.267-.304 2.496-.212 5.024.272 7.491a13.72 13.72 0 0 0 3.413 6.364c1.538 1.69 3.307 3.241 4.408 5.275a8.4 8.4 0 0 1 .41 6.859 21.83 21.83 0 0 1-4.837 7.215c-2.165 2.394-4.452 4.847-5.372 8.021-.112.385-.7.189-.59-.195 1.6-5.523 6.962-8.659 9.519-13.633a8.51 8.51 0 0 0 .575-7.466c-.978-2.142-2.8-3.743-4.373-5.441a14.64 14.64 0 0 1-3.569-6.1 22.12 22.12 0 0 1-.559-7.453 53.9 53.9 0 0 1 3.936-16.379 56.54 56.54 0 0 1 10.167-16.293c.266-.3.676.171.411.466z"/>
        <path d="M17.94 193.07c-3.968-.963-6.654-4.659-6.345-8.731a.31.31 0 0 1 .326-.287.31.31 0 0 1 .295.318 7.72 7.72 0 0 0 5.918 8.11c.389.093.192.682-.195.59zm2.624 16.863a16.06 16.06 0 0 0 7.174-9.252c.113-.384.7-.189.59.195a16.71 16.71 0 0 1-7.485 9.613c-.345.2-.623-.352-.28-.555zm3.453-33.924a4.72 4.72 0 0 0 4.471-.227c.342-.209.619.348.28.555-1.503.902-3.356 1-4.946.262a.32.32 0 0 1-.2-.393c.055-.163.232-.251.395-.197z"/>
    </g>
    <path d="M72.147 190.305l-.63.415c-2.811 1.848-5.468 3.922-7.944 6.2l-.577.53a65.5 65.5 0 0 0-14.226 19.474 63.61 63.61 0 0 0-3.484 9.015c-1.286 4.266-2.34 8.994-4.886 12.484a10.91 10.91 0 0 1-.85 1.049h-23c-.052-.026-.1-.047-.157-.073l-.918.042.116-.493c.021-.094.047-.189.068-.283.016-.063.032-.126.042-.184.005-.021.011-.042.016-.058.01-.058.026-.11.037-.163q.346-1.409.714-2.818c1.802-7.185 4.444-14.122 7.876-20.675l.325-.588a60.7 60.7 0 0 1 5.452-8.27c1.122-1.422 2.314-2.787 3.574-4.088 3.261-3.357 7.029-6.179 11.167-8.365 8.249-4.355 17.8-6.024 26.616-3.364l.669.213z" fill="#e6e6e6"/>
    <g fill="#fff">
        <path d="M72.095 190.597c-11.453 2.275-21.898 8.1-29.852 16.649-1.745 1.81-3.194 3.884-4.293 6.145a13.72 13.72 0 0 0-1.107 7.136c.211 2.276.69 4.579.343 6.866a8.4 8.4 0 0 1-3.8 5.724 21.83 21.83 0 0 1-8.206 2.849c-3.17.608-6.473 1.19-9.119 3.17-.321.24-.674-.272-.354-.511 4.6-3.445 10.772-2.722 15.809-5.155a8.51 8.51 0 0 0 4.954-5.614c.509-2.3.017-4.675-.216-6.977a14.64 14.64 0 0 1 .822-7.018c.981-2.31 2.347-4.436 4.041-6.287a53.9 53.9 0 0 1 13-10.708 56.54 56.54 0 0 1 17.927-6.888c.392-.078.437.543.048.62z"/>
        <path d="M44.642 204.343c-2.588-3.158-2.507-7.726.191-10.791.265-.3.743.1.477.4a7.72 7.72 0 0 0-.157 10.039c.255.308-.258.66-.511.354zm-8.057 15.045c4.019.435 8.053-.66 11.3-3.068.321-.239.675.273.354.511A16.71 16.71 0 0 1 36.475 220c-.4-.044-.285-.656.111-.612zm23.183-25.007a4.72 4.72 0 0 0 3.707 2.511c.4.039.285.651-.111.612a5.29 5.29 0 0 1-4.107-2.768.32.32 0 0 1 .079-.433c.141-.097.335-.062.433.079z"/>
    </g>
    <path d="M122.356 232.079l-5.928 1.715-9.437-22.05 8.75-2.531z" fill="#9e616a"/>
    <path d="M136.535 152.167l-6.116 6.524s-32.213 14.271-32.213 21.611 7.747 39.144 11.009 41.59c1.965 1.482 1.077 3.078 2.051 5.337l11.4-4.114s-.815-2.447 0-3.67c.499-.588.499-1.451 0-2.039 0 0-1.223.408-.815-.815s.408-1.631 0-2.039a28.08 28.08 0 0 1-1.631-4.078s.408-14.679-5.3-19.98c0 0 26.5-7.747 29.766-13.048s4.077-24.465 4.077-24.465zm-11.761 83.292l-19.755 4.077-.052-.25c-.876-4.246 1.855-8.398 6.1-9.276h0l3.043-3.482 7.3 1.348 1.724-.356z" fill="#2f2e41"/>
    <path d="M143.923 207.313l-7.565 5.072 15.7 18.137 5.126-3.437z" fill="#9e616a"/>
    <path d="M155.223 140.927c-4.041-8.52 8.277 16.674 6.646 24.476-1.273 6.092-25.059 25.491-25.059 25.491 7.167 3.053 11.756 17 11.756 17a28.11 28.11 0 0 0 2.916 3.284c.522.246.66.629.691 1.918s1.044.491 1.044.491c.669.384.961 1.196.691 1.918-.353 1.427 1.243 3.453 1.243 3.453l-8.814 8.224c-1.683-1.8-1.908-4.083-4.258-4.812-3.9-1.2-21.961-28.5-24.448-35.4s22.987-31.245 22.987-31.245l2.163-12.047zm4.54 92.241L140.788 240l-.086-.24c-1.469-4.08.648-8.578 4.727-10.047h0l2.52-3.878 7.415.3 1.657-.6z" fill="#2f2e41"/>
    <path d="M140.761 100.227l-5.494 4.183-14.594 3.865s5.229 36.7 2.761 39.168-.242 2.534-.738 5.74-1.7 9.778-1.7 9.778c16.659 8.818 31.021 9.055 42.557-1.264.304-1.315-.348-2.665-1.568-3.243-2.147-1.139 1.979-6.457.225-7.346s.713-8.6.713-8.6l5.349-25.251-14.223-11.131-2.164-5.213z" fill="url(#svg737570706f)"/>
    <circle cx="147.616" cy="131.121" r="1.901" fill="#f2f2f2"/>
    <circle cx="146.385" cy="87.032" r="10.867" fill="#9e616a"/>
    <path d="M162.209 129.604l1.8 1.347.9-6.287z" opacity=".1"/>
    <path d="M121.534 108.24s-2.245-.449-3.592 3.592-8.109 25.323-8.109 28.017 32.584 8.568 32.584 8.568l-3.2-11.228-14.8-4.63z" fill="url(#svg737570706f)"/>
    <circle cx="143.843" cy="141.508" r="5.245" fill="#9e616a"/>
    <path d="M125.379 127.214l.411 5.562 13.028 6.838-11.588-7.774z" opacity=".1"/>
    <path d="M156.036 125.025h-.169v-4.63a2.68 2.68 0 0 0-2.68-2.68h-9.81a2.68 2.68 0 0 0-2.68 2.68v25.4a2.68 2.68 0 0 0 2.68 2.68h9.809a2.68 2.68 0 0 0 2.68-2.68V128.32h.169z" fill="#f0f0f0"/>
    <g fill="url(#svg737570706f)">
        <path d="M168.271 117.256s1.347.9 2.245 4.939 6.736 19.309 4.49 22.9-2.908 7.426-10.542 2.038l-10.563-9.672 7.634-7.185 3.143 2.245z"/>
        <circle cx="148.402" cy="126.79" r="2.245"/>
    </g>
    <circle cx="154.902" cy="131.71" r="5.245" fill="#9e616a"/>
    <path d="M123.568 144.773l16.182 3.03-15.755.6z" opacity=".1"/>
    <path d="M155.953 79.854s2.829-5.409-3.4-5.9c0 0-5.307-4.814-10.715-.88a5.43 5.43 0 0 0-4.564 3.339c0 0-2.32-.88-2.83 1.475 0 0-1.7 4.917 0 9.343s2.262 4.917 2.262 4.917-1.191-5.492 5.6-5.983 13.021-4.746 13.587.663 1.188 2.965 1.188 2.965 5.38-7.727-1.128-9.939z" fill="#2f2e41"/>
    <path d="M261.498 68.183h-87.973c-1.349 0-2.642.536-3.596 1.489s-1.489 2.247-1.489 3.596v21.158c0 1.349.536 2.642 1.489 3.596s2.247 1.489 3.596 1.489h1.291v3.822c.001.473.287.9.724 1.081s.941.082 1.276-.252l4.652-4.652h80.029c1.349 0 2.642-.536 3.596-1.489s1.489-2.247 1.489-3.596V73.268c0-2.808-2.276-5.084-5.084-5.085z" fill="#3f3d56"/>
    <path d="M261.498 96.936h-87.972a2.51 2.51 0 0 1-2.5-2.5V73.269a2.51 2.51 0 0 1 2.5-2.5h66.815c13.062.015 23.647 10.6 23.662 23.662a2.51 2.51 0 0 1-2.5 2.5z" fill="#fff"/>
    <rect width="40.477" height="3.327" rx="1.663" fill="url(#svg737570706f)" x="197.366" y="75.391"/>
    <g fill="#e6e6e6">
        <rect width="56.28" height="3.327" rx="1.663" x="189.464" y="82.045"/>
        <rect width="56.28" height="3.327" rx="1.663" x="189.464" y="88.699"/>
    </g>
    <path d="M316.636.005h-68.57c-1.051 0-2.06.418-2.803 1.161s-1.161 1.752-1.161 2.803v16.486c0 1.051.418 2.06 1.161 2.803s1.752 1.161 2.803 1.161h1.006v2.979c0 .369.223.703.564.844s.734.063.996-.198l3.626-3.626h62.379c1.051 0 2.06-.418 2.803-1.161s1.161-1.752 1.161-2.803V3.964c-.003-2.188-1.777-3.96-3.965-3.959z" fill="#f2f2f2"/>
    <path d="M316.636 22.408h-68.568c-1.078-.001-1.951-.874-1.952-1.952V3.964c.001-1.078.874-1.951 1.952-1.952h52.08c10.182.012 18.432 8.262 18.444 18.444-.001.518-.207 1.015-.574 1.381s-.864.571-1.382.571z" fill="#fff"/>
    <g fill="#f2f2f2">
        <rect width="31.55" height="2.593" rx="1.297" x="266.648" y="5.619"/>
        <rect width="43.868" height="2.593" rx="1.297" x="260.489" y="10.805"/>
        <rect width="43.868" height="2.593" rx="1.297" x="260.489" y="15.991"/>
        <path d="M163.24 27.174h68.571c1.051 0 2.06.418 2.803 1.161s1.161 1.752 1.161 2.803v16.491c0 1.051-.418 2.06-1.161 2.803s-1.752 1.161-2.803 1.161h-1.006v2.979c0 .369-.223.703-.564.844s-.734.063-.996-.198l-3.626-3.626H163.24c-1.051 0-2.06-.418-2.803-1.161s-1.161-1.752-1.161-2.803v-16.49c0-1.051.418-2.06 1.161-2.803s1.752-1.161 2.803-1.161z"/>
    </g>
    <path d="M161.287 47.63c.011-10.181 8.262-18.432 18.443-18.444h52.078c1.078.001 1.951.874 1.952 1.952V47.63c-.001 1.078-.874 1.951-1.952 1.952h-68.569c-1.078-.001-1.951-.874-1.952-1.952z" fill="#fff"/>
    <g fill="#f2f2f2">
        <rect width="31.55" height="2.593" rx="1.297" transform="matrix(-1 0 0 -1 213.228 35.386)"/>
        <rect width="43.868" height="2.593" rx="1.297" transform="matrix(-1 0 0 -1 219.387 40.573)"/>
        <rect width="43.868" height="2.593" rx="1.297" transform="matrix(-1 0 0 -1 219.387 45.759)"/>
    </g>
    <path d="M285.161 239.976H.395c-.21-.011-.375-.184-.375-.394s.165-.384.375-.394h284.766c.146-.007.284.066.359.191s.075.281 0 .406-.213.199-.359.191z" fill="#ccc"/>
</svg>