<svg xmlns="http://www.w3.org/2000/svg"
    xmlns:xlink="http://www.w3.org/1999/xlink" viewBox="0 0 137.771 120"
    xmlns:v="https://vecta.io/nano">
    <style><![CDATA[.B{fill:url(#svge7f5346a30)}.C{fill:#e6e6e6}.D{fill:#fff}.E{fill:#3f3d56}.F{fill:#2f2e41}.G{fill:#ffb6b6}.H{fill:#cacaca}]]></style>
    <defs>
        <linearGradient id="svge7f5346a30" x1=".5" x2=".5" y2="1">
            <stop offset="0" stop-color="#009343"/>
            <stop offset="1" stop-color="#069b00"/>
        </linearGradient>
        <path id="svg9ac7c5666d" d="M69.186 29.165h-3.61a.42.42 0 0 0-.421.421v3.607a.42.42 0 0 0 .421.42h3.61a.42.42 0 0 0 .421-.42v-3.607c-.001-.232-.189-.42-.421-.421z"/>
        <path id="svga09cd25ec0" d="M84.33 41.459h-3.606a.42.42 0 0 0-.421.421v3.606a.42.42 0 0 0 .421.421h3.606a.42.42 0 0 0 .421-.421V41.88c-.001-.232-.189-.42-.421-.421z"/>
        <path id="svgb392353d7e" d="M99.479 29.165h-3.607a.42.42 0 0 0-.419.421v3.607a.42.42 0 0 0 .419.42h3.607a.42.42 0 0 0 .421-.42v-3.607c-.001-.232-.189-.42-.421-.421z"/>
        <path id="svg9115a7240b" d="M107.057 29.165h-3.607a.42.42 0 0 0-.42.421v3.607a.42.42 0 0 0 .419.42h3.608a.42.42 0 0 0 .421-.42v-3.607c-.001-.232-.189-.42-.421-.421z"/>
        <path id="svgd15f259433" d="M107.057 47.606h-3.607a.42.42 0 0 0-.42.421v3.606a.42.42 0 0 0 .42.421h3.607a.42.42 0 0 0 .421-.421v-3.606c-.001-.232-.189-.42-.421-.421z"/>
        <path id="svg3524ef3478" d="M107.057 53.753h-3.607a.42.42 0 0 0-.42.421v3.606a.42.42 0 0 0 .42.421h3.607a.42.42 0 0 0 .421-.421v-3.606a.42.42 0 0 0-.421-.421z"/>
        <path id="svg721489b7e5" d="M129.776 29.165h-3.607a.42.42 0 0 0-.42.421v3.607a.42.42 0 0 0 .419.42h3.607a.42.42 0 0 0 .421-.42v-3.607c-.001-.232-.188-.42-.42-.421z"/>
    </defs>
    <path d="M124.219 62.45c.018 14.849-5.722 29.126-16.012 39.831q-.931.974-1.911 1.9-1.494 1.421-3.089 2.733a57.33 57.33 0 0 1-35.244 13.07q-.644.015-1.293.015c-10.274 0-23.2-5.488-34.925-13.085q-1.455-.943-2.885-1.929-.668-.457-1.33-.927c-4.523-3.195-8.816-6.704-12.848-10.5-2.64-2.476-5.117-5.121-7.413-7.919-9.011-11.115-11-21.13 1.848-23.189q2.281-.364 4.429-.779 3.11-.6 5.953-1.291 3.829-.931 7.2-2.018 1.132-.364 2.213-.743c10.649-3.74 17.776-8.617 22.627-13.909q1.234-1.344 2.276-2.72a38.24 38.24 0 0 0 2.888-4.393 41.29 41.29 0 0 0 2.982-6.649l.044-.126c3.86-11.135 2.686-21.462 6.944-24.919 18.2-14.777 40.866 6.267 51.5 31.084q.8 1.876 1.513 3.774.318.848.614 1.7.777 2.218 1.411 4.448.243.85.463 1.7l.447 1.829a58.01 58.01 0 0 1 1.598 13.012z" fill="#f2f2f2"/>
    <path d="M67.963 119.986q-.644.015-1.293.015c-10.274 0-23.2-5.488-34.925-13.085q-1.455-.943-2.885-1.929l.836-5.086 25.3-3.359 12.7 9.711z" class="F"/>
    <use xlink:href="#svg9ac7c5666d" class="D"/>
    <g class="C">
        <use xlink:href="#svg9ac7c5666d" y="6.147"/>
        <path d="M69.186 41.459h-3.61a.42.42 0 0 0-.421.421v3.606a.42.42 0 0 0 .421.421h3.61a.42.42 0 0 0 .421-.421V41.88c-.001-.232-.189-.42-.421-.421zm.411 6.493c-.037-.2-.211-.346-.415-.347h-3.606a.42.42 0 0 0-.421.421v3.606a.42.42 0 0 0 .421.421h3.61a.42.42 0 0 0 .421-.421v-3.606c-.001-.025-.004-.05-.01-.074zm-.251 5.833a.44.44 0 0 0-.164-.032h-3.606a.42.42 0 0 0-.421.421v3.606a.42.42 0 0 0 .421.421h3.61a.42.42 0 0 0 .421-.421v-3.606c-.001-.17-.104-.324-.261-.389zm7.41-24.62H73.15a.42.42 0 0 0-.421.421v3.607a.42.42 0 0 0 .421.42h3.606a.42.42 0 0 0 .421-.42v-3.607c-.001-.232-.189-.42-.421-.421z"/>
    </g>
    <g class="B">
        <path d="M76.756 35.312H73.15a.42.42 0 0 0-.421.421v3.607a.42.42 0 0 0 .421.42h3.606a.42.42 0 0 0 .421-.42v-3.607c-.001-.232-.189-.42-.421-.421z"/>
        <path d="M76.756 41.459H73.15a.42.42 0 0 0-.421.421v3.606a.42.42 0 0 0 .421.421h3.606a.42.42 0 0 0 .421-.421V41.88c-.001-.232-.189-.42-.421-.421z"/>
        <path d="M76.756 47.606H73.15a.42.42 0 0 0-.4.288.4.4 0 0 0-.023.133v3.606a.42.42 0 0 0 .421.421h3.606a.42.42 0 0 0 .421-.421v-3.606c-.001-.232-.187-.419-.419-.421z"/>
    </g>
    <path d="M76.756 53.753H73.15a.42.42 0 0 0-.421.421v3.606a.42.42 0 0 0 .421.421h3.606a.42.42 0 0 0 .421-.421v-3.606a.42.42 0 0 0-.421-.421z" class="C"/>
    <g class="B">
        <path d="M84.33 29.165h-3.606a.42.42 0 0 0-.421.421v3.607a.42.42 0 0 0 .421.42h3.606a.42.42 0 0 0 .421-.42v-3.607c-.001-.232-.189-.42-.421-.421z"/>
        <path d="M84.33 35.312h-3.606a.42.42 0 0 0-.421.421v3.607a.42.42 0 0 0 .421.42h3.606a.42.42 0 0 0 .421-.42v-3.607c-.001-.232-.189-.42-.421-.421z"/>
    </g>
    <use xlink:href="#svga09cd25ec0" class="C"/>
    <g class="B">
        <path d="M84.33 47.606h-3.606a.42.42 0 0 0-.421.421v3.606a.42.42 0 0 0 .421.421h3.606a.42.42 0 0 0 .421-.421v-3.606c-.001-.232-.189-.42-.421-.421z"/>
        <path d="M84.33 53.753h-3.606a.42.42 0 0 0-.421.421v3.606a.42.42 0 0 0 .421.421h3.606a.42.42 0 0 0 .421-.421v-3.606a.42.42 0 0 0-.421-.421z"/>
        <path d="M91.904 29.165h-3.606a.42.42 0 0 0-.421.421v3.607a.42.42 0 0 0 .421.42h3.606a.42.42 0 0 0 .421-.42v-3.607c-.001-.232-.189-.42-.421-.421z"/>
    </g>
    <g class="D">
        <path d="M91.904 35.312h-3.606a.42.42 0 0 0-.421.421v3.607a.42.42 0 0 0 .421.419h3.606a.42.42 0 0 0 .421-.42v-3.607c-.001-.232-.189-.419-.421-.42z"/>
        <use xlink:href="#svga09cd25ec0" x="7.574"/>
    </g>
    <path d="M91.904 47.606h-3.606a.42.42 0 0 0-.421.421v3.606a.42.42 0 0 0 .421.421h3.606a.42.42 0 0 0 .421-.421v-3.606c-.001-.232-.189-.42-.421-.421z" class="C"/>
    <path d="M91.904 53.753h-3.606a.42.42 0 0 0-.421.421v3.606a.42.42 0 0 0 .421.421h3.606a.42.42 0 0 0 .421-.421v-3.606a.42.42 0 0 0-.421-.421z" class="B"/>
    <g class="D">
        <use xlink:href="#svgb392353d7e"/>
        <use xlink:href="#svgb392353d7e" y="6.147"/>
        <path d="M99.479 41.459h-3.607a.42.42 0 0 0-.419.421v3.606a.42.42 0 0 0 .419.421h3.607a.42.42 0 0 0 .421-.421V41.88c-.001-.232-.189-.42-.421-.421z"/>
    </g>
    <path d="M99.479 47.606h-3.607a.42.42 0 0 0-.419.421v3.606a.42.42 0 0 0 .419.421h3.607a.42.42 0 0 0 .421-.421v-3.606c-.001-.232-.189-.42-.421-.421z" class="B"/>
    <path d="M99.479 53.753h-3.607a.42.42 0 0 0-.419.421v3.606a.42.42 0 0 0 .419.421h3.607a.42.42 0 0 0 .421-.421v-3.606a.42.42 0 0 0-.421-.421z" class="C"/>
    <g class="D">
        <use xlink:href="#svg9115a7240b"/>
        <use xlink:href="#svg9115a7240b" y="6.147"/>
    </g>
    <path d="M107.057 41.459h-3.607a.42.42 0 0 0-.419.421v3.606a.42.42 0 0 0 .42.421h3.606a.42.42 0 0 0 .421-.421V41.88c-.001-.232-.189-.42-.421-.421z" class="B"/>
    <use xlink:href="#svgd15f259433" class="C"/>
    <use xlink:href="#svg3524ef3478" class="D"/>
    <g class="B">
        <path d="M114.627 29.165h-3.607a.42.42 0 0 0-.42.421v3.607a.42.42 0 0 0 .419.42h3.607a.42.42 0 0 0 .421-.42v-3.607c-.001-.232-.188-.42-.42-.421z"/>
        <path d="M114.627 35.312h-3.607a.42.42 0 0 0-.42.421v3.607a.42.42 0 0 0 .419.42h3.607a.42.42 0 0 0 .421-.42v-3.607c-.001-.232-.188-.42-.42-.421z"/>
    </g>
    <path d="M114.627 41.459h-3.607a.42.42 0 0 0-.42.421v3.606a.42.42 0 0 0 .42.421h3.607a.42.42 0 0 0 .421-.421V41.88c-.001-.232-.189-.42-.421-.421z" class="C"/>
    <use xlink:href="#svgd15f259433" x="7.57" class="D"/>
    <g class="B">
        <path d="M114.627 53.753h-3.607a.42.42 0 0 0-.42.421v3.606a.42.42 0 0 0 .42.421h3.607a.42.42 0 0 0 .421-.421v-3.606a.42.42 0 0 0-.421-.421z"/>
        <path d="M122.201 29.165h-3.607a.42.42 0 0 0-.42.421v3.607a.42.42 0 0 0 .419.42h3.607a.42.42 0 0 0 .421-.42v-3.607c-.001-.232-.188-.42-.42-.421z"/>
        <path d="M122.201 35.312h-3.607a.42.42 0 0 0-.42.421v3.607a.42.42 0 0 0 .419.42h3.607a.42.42 0 0 0 .421-.42v-3.607c-.001-.232-.188-.42-.42-.421z"/>
    </g>
    <path d="M122.201 41.459h-3.607a.42.42 0 0 0-.419.421v3.606a.42.42 0 0 0 .42.421h3.607a.42.42 0 0 0 .421-.421V41.88c-.001-.233-.189-.421-.422-.421z" class="C"/>
    <g class="B">
        <path d="M122.201 47.606h-3.607a.42.42 0 0 0-.42.421v3.606a.42.42 0 0 0 .42.421h3.607a.42.42 0 0 0 .421-.421v-3.606c-.001-.232-.189-.42-.421-.421z"/>
        <path d="M122.201 53.753h-3.607a.42.42 0 0 0-.42.421v3.606a.42.42 0 0 0 .42.421h3.607a.42.42 0 0 0 .421-.421v-3.606a.42.42 0 0 0-.421-.421z"/>
    </g>
    <use xlink:href="#svg721489b7e5" class="C"/>
    <g class="B">
        <path d="M129.776 35.312h-3.607a.42.42 0 0 0-.42.421v3.607a.42.42 0 0 0 .419.42h3.607a.42.42 0 0 0 .421-.42v-3.607c-.001-.232-.188-.42-.42-.421z"/>
        <path d="M129.776 41.459h-3.607a.42.42 0 0 0-.42.421v3.606a.42.42 0 0 0 .42.421h3.607a.42.42 0 0 0 .421-.421V41.88c-.001-.232-.189-.42-.421-.421z"/>
        <path d="M129.776 47.606h-3.607a.42.42 0 0 0-.42.421v3.606a.42.42 0 0 0 .42.421h3.607a.42.42 0 0 0 .421-.421v-3.606c-.001-.232-.189-.42-.421-.421z"/>
    </g>
    <g class="C">
        <use xlink:href="#svg3524ef3478" x="22.719"/>
        <use xlink:href="#svg721489b7e5" x="7.574"/>
        <use xlink:href="#svg721489b7e5" x="7.574" y="6.147"/>
    </g>
    <path d="M137.35 41.459h-3.607a.42.42 0 0 0-.42.421v3.606a.42.42 0 0 0 .42.421h3.607a.42.42 0 0 0 .421-.421V41.88c-.001-.232-.189-.42-.421-.421z" class="B"/>
    <g class="C">
        <use xlink:href="#svgd15f259433" x="30.293"/>
        <use xlink:href="#svg3524ef3478" x="30.293"/>
    </g>
    <path d="M54.44 106.915h-.1l.086-.011z" class="F"/>
    <circle cx="45.811" cy="28.628" r="11.067" class="G"/>
    <path d="M55.502 20.514s2.895-5.533-3.473-6.036c0 0-5.429-4.925-10.962-.9-2.073.175-3.875 1.493-4.669 3.415 0 0-2.374-.9-2.9 1.509 0 0-1.737 5.03 0 9.558s2.314 5.03 2.314 5.03-2.854-9.492 4.093-9.995 14.722-4.845 15.3.689 1.45 6.9 1.45 6.9 5.505-7.906-1.153-10.17z" class="F"/>
    <path d="M74.438 55.901l-.036.188-.4 2.112-2.765 14.611-.164.86-.343 1.819-.47 2.482-1.042 5.5-.3 1.576-.112.591-.039.207-.309 1.631-.094.492-.755 5.593-.659 4.874 2.206 2.206-1.315 1.315-.863 4.945v.011H31.746q-2.138-1.385-4.215-2.856l.29-2.171s1-3.876.578-4.339-1.335-1.291-1.335-1.291l1.155-2.7.16-.374-.269-5.577-.006-.134-.088-1.836-.011-.236-.018-.355-.342-7.075-.006-.117-.1-2.145-.1-2.039-.042-.86-.416-8.606-.282-5.844-.246-5.088.99-.335 10.585-3.6 4.385-5.7 9.126.068 4.467.034 7.454 6.913 1.7.81.013.006 1.216.582 3.084 1.472 3.261 1.558 1.673.8z" class="H"/>
    <path d="M43.59 90.313c-1.354.524-2.87.422-4.142-.279s-2.167-1.929-2.445-3.354l-17.26-2.449 6-6.787 15.471 3.366c2.475-.31 4.793 1.277 5.398 3.697s-.692 4.911-3.022 5.803z" class="G"/>
    <path d="M35.895 77.973a2.19 2.19 0 0 0-1.278-.789l-7.082-1.472-.727-.151c-.855-.178-1.593-.713-2.03-1.469a3.1 3.1 0 0 1-.4-1.28 3.06 3.06 0 0 1 .144-1.212l2.454-7.394 1.592-4.8a6.77 6.77 0 0 0 .339-1.79 7.02 7.02 0 0 0-1.469-4.68c-1.871-2.405-5.095-3.302-7.939-2.209l-.123.047a6.9 6.9 0 0 0-4.1 4.6l-1.73 6.293-3.565 12.98c-.723 2.63-.262 5.445 1.262 7.708s3.96 3.747 6.669 4.065l10.2 1.2 4.72.554c1.131.134 2.175-.622 2.4-1.738a.79.79 0 0 0 .018-.089l.113-.7.961-5.893.01-.06c.104-.61-.055-1.235-.439-1.721z" class="H"/>
    <path d="M54.581 90.501c1.414.328 2.901.013 4.061-.86s1.873-2.216 1.948-3.666l16.743-4.858-6.9-5.873-14.842 5.514c-2.499.036-4.576 1.936-4.834 4.422s1.384 4.772 3.822 5.321z" class="G"/>
    <path d="M85.648 70.249l-7.963-18.326c-.651-1.504-1.814-2.73-3.283-3.458-.454-.223-.931-.397-1.422-.518l-.228-.052c-1.042-.227-2.122-.208-3.155.058-1.91.49-3.52 1.77-4.429 3.52-.005.007-.009.015-.013.023a6.98 6.98 0 0 0-.06 6.293l.1.2 5.627 11.3a3.06 3.06 0 0 1-1.7 4.242l-.4.143-7.108 2.567c-1.109.396-1.705 1.598-1.349 2.72l.018.057 1.992 6.376.031.087a1.14 1.14 0 0 0 .065.16c.437.981 1.523 1.499 2.561 1.22l3.836-1.012.782-.207 9.905-2.616c2.638-.697 4.84-2.51 6.029-4.965s1.249-5.307.162-7.809z" class="H"/>
    <path d="M7.273 85.639c2.295 2.8 4.771 5.447 7.411 7.924h73.21c1.469.002 2.658 1.192 2.66 2.661l.105 18.552c4.504-2.069 8.722-4.711 12.549-7.861q1.594-1.31 3.089-2.733.979-.928 1.911-1.9c4.659-4.854 8.432-10.486 11.148-16.642z" class="E"/>
    <path d="M108.208 102.281q-.931.974-1.911 1.9H90.712v-1.9z" class="D"/>
    <g class="E">
        <path d="M74.292 41.454a.9.9 0 0 0-.789-.47h-53.1a.9.9 0 0 0-.9.9v31.784h54.9v-31.78a.87.87 0 0 0-.111-.434z"/>
        <path d="M19.454 72.811v3.922a1.24 1.24 0 0 0 1.238 1.238h20.263v7.74h-.269c-.089 0-.161.072-.161.161v.538c0 .089.072.161.161.161h12.579c.089 0 .161-.072.161-.161v-.538c0-.089-.072-.161-.161-.161h-.269v-7.74h20.263a1.24 1.24 0 0 0 1.238-1.238v-3.922z"/>
    </g>
    <g class="B">
        <circle cx="46.311" cy="56.483" r="5.071"/>
        <path d="M59.231 28.022h-.81c0-6.123-6.06-10.135-12.173-10.138-.889-.002-1.776.084-2.648.258-.982.2-2 .431-3 .737-3.947 1.21-7.608 3.549-7.608 9.144a12.73 12.73 0 0 0 .411 3.22l-.784.2c-.291-1.118-.438-2.269-.437-3.424 0-4.889 2.007-8.246 5.473-10.249 2.041-1.114 4.282-1.815 6.594-2.062 1.06-.142 2.133-.176 3.2-.1 6.634.279 11.849 5.774 11.782 12.414z"/>
        <path d="M60.58 28.471l-.319-2.358a2.58 2.58 0 0 0-2.956-2.2l-.507.07c-.28.038-.534.185-.706.411s-.246.509-.208.789l.737 5.433c.063.453.409.816.859.9a1 1 0 0 0 .2.019 1.05 1.05 0 0 0 .142-.01l.567-.076a2.56 2.56 0 0 0 1.74-1.042l.125-.19c.301-.529.416-1.144.326-1.746z"/>
    </g>
    <path d="M56.471 24.085a1.04 1.04 0 0 0-.377.311 1.06 1.06 0 0 0-.209.789l.737 5.433c.063.453.409.816.859.9z" class="D"/>
    <g class="E">
        <path d="M60.58 28.472l-.319-2.358c-.079-.596-.366-1.144-.81-1.549l.734 5.405a1 1 0 0 0 .066.253c.304-.53.42-1.147.329-1.751z"/>
        <ellipse cx=".405" cy="1.134" rx=".405" ry="1.134" transform="rotate(352.274 235.838 -410.688)"/>
        <ellipse cx=".405" cy="1.134" rx=".405" ry="1.134" transform="rotate(352.274 214.01 -408.546)"/>
        <ellipse cx=".405" cy="1.134" rx=".405" ry="1.134" transform="rotate(352.274 223.946 -430.771)"/>
        <path d="M46.249 17.884c-.889-.002-1.776.084-2.648.258l-3 .737c-1.563-.076-2.713-.481-2.945-1.1 2.041-1.114 4.282-1.815 6.594-2.062 1.06-.142 2.133-.176 3.2-.1a.93.93 0 0 1 .441.619c.074.561-.57 1.16-1.642 1.648z"/>
    </g>
    <path d="M35.906 33.644l-1.247-5.185c-.091-.382-.402-.673-.79-.737-.054-.008-.108-.013-.162-.013-.077 0-.153.01-.227.028l-.483.117c-1.294.313-2.09 1.614-1.78 2.909l.559 2.326c.127.549.431 1.041.865 1.4a2.28 2.28 0 0 0 .22.157 2.4 2.4 0 0 0 1.842.3l.481-.117c.127-.03.247-.086.352-.164a.97.97 0 0 0 .37-1.021z" class="B"/>
    <g class="E">
        <ellipse cx=".405" cy="1.134" rx=".405" ry="1.134" transform="rotate(346.47 145.034 -121.152)"/>
        <ellipse cx=".405" cy="1.134" rx=".405" ry="1.134" transform="rotate(346.47 146.272 -114.08)"/>
    </g>
    <path d="M35.987 33.624l-1.247-5.185a1.06 1.06 0 0 0-.857-.8l1.7 7.082c.343-.251.503-.683.404-1.097z" class="D"/>
    <path d="M31.5 29.733a1.05 1.05 0 0 0-.19-.4c-.175.454-.207.951-.092 1.424l.559 2.326c.127.549.431 1.041.865 1.4z" class="E"/>
</svg>