<svg xmlns="http://www.w3.org/2000/svg"
    xmlns:xlink="http://www.w3.org/1999/xlink" viewBox="0 0 336.727 240"
    xmlns:v="https://vecta.io/nano">
    <defs>
        <linearGradient id="svga26d389419" x1=".5" x2=".5" y2="1">
            <stop offset="0" stop-color="#00acf8"/>
            <stop offset="1" stop-color="#2b50ea"/>
        </linearGradient>
        <path id="svg18cd14e215" d="M205.687 154.168h-75.015c-.698.016-1.35-.347-1.704-.949s-.354-1.348 0-1.95 1.006-.965 1.704-.949h75.015c1.046.024 1.881.878 1.881 1.924s-.835 1.901-1.881 1.925z"/>
    </defs>
    <path d="M22.318 239.999h292.074a.56.56 0 0 0 .558-.558.56.56 0 0 0-.558-.558H22.318a.56.56 0 0 0-.558.558.56.56 0 0 0 .558.558z" fill="#ccc"/>
    <g fill="#f0f0f0">
        <path d="M78.434 104.786c-17.082-16.816-24.3-34.358-20.315-49.4 5.109-19.3 27.806-32.641 62.271-36.608l.127 1.107C86.532 23.796 64.181 36.84 59.196 55.671c-3.874 14.635 3.235 31.795 20.02 48.318zm164.808 59.69a267.4 267.4 0 0 1-67.5-9.26c-28.456-7.534-54.548-18.9-75.453-32.884l.619-.926c20.805 13.912 46.781 25.231 75.119 32.733 25.609 6.78 51.41 9.922 74.6 9.092l.04 1.113q-3.666.132-7.425.132zm48.909-7.006l-.357-1.055c19.067-6.447 30.992-16.831 34.487-30.033 4.443-16.782-5.209-36.256-27.177-54.836-22.08-18.674-53.921-34.168-89.657-43.629l.285-1.077c35.893 9.5 67.888 25.077 90.091 43.856 22.315 18.873 32.094 38.75 27.535 55.971-3.599 13.58-15.769 24.231-35.207 30.803zm-175.078 7.471c-41.891-18.579-74.17-42.682-90.892-67.872l.928-.616c16.607 25.015 48.717 48.975 90.416 67.47zm147.283 32.187q-6.481 0-13.184-.289l.048-1.113c33.346 1.444 62.768-2.547 85.091-11.543l.417 1.034c-19.473 7.846-44.293 11.911-72.372 11.911zM240.051 19.78c-6.924-2.254-14.045-4.353-21.167-6.239-40.983-10.849-81.269-14.7-116.506-11.138l-.112-1.109c35.368-3.576 75.792.286 116.9 11.169a400.84 400.84 0 0 1 21.227 6.257zM52.253 106.457c-17.082-16.816-24.3-34.358-20.315-49.4 5.109-19.3 27.806-32.641 62.271-36.608l.127 1.107C60.351 25.467 38 38.511 33.015 57.342c-3.874 14.635 3.235 31.795 20.02 48.318zm164.809 59.69a267.4 267.4 0 0 1-67.5-9.26c-28.456-7.533-54.548-18.9-75.453-32.884l.619-.926c20.805 13.912 46.781 25.231 75.119 32.733 25.609 6.78 51.41 9.922 74.6 9.092l.04 1.113q-3.665.133-7.425.132zm48.909-7.006l-.357-1.055c19.067-6.447 30.992-16.831 34.487-30.033 4.443-16.782-5.209-36.256-27.177-54.836-22.08-18.674-53.921-34.168-89.657-43.629l.285-1.077c35.893 9.5 67.888 25.077 90.091 43.855 22.315 18.873 32.094 38.75 27.535 55.971-3.595 13.577-15.77 24.232-35.207 30.804zm-175.079 7.472C49.002 148.034 16.722 123.93 0 98.741l.928-.616c16.607 25.015 48.717 48.975 90.416 67.47z"/>
        <path d="M238.173 198.799q-6.481 0-13.184-.289l.048-1.113c33.346 1.444 62.768-2.547 85.091-11.543l.417 1.034c-19.472 7.846-44.29 11.911-72.372 11.911zM213.871 21.451c-6.924-2.254-14.045-4.353-21.167-6.239C151.721 4.362 111.435.512 76.198 4.074l-.112-1.109c35.368-3.576 75.792.286 116.9 11.169a400.84 400.84 0 0 1 21.227 6.257z"/>
    </g>
    <path d="M18.989 76.617c8.006-8.976 20.776-14.447 32.349-11.172C40.662 73 33.002 84.087 29.713 96.745c-1.25 4.887-2.132 10.452-6.2 13.44a12.39 12.39 0 0 1-8.989 1.88 36.79 36.79 0 0 1-8.952-2.831l-.781.068c2.249-11.813 6.192-23.709 14.198-32.685z" fill="#f2f2f2"/>
    <g fill="#fff">
        <path d="M51.303 65.695c-9.676 2.343-18.367 7.674-24.84 15.238a20.4 20.4 0 0 0-3.439 5.386 11.7 11.7 0 0 0-.691 6.118c.414 1.916.594 3.876.535 5.836-.252 2.026-1.356 3.849-3.036 5.01a18.61 18.61 0 0 1-6.89 2.717c-2.679.63-5.472 1.242-7.656 3.023-.265.216-.584-.207-.32-.423 3.8-3.1 9.08-2.7 13.284-4.95 2.035-.942 3.52-2.773 4.022-4.958.352-1.977-.151-3.983-.431-5.936-.342-2.009-.187-4.072.452-6.007.754-2.003 1.842-3.863 3.22-5.5 3.042-3.735 6.653-6.968 10.7-9.581 4.602-3.008 9.684-5.206 15.027-6.5.331-.08.391.447.063.526z"/>
        <path d="M28.404 78.376c-2.317-2.599-2.41-6.494-.219-9.2.215-.264.636.058.421.323a6.58 6.58 0 0 0 .221 8.557c.227.253-.2.572-.423.32zm-6.333 13.101a13.7 13.7 0 0 0 9.516-3.013c.265-.215.585.208.32.423-2.793 2.248-6.332 3.361-9.909 3.115-.341-.024-.266-.549.073-.525zm18.862-22.122a4.02 4.02 0 0 0 3.246 2.008c.341.019.266.544-.073.525a4.51 4.51 0 0 1-3.6-2.213c-.083-.118-.06-.28.052-.371s.283-.064.371.052z"/>
    </g>
    <path d="M67.767 102.708l-.643-.014a52.98 52.98 0 0 0-8.579.5l-.662.092c-6.835 1.034-13.418 3.328-19.416 6.765-2.385 1.37-4.663 2.919-6.813 4.635-2.969 2.369-6 5.175-9.477 6.389a9.3 9.3 0 0 1-1.1.324L4.939 110.253c-.024-.044-.051-.084-.075-.128l-.664-.416c.1-.1.215-.194.32-.29l.185-.166c.041-.037.083-.073.118-.108l.039-.033c.035-.035.072-.065.1-.1q.926-.82 1.866-1.631a80.08 80.08 0 0 1 15.545-10.68l.513-.255a51.75 51.75 0 0 1 7.832-3.159c1.476-.454 2.974-.833 4.488-1.135 3.914-.774 7.925-.928 11.886-.456 7.9.943 15.4 4.4 20.3 10.539a15.24 15.24 0 0 1 .375.473z" fill="#f2f2f2"/>
    <g fill="#fff">
        <path d="M67.588 102.887c-9.136-3.955-19.286-4.931-29.008-2.789a20.4 20.4 0 0 0-5.989 2.23 11.7 11.7 0 0 0-4.235 4.469c-.823 1.779-1.859 3.452-3.086 4.982-1.421 1.466-3.401 2.257-5.441 2.172a18.61 18.61 0 0 1-7.137-1.979c-2.518-1.11-5.117-2.3-7.932-2.2-.341.013-.341-.517 0-.53 4.9-.186 8.876 3.311 13.587 4.046 2.193.474 4.482-.093 6.2-1.537 1.471-1.366 2.278-3.271 3.23-5 .937-1.81 2.303-3.363 3.978-4.524 1.807-1.145 3.796-1.974 5.881-2.452a45.95 45.95 0 0 1 14.311-1.209c5.485.369 10.867 1.673 15.913 3.857.312.135.043.592-.267.458z"/>
        <path d="M41.67 99.225c-.285-3.47 1.986-6.635 5.364-7.477.331-.081.473.43.142.511a6.58 6.58 0 0 0-4.975 6.965c.029.34-.502.339-.531.001zm-12.943 6.648a13.7 13.7 0 0 0 9.412 3.324c.341-.012.341.518 0 .53a14.24 14.24 0 0 1-9.787-3.478c-.258-.224.118-.6.374-.375zm28.379-6.307a4.02 4.02 0 0 0 1.383 3.557c.261.221-.115.595-.374.375-1.133-.974-1.71-2.447-1.539-3.932.005-.144.121-.26.265-.265.146.001.264.119.265.265z"/>
    </g>
    <path d="M332.683 150.199c-4.523-11.145-14.712-20.589-26.713-21.395 7.516 10.704 11.003 23.722 9.845 36.75-.465 5.023-1.5 10.561 1.319 14.741a12.39 12.39 0 0 0 7.835 4.792 36.79 36.79 0 0 0 9.383.342l.712.326c1.858-11.882 2.142-24.412-2.381-35.556z" fill="#f2f2f2"/>
    <g fill="#fff">
        <path d="M305.92 129.051c8.326 5.458 14.72 13.401 18.274 22.7a20.4 20.4 0 0 1 1.429 6.229 11.7 11.7 0 0 1-1.406 5.994 24.22 24.22 0 0 0-2.468 5.318c-.444 1.993-.016 4.081 1.176 5.739a18.61 18.61 0 0 0 5.576 4.874c2.311 1.494 4.736 3.009 6.194 5.42.177.292.62 0 .443-.291-2.537-4.195-7.645-5.595-10.848-9.127-1.6-1.571-2.383-3.794-2.121-6.021.333-1.98 1.481-3.7 2.4-5.446.997-1.778 1.544-3.772 1.593-5.81-.037-2.139-.437-4.256-1.184-6.261a45.95 45.95 0 0 0-6.856-12.62 48.2 48.2 0 0 0-11.968-11.174c-.285-.186-.519.29-.236.475z"/>
        <path d="M323.226 148.691a7.11 7.11 0 0 0 3.3-8.591c-.114-.321-.619-.159-.5.163a6.58 6.58 0 0 1-3.084 7.985c-.307.16-.015.604.284.443zm1.56 14.466a13.7 13.7 0 0 1-7.95-6.036c-.178-.291-.621 0-.443.291 1.875 3.057 4.833 5.294 8.285 6.265.329.092.435-.427.108-.519zm-10.33-27.174c-1.03.877-2.433 1.178-3.732.8-.328-.1-.433.423-.108.519a4.51 4.51 0 0 0 4.131-.876c.118-.083.151-.244.076-.367-.081-.122-.245-.156-.367-.076z"/>
    </g>
    <path d="M277.975 158.377l.61.2a52.97 52.97 0 0 1 7.911 3.355l.592.309c6.09 3.272 11.52 7.646 16.013 12.9a54.24 54.24 0 0 1 4.859 6.655c2 3.23 3.912 6.891 6.778 9.2.296.245.608.471.932.677l18.941-5.076c.037-.033.076-.062.113-.1l.766-.168-.2-.381c-.038-.073-.08-.145-.119-.218a3.43 3.43 0 0 1-.075-.142c-.009-.016-.018-.032-.026-.044-.021-.045-.046-.085-.066-.126q-.6-1.084-1.21-2.163c-3.072-5.519-6.779-10.647-11.052-15.284-.129-.137-.26-.278-.4-.412a51.74 51.74 0 0 0-6.315-5.607c-1.237-.924-2.521-1.784-3.845-2.578-3.426-2.044-7.152-3.537-11.042-4.424-7.755-1.766-15.988-1.033-22.661 3.1l-.504.327z" fill="#f2f2f2"/>
    <g fill="#fff">
        <path d="M278.081 158.606c9.934-.654 19.821 1.838 28.258 7.123a20.4 20.4 0 0 1 4.891 4.113 11.7 11.7 0 0 1 2.486 5.633c.177 1.953.591 3.877 1.232 5.73.845 1.859 2.444 3.269 4.394 3.875a18.61 18.61 0 0 0 7.387.535c2.745-.2 5.593-.449 8.209.6.317.127.5-.372.179-.5-4.551-1.821-9.472.135-14.156-.756-2.223-.291-4.187-1.594-5.319-3.53-.927-1.781-1.046-3.846-1.362-5.793-.274-2.02-1.038-3.943-2.226-5.6-1.317-1.686-2.912-3.135-4.715-4.286a45.95 45.95 0 0 0-13.073-5.948c-5.29-1.496-10.797-2.077-16.283-1.716-.34.022-.24.543.1.521z"/>
        <path d="M303.724 163.868c1.435-3.172.36-6.917-2.539-8.845-.285-.188-.59.246-.3.434a6.58 6.58 0 0 1 2.345 8.232c-.142.31.358.487.5.179zm9.955 10.611a13.7 13.7 0 0 1-9.982-.033c-.317-.126-.5.373-.179.5a14.25 14.25 0 0 0 10.387.013c.318-.124.09-.6-.226-.479zm-24.609-15.477a4.02 4.02 0 0 1-2.5 2.886c-.32.12-.091.6.226.479 1.395-.537 2.433-1.73 2.771-3.186.044-.138-.026-.286-.16-.339s-.287.024-.337.16z"/>
    </g>
    <circle cx="94.541" cy="60.084" r="4.456" fill="#fd6584"/>
    <g fill="#e6e6e6">
        <circle cx="4.456" cy="4.456" r="4.456" transform="matrix(.1602 -.987089 .987089 .1602 255.602 111.475)"/>
        <circle cx="94.36" cy="9.936" r="4.456"/>
    </g>
    <path d="M227.326 62.374h-1.269V27.53c0-5.349-2.125-10.478-5.907-14.26s-8.912-5.907-14.26-5.907h-73.827c-5.349 0-10.478 2.125-14.26 5.907s-5.907 8.912-5.907 14.26h0v191.16c0 5.349 2.125 10.478 5.907 14.26s8.912 5.907 14.26 5.907h73.824c5.349.001 10.479-2.124 14.262-5.906s5.908-8.912 5.908-14.261V87.177h1.272z" fill="#3f3d56"/>
    <path d="M221.759 27.67v190.88a15.06 15.06 0 0 1-15.057 15.06H132.52a15.06 15.06 0 0 1-15.059-15.059V27.67a15.06 15.06 0 0 1 15.059-15.06h9c-.901 2.206-.644 4.716.685 6.694s3.555 3.164 5.938 3.164h42.294a7.16 7.16 0 0 0 6.623-9.858h9.636c8.317 0 15.059 6.742 15.059 15.059h0z" fill="#f2f2f2"/>
    <path d="M123.082 30.831h23.012v1.03h-23.012zm35.022 0h23.012v1.03h-23.012z" fill="#fff"/>
    <g fill="#ccc">
        <use xlink:href="#svg18cd14e215"/>
        <path d="M205.687 167.558h-75.015c-.698.016-1.35-.347-1.704-.949s-.354-1.348 0-1.95 1.006-.965 1.704-.949h75.015c1.046.024 1.881.878 1.881 1.925s-.835 1.901-1.881 1.925z"/>
        <use xlink:href="#svg18cd14e215" y="26.781"/>
    </g>
    <path d="M193.126 30.831h23.012v1.03h-23.012zm-70.044 184.896h23.012v1.03h-23.012zm35.022 0h23.012v1.03h-23.012zm35.022 0h23.012v1.03h-23.012z" fill="#fff"/>
    <circle cx="169.61" cy="92.918" r="34.882" fill="#d1d3d4"/>
    <circle cx="169.61" cy="94.465" r="31.823" fill="url(#svga26d389419)"/>
    <path d="M166.832 106.938c-.069 0-.138 0-.208-.005a4.24 4.24 0 0 1-3.141-1.633l-5.016-6.448c-1.436-1.85-1.103-4.513.744-5.953l.18-.14a4.25 4.25 0 0 1 5.955.743c.456.586 1.144.944 1.886.98a2.5 2.5 0 0 0 1.973-.792l10.184-10.75a4.25 4.25 0 0 1 6-.162l.166.156a4.25 4.25 0 0 1 .163 6l-15.8 16.68c-.8.846-1.913 1.325-3.078 1.325z" fill="#fff"/>
    <path d="M109.756 44.1h4.12v22.146h-4.12zm0 24.722h4.12v12.876h-4.12zm0 15.451h4.12v12.876h-4.12z" fill="#3f3d56"/>
    <circle cx="149.413" cy="15.773" r="2.06" fill="#fff"/>
    <path d="M169.611 121.879c-16.703-.002-30.561-12.918-31.736-29.579-.052.737-.088 1.482-.088 2.236 0 17.576 14.248 31.824 31.824 31.824s31.823-14.248 31.823-31.824a32.53 32.53 0 0 0-.087-2.24c-1.174 16.662-15.032 29.581-31.736 29.583z" fill="#231f20" opacity=".16"/>
    <path d="M214.476 120.143l25.236 1.03 3.09-17-21.631-6.7zm9.538-36.811l.244-8.03-12.231-3.066-22.021-6.424a4.6 4.6 0 1 0-2.454 5.62l21.408 8.8z" fill="#ffb8b8"/>
    <path d="M216.132 83.275l6.881-9.813.172.023a146.56 146.56 0 0 1 17.972 3.564c1.609.426 2.949 1.54 3.662 3.044a5.93 5.93 0 0 1-.825 6.45c-1.56 1.938-4.11 2.785-6.52 2.166z" fill="url(#svga26d389419)"/>
    <path d="M220.491 232.056h-7l-3.33-27h10.329zm54.495-3.031l-6.92 1.046-7.328-26.192 9.072-1.544z" fill="#ffb8b8"/>
    <path d="M240.742 116.024l-24.206-4.12-.861 1.775a82.2 82.2 0 0 0-8.055 30.531 442.25 442.25 0 0 0-.94 28.312 443.85 443.85 0 0 0 2 42.561l13.285-.083a313.78 313.78 0 0 1 1.564-41.229 313.59 313.59 0 0 1 4.065-27.3c3.035 12.355 7.317 24.369 12.78 35.858 4.643 9.818 14.192 21.167 18.835 30.985l14.272-1.713c-3.749-9.915-10.437-24.393-14.186-34.307-5.36-14.176-7.782-23.788-13.142-37.964a43.7 43.7 0 0 0 .178-8.028c-.25-4.46-1.177-9.812-3.889-13.38z" fill="#2f2e41"/>
    <path d="M244.478 108.634c1.209 2.26-1.662 6.941-3.74 7.389l-23.938-7.738 12.057-34.922 6.064 1.1 9.7 1.634 3.44 3.127a6.05 6.05 0 0 1 1.668 6.384z" fill="url(#svga26d389419)"/>
    <path d="M228.003 95.136l-6.772-4.322-8.9 8.935-16.791 15.626a4.6 4.6 0 0 0-4.743 7.168 4.6 4.6 0 0 0 8.313-2.183l18.52-13.882z" fill="#ffb8b8"/>
    <path d="M223.919 101.877l-4.906-10.935.107-.136a146.6 146.6 0 0 1 12.265-13.611c1.19-1.164 2.833-1.744 4.49-1.586 2.352.2 4.361 1.775 5.117 4.011.866 2.333.288 4.956-1.478 6.709z" fill="url(#svga26d389419)"/>
    <circle cx="239.178" cy="60.379" r="10.646" fill="#ffb8b8"/>
    <path d="M247.776 75.805l-.041-.01-15.471-3.87a3.54 3.54 0 0 1-2.41-2.078c-.429-1.035-.341-2.213.236-3.174l.511-.85a5.8 5.8 0 0 0 .237-5.541 6.11 6.11 0 0 0-3.511-3l-.051-.025-.325-.2c-.646-.305-1.133-.868-1.342-1.551-.217-.708-.124-1.474.256-2.109a12.8 12.8 0 0 1 5.847-5.155 13.2 13.2 0 0 1 9.7-.291c.427-.391 1.022-.541 1.584-.4 8.012 1.94 8.672 7.318 7.089 15.951l1.874 7.556c.268 1.08.047 2.223-.603 3.125a3.79 3.79 0 0 1-2.774 1.561zm-6.446-27.77h0zm.193-.047h0zm-19.326 191.066h-3.995l-.713-3.771-1.826 3.771h-10.594a2.38 2.38 0 0 1-1.353-4.341l8.46-5.843v-3.813l8.9.531zm53.904 0h-3.994l-.713-3.771-1.826 3.771h-10.594a2.38 2.38 0 0 1-1.353-4.341l8.46-5.843v-3.813l8.9.531z" fill="#2f2e41"/>
</svg>