<svg version="1.1" xmlns="http://www.w3.org/2000/svg" xmlns:xlink="http://www.w3.org/1999/xlink" viewBox="0 0 256 256"><g fill-rule="nonzero" stroke="none" stroke-width="1" stroke-linecap="butt" stroke-linejoin="miter" stroke-miterlimit="10" stroke-dasharray="" stroke-dashoffset="0" font-family="none" font-weight="none" font-size="none" text-anchor="none" style="mix-blend-mode: normal"><path d="M0,256v-256h256v256z" fill="none"></path><g transform="scale(10.66667,10.66667)" fill="#1e3150"><path d="M5.916,7.743h17.421c-1.728,-4.529 -6.125,-7.743 -11.28,-7.743c-1.587,0 -3.163,0.348 -4.207,0.877l-1.934,6.866z" fill="#388e3c"></path><path d="M5.105,15.595c-0.774,0 -1.435,-0.084 -1.889,-0.299c-0.724,-0.321 -1.278,-0.988 -1.278,-2.061c0,-0.906 0.263,-1.735 0.569,-2.789l2.315,-8.048c-2.929,2.189 -4.822,5.676 -4.822,9.6c0,6.639 5.399,12.002 12.057,12.002c5.401,0 9.972,-3.529 11.508,-8.405h-18.46z" fill="#388e3c"></path><path d="M23.78,9.55h-17.36l-1.26,4.25h18.66c0.12,-0.65 0.18,-1.33 0.18,-2.01c0,-0.77 -0.08,-1.51 -0.22,-2.24z" fill="#f44336"></path></g></g></svg>