<svg width="107" height="27" viewBox="0 0 107 27" fill="none" xmlns="http://www.w3.org/2000/svg">
<g id="Group 52">
<path id="Vector" d="M11.7204 9.26369C10.7164 9.26369 10.3133 8.88053 10.4655 8.01357L11.8193 0.760491C12.0436 0.733398 12.2946 0.733398 12.5456 0.733398C18.0179 0.733398 22.684 4.28253 24.3915 9.26369H11.7204ZM0 13.5056C0 8.01357 3.41496 3.33816 8.23318 1.52682L4.34286 10.5951C2.50989 14.8873 4.81822 17.8482 10.165 17.8482H24.3459C22.6156 22.7519 17.9723 26.2778 12.5494 26.2778C5.62062 26.2778 0 20.5536 0 13.5056Z" fill="white"/>
<path id="Vector_2" d="M10.4656 15.4484C6.77683 15.4484 5.11878 13.3777 6.24823 10.1111L9.36277 1.1435C9.83813 1.01578 10.3173 0.938369 10.7926 0.860962L8.78474 8.62492C8.23332 10.7962 8.93685 11.6632 11.2186 11.6632H24.9735C25.0496 12.2515 25.099 12.8901 25.099 13.5016C25.099 14.1673 25.0496 14.8059 24.9469 15.4445H10.4656V15.4484Z" fill="white"/>
<path id="Vector_3" d="M29.2402 14.6902C29.2402 9.3762 33.1039 5.3665 38.2492 5.3665C41.5121 5.3665 44.098 7.30943 45.178 10.3477L41.5653 11.3965C41.0139 9.76324 39.6563 8.84209 37.8993 8.84209C34.9141 8.84209 32.7541 11.1682 32.7541 14.3612C32.7541 16.8654 34.3361 18.5258 36.8954 18.5258C38.6257 18.5258 40.1849 17.5814 40.9606 15.9713L44.1474 17.6046C42.6415 20.3139 39.7817 22.0478 36.5417 22.0478C32.176 22.0478 29.2402 18.8818 29.2402 14.6902Z" fill="white"/>
<path id="Vector_4" d="M55.168 14.8677C55.168 13.0022 53.8864 11.725 52.004 11.725C49.8212 11.725 48.1631 13.486 48.1631 15.785C48.1631 17.6505 49.3915 18.9277 51.2739 18.9277C53.4833 18.9277 55.1642 17.1667 55.1642 14.8677M44.9003 16.1178C44.9003 11.9804 47.9882 8.58224 51.7264 8.58224C53.4833 8.58224 54.7877 9.19376 55.6396 10.4478L56.2936 8.94218H59.0279L57.6969 21.7144H54.4607L54.6356 20.2088C53.5062 21.459 52.0991 22.0743 50.3422 22.0743C47.2314 22.0743 44.8965 19.4928 44.8965 16.1217" fill="white"/>
<path id="Vector_5" d="M72.5357 17.4227L73.0871 12.1087H70.9043L71.2313 8.94272H73.4142L73.6918 6.36119L77.0307 5.3665L76.6542 8.94272H79.4911L79.1641 12.1087H76.3272L75.7758 17.4227C75.6769 18.4716 76.2283 18.7773 77.4832 18.7773C77.7608 18.7773 78.1373 18.7502 78.4872 18.727L78.1601 21.7149C77.5327 21.7924 76.9813 21.8156 76.4793 21.8156C73.2164 21.8156 72.2391 20.3603 72.5395 17.4227" fill="white"/>
<path id="Vector_6" d="M79.8905 21.7146L81.2215 8.94243H83.9558L84.3056 10.448C85.283 9.27141 86.8421 8.68698 88.2948 8.68698L87.945 12.1084H87.4164C85.6366 12.1084 84.0052 13.1573 83.777 15.3789L83.1229 21.7146H79.8867H79.8905Z" fill="white"/>
<path id="Vector_7" d="M97.8856 14.8678C97.8856 13.0526 96.6801 11.8025 94.8471 11.8025C92.7137 11.8025 91.0823 13.5132 91.0823 15.789C91.0823 17.6042 92.2878 18.8543 94.1208 18.8543C96.2542 18.8543 97.8856 17.1436 97.8856 14.8717M87.8232 16.0715C87.8232 11.907 91.0861 8.5862 95.178 8.5862C98.6424 8.5862 101.152 11.1639 101.152 14.5891C101.152 18.7537 97.8894 22.0744 93.7975 22.0744C90.3331 22.0744 87.8232 19.4968 87.8232 16.0715Z" fill="white"/>
<path id="Vector_8" d="M101.901 21.7149L103.483 6.36506L106.822 5.3665L105.138 21.7149H101.901Z" fill="white"/>
<path id="Vector_9" d="M58.9331 18.5487L62.2226 17.4263C62.6485 18.5255 63.4281 19.0867 64.5803 19.0867C65.7326 19.0867 66.3373 18.6532 66.3373 18.0378C66.3373 16.1994 60.3896 17.0431 60.3896 13.0837C60.3896 10.479 62.5991 8.59024 65.6109 8.59024C67.7443 8.59024 69.3491 9.86747 70.0032 12.1394L66.8164 13.0605C66.5654 12.0387 66.014 11.5279 65.1584 11.5279C64.3027 11.5279 63.7285 12.0117 63.7285 12.627C63.7285 14.4422 69.7522 13.3663 69.7522 17.6353C69.7522 20.2672 67.52 22.0785 64.181 22.0785C61.5457 22.0785 59.7659 20.8787 58.9369 18.5526" fill="white"/>
</g>
</svg>
