<svg width="71" height="17" viewBox="0 0 71 17" fill="none" xmlns="http://www.w3.org/2000/svg">
<g id="Layer_1" clip-path="url(#clip0_58_332)">
<g id="Group">
<path id="Vector" d="M16.6772 8.50102C16.6772 13.1936 12.9447 16.9972 8.33985 16.9972C3.73498 16.9972 0 13.1962 0 8.50102C0 3.80585 3.73245 0.00488281 8.33732 0.00488281C12.9422 0.00488281 16.6746 3.80843 16.6746 8.50102" fill="white"/>
<path id="Vector_2" d="M7.79111 5.67697C7.12352 5.67697 6.85547 5.42186 6.95662 4.84463L7.85686 0.0180385C8.00606 0 8.17295 0 8.33985 0C11.9762 0 15.079 2.36304 16.2144 5.67697H7.79111ZM0 8.49871C0 4.84463 2.2683 1.73427 5.47224 0.525693L2.88532 6.56086C1.66645 9.4161 3.20141 11.39 6.75432 11.39H16.1815C15.031 14.655 11.9433 17 8.33985 17C3.73751 17 0 13.1913 0 8.49871Z" fill="#009343"/>
<path id="Vector_3" d="M6.95614 9.79225C4.50324 9.79225 3.40323 8.41617 4.15427 6.23867L6.2228 0.2705C6.53889 0.185461 6.85752 0.133923 7.17361 0.0849609L5.83843 5.2517C5.47175 6.69736 5.93958 7.27459 7.45683 7.27459H16.5983C16.6489 7.66629 16.6818 8.09148 16.6818 8.49863C16.6818 8.94186 16.6489 9.36448 16.5806 9.78967H6.95614V9.79225Z" fill="#F00023"/>
<path id="Vector_4" d="M19.436 9.28996C19.436 5.75441 22.0053 3.08472 25.4241 3.08472C27.5938 3.08472 29.3108 4.37576 30.029 6.39865L27.6267 7.09699C27.26 6.00953 26.3598 5.39622 25.1915 5.39622C23.2064 5.39622 21.7726 6.94238 21.7726 9.06834C21.7726 10.733 22.8246 11.8385 24.5239 11.8385C25.6745 11.8385 26.7087 11.2098 27.2271 10.1378L29.3462 11.2252C28.3449 13.0265 26.4432 14.1835 24.2913 14.1835C21.3882 14.1835 19.436 12.0756 19.436 9.28738" fill="#F00023"/>
<path id="Vector_5" d="M36.6668 9.40831C36.6668 8.16623 35.8172 7.31842 34.5654 7.31842C33.1139 7.31842 32.0139 8.49092 32.0139 10.0216C32.0139 11.2637 32.8307 12.1115 34.0824 12.1115C35.5491 12.1115 36.6694 10.939 36.6694 9.40831M29.8468 10.2407C29.8468 7.48592 31.8976 5.22595 34.3834 5.22595C35.5517 5.22595 36.419 5.63311 36.9855 6.46803L37.4204 5.46561H39.2386L38.3535 13.9643H36.2015L36.3179 12.9619C35.5668 13.7942 34.6337 14.204 33.4654 14.204C31.3969 14.204 29.8442 12.4877 29.8442 10.2432" fill="#F00023"/>
<path id="Vector_6" d="M48.2133 11.1067L48.5799 7.57115H47.1284L47.3459 5.46322H48.7974L48.982 3.74699L51.1997 3.08472L50.9494 5.4658H52.8333L52.6158 7.57373H50.7294L50.3627 11.1093C50.297 11.8076 50.6636 12.0112 51.4981 12.0112C51.6827 12.0112 51.9331 11.9932 52.1657 11.9777L51.9482 13.9671C51.531 14.0186 51.1643 14.0341 50.8305 14.0341C48.6608 14.0341 48.011 13.0652 48.2107 11.1093" fill="#F00023"/>
<path id="Vector_7" d="M53.1011 13.9643L53.9861 5.46561H55.8043L56.037 6.46804C56.6869 5.68465 57.7211 5.29553 58.6896 5.29553L58.457 7.57354H58.1055C56.922 7.57354 55.8372 8.27189 55.6855 9.74847L55.253 13.9643H53.1011Z" fill="#F00023"/>
<path id="Vector_8" d="M65.0626 9.40831C65.0626 8.2023 64.261 7.36738 63.0446 7.36738C61.626 7.36738 60.5412 8.50638 60.5412 10.019C60.5412 11.225 61.3428 12.06 62.5591 12.06C63.9778 12.06 65.0626 10.921 65.0626 9.40831ZM58.374 10.2072C58.374 7.43696 60.5437 5.22595 63.2621 5.22595C65.5633 5.22595 67.2323 6.94219 67.2323 9.22019C67.2323 11.9904 65.0626 14.2014 62.3442 14.2014C60.043 14.2014 58.374 12.4852 58.374 10.2072Z" fill="#F00023"/>
</g>
<path id="Vector_9" d="M67.73 13.9645L68.7819 3.74699L70.9997 3.08472L69.882 13.9645H67.73Z" fill="#F00023"/>
<path id="Vector_10" d="M39.1706 11.8565L41.3554 11.1092C41.6387 11.841 42.1571 12.2147 42.9233 12.2147C43.6895 12.2147 44.0916 11.9261 44.0916 11.5189C44.0916 10.2949 40.1366 10.8567 40.1366 8.22045C40.1366 6.48618 41.6033 5.22864 43.606 5.22864C45.0247 5.22864 46.0918 6.07902 46.5242 7.59168L44.4051 8.20499C44.2382 7.52468 43.8715 7.18453 43.3051 7.18453C42.7387 7.18453 42.3543 7.50664 42.3543 7.91637C42.3543 9.12238 46.3573 8.40857 46.3573 11.2483C46.3573 12.9981 44.8729 14.2067 42.6527 14.2067C40.9003 14.2067 39.7168 13.4078 39.1655 11.8617" fill="#F00023"/>
</g>
<defs>
<clipPath id="clip0_58_332">
<rect width="71" height="17" fill="white"/>
</clipPath>
</defs>
</svg>
