<svg width="124" height="108" viewBox="0 0 124 108" fill="none" xmlns="http://www.w3.org/2000/svg">
<g id="Group 101">
<g id="Group 99">
<g id="Group 96">
<path id="Vector" d="M27.524 34.9789H18.5888C17.5138 34.9789 16.6406 35.861 16.6406 36.943V45.9509C16.6406 47.0347 17.5156 47.915 18.5888 47.915H27.524C28.5991 47.915 29.4723 47.0329 29.4723 45.9509V36.943C29.4723 35.8592 28.5973 34.9789 27.524 34.9789ZM25.5758 38.9089V43.9887H20.537V38.9089H25.5758Z" fill="#F00023"/>
<path id="Vector_2" d="M11.3945 42.5124C12.4696 42.5124 13.3427 41.6303 13.3427 40.5483V31.7018H22.1178C23.1929 31.7018 24.066 30.8197 24.066 29.7377C24.066 28.6558 23.1911 27.7737 22.1178 27.7737H11.3945C10.3194 27.7737 9.44629 28.6558 9.44629 29.7377V40.5483C9.44629 41.6321 10.3213 42.5124 11.3945 42.5124Z" fill="#F00023"/>
<path id="Vector_3" d="M39.9902 31.7018H48.7653V40.5483C48.7653 41.6321 49.6403 42.5124 50.7135 42.5124C51.7868 42.5124 52.6618 41.6303 52.6618 40.5483V29.7377C52.6618 28.6539 51.7868 27.7737 50.7135 27.7737H39.9902C38.9151 27.7737 38.042 28.6558 38.042 29.7377C38.042 30.8197 38.917 31.7018 39.9902 31.7018Z" fill="#F00023"/>
<path id="Vector_4" d="M50.7135 56.6002C49.6385 56.6002 48.7653 57.4822 48.7653 58.5642V67.4108H39.9902C38.9151 67.4108 38.042 68.2928 38.042 69.3748C38.042 70.4568 38.917 71.3389 39.9902 71.3389H50.7135C51.7886 71.3389 52.6618 70.4568 52.6618 69.3748V58.5642C52.6618 57.4804 51.7868 56.6002 50.7135 56.6002Z" fill="#F00023"/>
<path id="Vector_5" d="M11.3945 71.3408H22.1178C23.1929 71.3408 24.066 70.4587 24.066 69.3767C24.066 68.2947 23.1911 67.4126 22.1178 67.4126H13.3427V58.5661C13.3427 57.4823 12.4677 56.6021 11.3945 56.6021C10.3213 56.6021 9.44629 57.4841 9.44629 58.5661V69.3767C9.44629 70.4605 10.3213 71.3408 11.3945 71.3408Z" fill="#F00023"/>
<path id="Vector_6" d="M43.5499 47.9169C44.625 47.9169 45.4981 47.0348 45.4981 45.9528V36.9449C45.4981 35.8611 44.6232 34.9808 43.5499 34.9808H34.6147C33.5396 34.9808 32.6665 35.8629 32.6665 36.9449V45.9528C32.6665 47.0366 33.5415 47.9169 34.6147 47.9169H43.5499ZM36.5629 43.9869V38.9071H41.6017V43.9869H36.5629Z" fill="#F00023"/>
<path id="Vector_7" d="M27.4786 51.1959H18.5434C17.4684 51.1959 16.5952 52.0779 16.5952 53.1599V62.1678C16.5952 63.2516 17.4702 64.1319 18.5434 64.1319H27.4786C28.5537 64.1319 29.4268 63.2498 29.4268 62.1678V53.1599C29.4268 52.0761 28.5519 51.1959 27.4786 51.1959ZM25.5304 55.124V60.2038H20.4916V55.124H25.5304Z" fill="#F00023"/>
<path id="Vector_8" d="M38.3495 60.5301H41.6293V64.1336H45.5275V60.2036H41.9385V56.9265H45.513V52.9966H41.6148V56.6001H38.3641V52.9966H34.4659V56.9265H38.0403V60.2036H34.4531V64.1336H38.3495V60.5301Z" fill="#F00023"/>
</g>
<g id="Group 97">
<path id="Vector_9" d="M54.1679 5.42084H7.94018C3.56171 5.42084 0 9.01153 0 13.4256V99.7545C0 104.169 3.56171 107.759 7.94018 107.759H54.1679C58.5463 107.759 62.1081 104.169 62.1081 99.7545V13.4256C62.1081 9.01153 58.5463 5.42084 54.1679 5.42084ZM7.94018 10.5556H54.1679C55.7377 10.5556 57.0147 11.843 57.0147 13.4256V84.2731H5.09336V13.4256C5.09336 11.843 6.37034 10.5556 7.94018 10.5556ZM54.1679 102.624H7.94018C6.37034 102.624 5.09336 101.337 5.09336 99.7545V89.4079H57.0147V99.7545C57.0147 101.337 55.7377 102.624 54.1679 102.624Z" fill="#009343"/>
<path id="Vector_10" d="M31.053 100.629C33.5938 100.629 35.6534 98.5529 35.6534 95.9915C35.6534 93.4301 33.5938 91.3536 31.053 91.3536C28.5123 91.3536 26.4526 93.4301 26.4526 95.9915C26.4526 98.5529 28.5123 100.629 31.053 100.629Z" fill="#009343"/>
<path id="Vector_11" d="M27.6243 17.7353H34.484C35.8901 17.7353 37.0307 16.5854 37.0307 15.1679C37.0307 13.7503 35.8901 12.6005 34.484 12.6005H27.6243C26.2182 12.6005 25.0776 13.7503 25.0776 15.1679C25.0776 16.5854 26.2182 17.7353 27.6243 17.7353Z" fill="#009343"/>
</g>
</g>
<circle id="Ellipse 4" cx="103.317" cy="20.6893" r="20.5057" fill="#F00023"/>
<path id="2" d="M111.084 26.5097V30.1534H96.4815V27.255L103.934 20.216C104.726 19.4615 105.259 18.8174 105.536 18.2838C105.812 17.7317 105.95 17.1888 105.95 16.6552C105.95 15.8822 105.683 15.2934 105.149 14.8885C104.634 14.4653 103.87 14.2536 102.858 14.2536C102.011 14.2536 101.248 14.4192 100.567 14.7505C99.8859 15.0633 99.3155 15.5418 98.8554 16.1859L95.5981 14.088C96.3526 12.9654 97.3924 12.0913 98.7174 11.4656C100.042 10.8216 101.561 10.4995 103.272 10.4995C104.707 10.4995 105.959 10.7387 107.026 11.2172C108.112 11.6773 108.949 12.3398 109.538 13.2047C110.145 14.0512 110.449 15.0541 110.449 16.2135C110.449 17.2624 110.228 18.247 109.786 19.1671C109.345 20.0872 108.489 21.1362 107.219 22.3139L102.775 26.5097H111.084Z" fill="white"/>
</g>
</svg>
