<svg width="140" height="105" viewBox="0 0 140 105" fill="none" xmlns="http://www.w3.org/2000/svg">
<g id="Group 100">
<g id="Group 95">
<path id="Vector" d="M55.1483 51.1402L39.4717 35.336C38.4057 34.2614 36.6794 34.2614 35.6134 35.336C34.5475 36.4107 34.5475 38.151 35.6134 39.2256L51.2901 55.0298C51.8231 55.5671 52.5216 55.8349 53.2201 55.8349C53.9186 55.8349 54.6171 55.5653 55.1501 55.0298C56.2161 53.9552 56.2161 52.2148 55.1501 51.1402H55.1483Z" fill="#009343"/>
<path id="Vector_2" d="M25.614 39.4401L18.8653 31.5032L12.1166 39.4401C9.7955 42.1689 9.2989 45.7486 10.7905 49.0147C12.2803 52.2808 15.3 54.2302 18.8653 54.2302C22.4307 54.2302 25.4503 52.2808 26.9401 49.0147C28.4299 45.7486 27.9351 42.1689 25.614 39.4383V39.4401ZM22.6435 47.0231C21.9359 48.5746 20.5589 49.464 18.8653 49.464C17.1718 49.464 15.7948 48.5746 15.0871 47.0231C14.3795 45.4717 14.6051 43.8395 15.7074 42.543L18.8653 38.8294L22.0232 42.543C23.1255 43.8395 23.3511 45.4717 22.6435 47.0231Z" fill="#009343"/>
<path id="Vector_3" d="M55.7667 89.7411H50.6733V94.8759H55.7667V89.7411Z" fill="#009343"/>
<path id="Vector_4" d="M25.321 89.7411H20.2495V94.8759H25.321V89.7411Z" fill="#009343"/>
<path id="Vector_5" d="M45.6038 89.7411H40.5322V94.8759H45.6038V89.7411Z" fill="#009343"/>
<path id="Vector_6" d="M35.4626 89.7411H30.3911V94.8759H35.4626V89.7411Z" fill="#009343"/>
<path id="Vector_7" d="M15.1783 89.7411H10.085V94.8759H15.1783V89.7411Z" fill="#009343"/>
<path id="Vector_8" d="M15.1783 69.5576H10.085V74.6044H15.1783V69.5576Z" fill="#009343"/>
<path id="Vector_9" d="M15.1783 79.6493H10.085V84.6942H15.1783V79.6493Z" fill="#009343"/>
<path id="Vector_10" d="M15.1783 59.3778H10.085V64.5126H15.1783V59.3778Z" fill="#009343"/>
<path id="Vector_11" d="M25.321 59.3778H20.2495V64.5126H25.321V59.3778Z" fill="#009343"/>
<path id="Vector_12" d="M35.4626 59.3778H30.3911V64.5126H35.4626V59.3778Z" fill="#009343"/>
<path id="Vector_13" d="M45.6038 59.3778H40.5322V64.5126H45.6038V59.3778Z" fill="#009343"/>
<path id="Vector_14" d="M55.7667 59.3778H50.6733V64.5126H55.7667V59.3778Z" fill="#009343"/>
<path id="Vector_15" d="M55.7667 79.6493H50.6733V84.6961H55.7667V79.6493Z" fill="#009343"/>
<path id="Vector_16" d="M55.7667 69.5576H50.6733V74.6026H55.7667V69.5576Z" fill="#009343"/>
<path id="Vector_17" d="M62.3809 96.3503C62.3809 97.8669 61.1567 99.1011 59.6523 99.1011H8.18575C6.67958 99.1011 5.45717 97.8687 5.45717 96.3503V28.0464H39.972C40.2903 28.0464 40.5886 28.1711 40.8142 28.3985L62.0335 49.7905C62.259 50.0179 62.3827 50.3186 62.3827 50.6395V67.0654C62.3827 68.5838 63.6051 69.8162 65.1113 69.8162C66.6175 69.8162 67.8399 68.5838 67.8399 67.0654V50.6395C67.8399 48.8497 67.1487 47.1662 65.8935 45.9008L44.6742 24.5089C43.4191 23.2435 41.7492 22.5448 39.9738 22.5448H25.2649V17.4119C25.2631 13.7093 22.2871 10.7091 18.6162 10.7091H6.64683C2.97598 10.7091 0 13.7093 0 17.41V96.3503C0 100.907 3.6654 104.603 8.18575 104.603H59.6523C64.1727 104.603 67.8381 100.907 67.8381 96.3503V86.3924C67.8381 84.874 66.6157 83.6416 65.1095 83.6416C63.6033 83.6416 62.3809 84.874 62.3809 86.3924V96.3503ZM5.45717 17.41C5.45717 16.748 5.99197 16.2107 6.64683 16.2107H18.6162C19.2729 16.2107 19.8059 16.7498 19.8059 17.41V22.543H5.45717V17.41Z" fill="#009343"/>
<path id="Vector_18" d="M76.0856 69.1926L81.5901 74.7419H64.7456C63.4396 74.7419 62.3809 75.8092 62.3809 77.1259C62.3809 78.4426 63.4396 79.5099 64.7456 79.5099H81.5901L76.0856 85.0592C75.1616 85.9908 75.1616 87.5 76.0856 88.4298C77.0097 89.3614 78.5068 89.3614 79.4291 88.4298L90.6417 77.1259L79.4291 65.822C78.505 64.8904 77.0079 64.8904 76.0856 65.822C75.1616 66.7536 75.1616 68.2629 76.0856 69.1926Z" fill="#009343"/>
<g id="Group">
<path id="Vector_19" d="M128.909 73.7918H104.603C103.297 73.7918 102.238 72.7245 102.238 71.4078C102.238 70.0911 103.297 69.0238 104.603 69.0238H128.909C130.215 69.0238 131.274 70.0911 131.274 71.4078C131.274 72.7245 130.215 73.7918 128.909 73.7918Z" fill="#F00023"/>
<path id="Vector_20" d="M128.909 85.2279H104.603C103.297 85.2279 102.238 84.1606 102.238 82.8439C102.238 81.5271 103.297 80.4598 104.603 80.4598H128.909C130.215 80.4598 131.274 81.5271 131.274 82.8439C131.274 84.1606 130.215 85.2279 128.909 85.2279Z" fill="#F00023"/>
<path id="Vector_21" d="M137.05 94.8758H96.4612C95.0551 94.8758 93.9146 93.726 93.9146 92.3084V61.9452C93.9146 60.5276 95.0551 59.3778 96.4612 59.3778H137.05C138.456 59.3778 139.597 60.5276 139.597 61.9452V92.3084C139.597 93.726 138.456 94.8758 137.05 94.8758ZM99.0079 89.741H134.503V64.5126H99.0079V89.741Z" fill="#F00023"/>
</g>
</g>
<circle id="Ellipse 3" cx="119.091" cy="21.3724" r="20.5057" fill="#F00023"/>
<path id="1" d="M122.215 11.5139V30.8366H117.743V15.1024H113.879V11.5139H122.215Z" fill="white"/>
</g>
</svg>
