<svg width="181" height="109" viewBox="0 0 181 109" fill="none" xmlns="http://www.w3.org/2000/svg">
<g id="Group 102">
<g id="Group 98">
<path id="Vector" d="M73.9757 100.815C75.3346 100.815 76.4362 99.7097 76.4362 98.3461C76.4362 96.9824 75.3346 95.8769 73.9757 95.8769C72.6168 95.8769 71.5151 96.9824 71.5151 98.3461C71.5151 99.7097 72.6168 100.815 73.9757 100.815Z" fill="#F00023"/>
<path id="Vector_2" d="M76.6114 68.1526C82.8047 63.966 87.7294 58.1644 90.868 51.3623C95.317 50.082 99.0224 47.258 101.6 43.1774C104.215 39.0366 105.597 33.6995 105.597 27.7479C105.597 24.3697 102.857 21.6207 99.4908 21.6207H94.6609V19.3345C94.6609 15.9563 91.9215 13.2073 88.5551 13.2073H44.814C41.4476 13.2073 38.7082 15.9563 38.7082 19.3345V21.6207H33.8782C30.5119 21.6207 27.7725 24.3697 27.7725 27.7479C27.7725 33.7013 29.1558 39.0366 31.7713 43.1793C34.3485 47.2598 38.0557 50.0838 42.5047 51.3641C45.6433 58.1662 50.568 63.9678 56.7613 68.1544C58.0116 68.9994 58.757 70.4517 58.757 72.0411V81.6379C57.5778 82.0238 56.4988 82.6877 55.6112 83.5785C54.2643 84.9301 53.4623 86.6805 53.3129 88.5644H52.1026C48.7363 88.5644 45.9969 91.3134 45.9969 94.6915V105.666C45.9969 107.026 47.1014 108.135 48.4574 108.135H84.9098C86.2659 108.135 87.3704 107.026 87.3704 105.666V94.6915C87.3704 91.3134 84.631 88.5644 81.2646 88.5644H80.0544C79.7992 85.3727 77.654 82.6347 74.612 81.6397V72.0502C74.612 70.4571 75.3593 69.0013 76.6096 68.1562L76.6114 68.1526ZM94.6627 34.0928V26.5572H99.4926C100.145 26.5572 100.677 27.0913 100.677 27.7461C100.677 35.6584 97.978 41.8185 93.2137 44.9333C94.176 41.4125 94.6627 37.7727 94.6627 34.0928ZM32.6935 27.7461C32.6935 27.0913 33.2257 26.5572 33.8782 26.5572H38.7082V34.0928C38.7082 37.7745 39.1948 41.4125 40.1572 44.9333C35.3928 41.8203 32.6935 35.6584 32.6935 27.7461ZM81.2664 93.499C81.9189 93.499 82.4511 94.0331 82.4511 94.6879V103.193H50.9198V94.6879C50.9198 94.0331 51.452 93.499 52.1045 93.499H81.2664ZM72.1533 86.183C73.5932 86.183 74.7998 87.2036 75.0932 88.5607H58.2777C58.398 87.9992 58.6768 87.4834 59.0924 87.0682C59.6228 86.536 60.3227 86.2251 61.0663 86.1866C61.1155 86.1903 61.1665 86.1921 61.2176 86.1921C62.5736 86.1921 63.6781 85.0801 63.6781 83.7157V72.0392C63.6781 68.8056 62.1198 65.8224 59.5098 64.0574C53.7485 60.1616 49.2593 54.7112 46.5254 48.2914C44.6026 43.781 43.6293 39.0055 43.6293 34.0946V19.3326C43.6293 18.6778 44.1615 18.1438 44.814 18.1438H88.5569C89.2094 18.1438 89.7416 18.6778 89.7416 19.3326V34.0928C89.7416 39.0018 88.7683 43.7792 86.8473 48.2895C84.1152 54.7075 79.6242 60.1598 73.8647 64.0556C71.2529 65.8188 69.6946 68.8074 69.6946 72.0466V83.7138C69.6946 85.0746 70.7991 86.183 72.1551 86.183H72.1533Z" fill="#009343"/>
<path id="Vector_3" d="M75.9513 53.0689C76.7149 52.5129 77.0886 51.5874 76.93 50.6528L75.6414 43.1227L81.0929 37.7911C81.7691 37.1309 82.0078 36.1597 81.7162 35.2598C81.4246 34.3599 80.6627 33.7143 79.7295 33.5789L72.1966 32.4815L68.8266 25.6301C68.4092 24.7814 67.5635 24.2528 66.6194 24.2528C65.6753 24.2528 64.8296 24.7796 64.4122 25.6301L61.0422 32.4815L53.5093 33.5789C52.5761 33.7161 51.8143 34.3599 51.5227 35.2598C51.231 36.1597 51.4698 37.1309 52.146 37.7911L57.5993 43.1245L56.3125 50.6546C56.1539 51.5874 56.5276 52.5129 57.2912 53.0689C57.7232 53.3835 58.2263 53.5426 58.7348 53.5426C59.1266 53.5426 59.5185 53.4475 59.8812 53.2554L66.6194 49.6998L73.3595 53.2554C74.1942 53.6962 75.1876 53.6231 75.9513 53.067V53.0689ZM71.2799 40.4926C70.7003 41.0596 70.4342 41.8772 70.5727 42.6783L71.2361 46.5576L67.764 44.7268C67.405 44.5384 67.0131 44.4433 66.6194 44.4433C66.2257 44.4433 65.8321 44.5384 65.4748 44.7268L62.0045 46.5576L62.668 42.6783C62.8047 41.8772 62.5404 41.0596 61.9608 40.4926L59.154 37.7473L63.0325 37.1821C63.8345 37.065 64.5271 36.5602 64.8861 35.8304L66.6212 32.3005L68.3564 35.8304C68.7154 36.5602 69.408 37.065 70.21 37.1803L74.0885 37.7454L71.2817 40.4908L71.2799 40.4926Z" fill="#F00023"/>
<path id="Vector_4" d="M59.3946 100.815H66.6851C68.0411 100.815 69.1456 99.7068 69.1456 98.3461C69.1456 96.9853 68.0411 95.8769 66.6851 95.8769H59.3946C58.0386 95.8769 56.9341 96.9853 56.9341 98.3461C56.9341 99.7068 58.0386 100.815 59.3946 100.815Z" fill="#F00023"/>
<path id="Vector_5" d="M23.2884 62.9088H15.668V55.2617C15.668 53.8479 14.5252 52.7011 13.1163 52.7011C11.7074 52.7011 10.5646 53.8479 10.5646 55.2617V62.9088H2.94425C1.53536 62.9088 0.392578 64.0556 0.392578 65.4694C0.392578 66.8833 1.53536 68.0301 2.94425 68.0301H10.5646V75.6771C10.5646 77.091 11.7074 78.2378 13.1163 78.2378C14.5252 78.2378 15.668 77.091 15.668 75.6771V68.0301H23.2884C24.6972 68.0301 25.84 66.8833 25.84 65.4694C25.84 64.0556 24.6972 62.9088 23.2884 62.9088Z" fill="#009343"/>
<path id="Vector_6" d="M128.761 12.6696H124.227V8.11903C124.227 6.7052 123.084 5.55841 121.675 5.55841C120.266 5.55841 119.123 6.7052 119.123 8.11903V12.6696H114.589C113.18 12.6696 112.037 13.8164 112.037 15.2302C112.037 16.644 113.18 17.7908 114.589 17.7908H119.123V22.3414C119.123 23.7552 120.266 24.902 121.675 24.902C123.084 24.902 124.227 23.7552 124.227 22.3414V17.7908H128.761C130.17 17.7908 131.313 16.644 131.313 15.2302C131.313 13.8164 130.17 12.6696 128.761 12.6696Z" fill="#009343"/>
<path id="Vector_7" d="M109.335 66.503C103.154 66.503 98.1255 71.5492 98.1255 77.7514C98.1255 83.9536 103.154 88.9998 109.335 88.9998C115.515 88.9998 120.544 83.9536 120.544 77.7514C120.544 71.5492 115.515 66.503 109.335 66.503ZM109.335 83.8786C105.968 83.8786 103.229 81.1296 103.229 77.7514C103.229 74.3732 105.968 71.6242 109.335 71.6242C112.701 71.6242 115.44 74.3732 115.44 77.7514C115.44 81.1296 112.701 83.8786 109.335 83.8786Z" fill="#009343"/>
</g>
<circle id="Ellipse 5" cx="160.494" cy="20.7154" r="20.5057" fill="#F00023"/>
<path id="3" d="M162.824 18.7239C164.517 19 165.814 19.6349 166.716 20.6286C167.618 21.6039 168.069 22.8185 168.069 24.2723C168.069 25.3949 167.774 26.4346 167.185 27.3915C166.596 28.3301 165.695 29.0846 164.48 29.655C163.284 30.2255 161.812 30.5108 160.064 30.5108C158.702 30.5108 157.358 30.3359 156.033 29.9863C154.727 29.6182 153.613 29.103 152.693 28.4405L154.432 25.0176C155.168 25.5697 156.015 26.0021 156.972 26.315C157.947 26.6094 158.941 26.7566 159.953 26.7566C161.076 26.7566 161.959 26.545 162.603 26.1218C163.247 25.6801 163.569 25.0636 163.569 24.2723C163.569 22.6897 162.364 21.8984 159.953 21.8984H157.91V18.9448L161.885 14.4454H153.659V10.8569H167.185V13.7553L162.824 18.7239Z" fill="white"/>
</g>
</svg>
