<?xml version="1.0" standalone="no"?>
<!DOCTYPE svg PUBLIC "-//W3C//DTD SVG 20010904//EN"
 "http://www.w3.org/TR/2001/REC-SVG-20010904/DTD/svg10.dtd">
<svg version="1.0" xmlns="http://www.w3.org/2000/svg"
 width="700.000000pt" height="700.000000pt" viewBox="0 0 700.000000 700.000000"
 preserveAspectRatio="xMidYMid meet">
<metadata>
Created by potrace 1.14, written by Peter Selinger 2001-2017
</metadata>
<g transform="translate(0.000000,700.000000) scale(0.100000,-0.100000)"
fill="#000000" stroke="none">
<path d="M3308 6996 c-1 -2 -43 -7 -93 -10 -49 -4 -99 -9 -110 -11 -22 -5 -82
-14 -135 -21 -19 -2 -42 -7 -50 -9 -8 -2 -31 -7 -50 -10 -99 -16 -356 -91
-445 -130 -16 -7 -53 -23 -82 -35 -29 -12 -55 -30 -57 -39 -3 -9 -21 -72 -40
-141 -32 -116 -266 -948 -321 -1140 -13 -47 -49 -175 -80 -285 -31 -110 -70
-247 -86 -304 -16 -57 -29 -108 -29 -112 0 -5 1141 -9 2535 -9 1394 0 2535 4
2535 8 0 18 -75 192 -130 302 -231 460 -539 844 -940 1169 -52 42 -105 83
-117 91 -11 8 -52 37 -90 64 -182 130 -470 286 -693 374 -84 33 -336 119 -372
126 -13 3 -61 15 -108 26 -97 24 -105 26 -151 34 -19 3 -45 8 -59 11 -14 3
-45 8 -70 11 -25 3 -47 7 -50 9 -3 2 -41 6 -85 10 -44 4 -89 9 -100 12 -23 5
-521 13 -527 9z"/>
<path d="M1339 6248 c-173 -138 -354 -309 -469 -444 -36 -41 -73 -85 -84 -97
-133 -156 -304 -422 -417 -647 -182 -366 -302 -762 -344 -1145 -28 -243 -27
-635 0 -832 10 -67 14 -99 20 -148 4 -27 10 -66 15 -85 5 -19 12 -48 14 -65
54 -301 218 -728 399 -1040 222 -383 561 -764 922 -1037 423 -319 951 -552
1470 -648 88 -16 129 -22 235 -35 244 -30 717 -25 915 9 17 3 48 8 70 12 192
28 473 104 684 183 131 50 384 165 412 188 8 7 18 13 22 13 13 0 187 106 307
188 288 196 568 458 785 737 200 256 374 561 495 865 32 80 80 223 77 227 -2
1 -1245 3 -2763 4 -1517 0 -2792 5 -2832 9 -71 9 -106 14 -167 25 -74 14 -198
66 -263 109 -131 87 -222 217 -258 371 -16 70 -23 257 -11 325 3 19 9 56 12
82 5 39 25 136 50 244 3 11 19 68 35 125 17 57 33 111 35 119 2 8 42 148 88
310 47 162 142 493 212 735 70 242 151 526 182 630 30 105 56 197 58 205 9 39
157 546 161 552 10 15 -2 7 -67 -44z"/>
<path d="M1870 4200 c-4 -8 -26 -80 -49 -160 -24 -80 -46 -158 -51 -175 -5
-16 -20 -66 -34 -110 -38 -125 -97 -326 -102 -344 -2 -9 -31 -107 -64 -218
-33 -112 -60 -206 -60 -211 0 -12 5440 -9 5441 3 0 5 2 19 4 30 8 60 16 114
21 145 19 136 26 525 12 680 -13 142 -19 185 -28 235 -5 28 -12 68 -15 89 -3
22 -8 42 -11 45 -3 3 -1142 6 -2531 6 -2234 0 -2526 -2 -2533 -15z"/>
</g>
</svg>
