<svg width="32" height="33" viewBox="0 0 32 33" fill="none" xmlns="http://www.w3.org/2000/svg">
<path id="Vector" d="M16.0092 0.970955C24.847 0.979502 32.0171 8.16111 32 16.9887C31.9829 25.8292 24.7964 32.9958 15.9729 32.9709C7.14514 32.9467 0 25.7886 0 16.9702C0 8.13689 7.17933 0.962408 16.0092 0.970955ZM14.5923 14.8292C14.291 14.8292 14.0096 14.8271 13.7282 14.8292C10.1784 14.8584 7.6203 18.0122 8.32056 21.4944C8.85199 24.1383 11.3667 26.0343 14.0979 25.8498C16.8085 25.6668 19.0853 23.4588 19.195 20.7743C19.2819 18.6447 19.2278 16.5094 19.2356 14.3762C19.2356 14.2387 19.2356 14.1006 19.2356 13.9025C20.6454 14.842 22.1207 15.3655 23.787 15.4118C23.787 14.6996 23.787 14.0372 23.787 13.3748C23.787 12.6234 23.7855 12.6298 23.0404 12.4873C21.1875 12.134 19.9252 11.1219 19.4529 9.2423C19.3581 8.86552 19.2833 8.48447 19.1986 8.09986H16.3911V8.56852C16.3911 12.3605 16.3911 16.1533 16.3904 19.9453C16.3904 20.1582 16.3875 20.3719 16.3697 20.5842C16.2607 21.9075 15.1544 22.9638 13.8322 23.0122C12.3312 23.0671 11.081 21.8926 11.0404 20.389C11.0012 18.9396 12.1895 17.7095 13.6662 17.676C13.9704 17.6689 14.2746 17.6753 14.5923 17.6753V14.8292Z" fill="white"/>
</svg>
