<svg xmlns="http://www.w3.org/2000/svg" viewBox="0 0 256 256"><g stroke-miterlimit="10" font-family="none" font-weight="none" font-size="none" text-anchor="none" style="mix-blend-mode:normal"><path d="M0 256V0h256v256z" fill="none"/><path d="M128 21.333C69.088 21.333 21.333 69.088 21.333 128S69.088 234.667 128 234.667 234.667 186.912 234.667 128 186.912 21.333 128 21.333zm40.325 135.675a7.996 7.996 0 0 1 0 11.312 7.958 7.958 0 0 1-5.658 2.347 7.975 7.975 0 0 1-5.66-2.342L128 139.312 98.992 168.32a7.958 7.958 0 0 1-5.659 2.347 7.975 7.975 0 0 1-5.658-2.342 7.996 7.996 0 0 1 0-11.312L116.688 128 87.68 98.992a7.996 7.996 0 0 1 0-11.312 7.996 7.996 0 0 1 11.312 0L128 116.688l29.008-29.008a7.996 7.996 0 0 1 11.312 0 7.996 7.996 0 0 1 0 11.312L139.312 128z" fill="#1e3150"/></g></svg>