<svg xmlns="http://www.w3.org/2000/svg" viewBox="0 0 336.557 240"><defs><linearGradient id="linear-gradient" x1=".5" x2=".5" y2="1" gradientUnits="objectBoundingBox"><stop offset="0" stop-color="#009343"/><stop offset="1" stop-color="#009343"/></linearGradient></defs><g id="Group_16986" data-name="Group 16986" transform="translate(.002)"><path id="Path_10694" data-name="Path 10694" d="M461.285 483.685c-6.054 2.647-13.249 3.708-20.27 4.718-38.738 5.583-77.6 11.178-117.048 13.32q-14.056.768-28.207.892c-.629 0-1.258.008-1.886.008q-3.038.011-6.08-.011c-27.578-.215-55.07-2.609-81.334-8.275-11.178-2.41-22.24-5.459-31.584-10.32-7.391-3.844-13.663-8.938-17.089-14.811a21.065 21.065 0 0 1-2.09-4.815 19.361 19.361 0 0 1-.727-4.254 16.493 16.493 0 0 1-.03-1.555 22.35 22.35 0 0 1 .553-4.507 39.51 39.51 0 0 1 6.114-13.117c.015-.019.026-.041.041-.06q.5-.751 1.035-1.495c.181-.256.365-.512.55-.764 2.308-3.178 4.9-6.276 7.5-9.262 2.157-2.485 4.349-5.019 6.427-7.6q.621-.774 1.231-1.555a77.106 77.106 0 0 0 4.54-6.419c.158-.256.316-.512.471-.768q.678-1.124 1.284-2.259a32.337 32.337 0 0 0 3.132-8.177c.117-.516.215-1.035.29-1.555a20.835 20.835 0 0 0 .023-6.363c-.03-.2-.064-.407-.105-.606a28.594 28.594 0 0 0-3.467-8.9 48.389 48.389 0 0 0-1.043-1.754c-.105-.169-.207-.335-.316-.5q-.333-.525-.678-1.05c-2.907-4.409-6.393-8.72-9.205-13.166a47.073 47.073 0 0 1-2.522-4.454 30.792 30.792 0 0 1-.712-1.555 26.282 26.282 0 0 1-1.231-3.5 21.375 21.375 0 0 1-.557-8.377 23.692 23.692 0 0 1 1.513-5.745c.211-.523.437-1.043.685-1.555a30.74 30.74 0 0 1 6.476-8.836 38.4 38.4 0 0 1 6.833-5.222c.279-.173.565-.339.851-.5q1.214-.7 2.481-1.325.435-.226.87-.429a56.158 56.158 0 0 1 5.376-2.229c.2-.075.407-.147.614-.215.429-.151.862-.294 1.3-.433a64.01 64.01 0 0 1 2.312-.7c16.009-4.533 35.334-3.855 52.792-1.547q2.423.322 4.849.674c1.265.177 2.53.365 3.8.557 4.992.749 9.988 1.547 14.992 2.289 3.931.583 7.865 1.133 11.8 1.6a181.229 181.229 0 0 0 21.4 1.416c3.667 0 7.338-.147 11.012-.489q3.693-.345 7.315-.926a174 174 0 0 0 19.434-4.38c4-1.107 7.955-2.293 11.893-3.475q3-.9 6.016-1.8 2.937-.87 5.892-1.7c3.34-.934 6.705-1.811 10.109-2.594a131.885 131.885 0 0 1 16.592-2.8q1.491-.147 3-.248 2.18-.147 4.379-.188a83.037 83.037 0 0 1 5.467.053c.523.019 1.043.045 1.566.075q1.265.079 2.519.192c.1.008.2.019.3.026 1.739.166 3.46.388 5.15.67a55.059 55.059 0 0 1 13.381 3.885h.011q1.542.683 2.989 1.48a29.736 29.736 0 0 1 4.992 3.434 24.877 24.877 0 0 1 3.641 3.81c.181.233.354.471.516.708 3.825 5.425 4.571 11.792.67 17.142l.154-1.521c-.444 1.175-.892 2.353-1.333 3.531-.2.516-.391 1.035-.584 1.555q-1.35 3.6-2.651 7.24v.015c-.271.749-.535 1.483-.794 2.236v.015a266.4 266.4 0 0 0-2.718 8.117c-.162.516-.328 1.035-.486 1.555q-.294.954-.58 1.909-.294.977-.576 1.962c-.075.26-.147.523-.222.787-1.224 4.315-2.282 8.641-3.106 12.963-.1.52-.2 1.039-.29 1.555-.049.279-.1.561-.147.84-.053.3-.1.61-.151.915a96.475 96.475 0 0 0-1.325 15.869c0 .519.008 1.039.019 1.555a74.257 74.257 0 0 0 .64 8.177q.153 1.129.343 2.259a65.292 65.292 0 0 0 1.63 7.187c.147.52.3 1.039.467 1.555a63.918 63.918 0 0 0 4.943 11.573q1.474 2.682 3.234 5.286c.173.256.346.512.523.764q.519.751 1.069 1.495l.045.06a80.882 80.882 0 0 0 12.21 13.117q2.513 2.186 5.256 4.239c.117.087.237.177.354.267.693.512 1.4 1.032 2.1 1.555 3.7 2.748 7.368 5.647 8.825 9.07a7.92 7.92 0 0 1 .614 2.278c.554 4.933-4.207 9.56-10.261 12.211Z" transform="translate(-154.933 -262.626)" fill="#f2f2f2"/><path id="Path_10695" data-name="Path 10695" d="M473.088 355.673c-.1.753-.2 1.506-.29 2.259h-247.39c-.32-.757-.655-1.51-.994-2.259Z" transform="translate(-198.255 -291.103)" fill="#fff"/><path id="Path_10696" data-name="Path 10696" d="M479.967 431.932H238.484c.117-.749.215-1.506.29-2.259h241.175q0 1.127.018 2.259Z" transform="translate(-207.027 -337.242)" fill="#fff"/><path id="Path_10697" data-name="Path 10697" d="M477.756 505.929h-246.4a49.302 49.302 0 0 0-1.043-1.755c-.105-.169-.207-.335-.316-.5h247.292q.13.672.271 1.344c.064.301.132.606.196.911Z" transform="translate(-201.738 -383.38)" fill="#fff"/><path id="Path_10698" data-name="Path 10698" d="M472.5 579.929H224.555a56.18 56.18 0 0 0-1.333-1.6l-.572-.663h249.51q.153 1.134.34 2.263Z" transform="translate(-197.155 -429.519)" fill="#fff"/><path id="Path_10699" data-name="Path 10699" d="M453.269 653.929H172.77q.5-.751 1.035-1.495c.181-.256.365-.512.55-.764h277.322c.173.256.346.512.523.764q.52.751 1.069 1.495Z" transform="translate(-166.054 -475.659)" fill="#fff"/><path id="Path_10700" data-name="Path 10700" d="M526.155 186.188a8.032 8.032 0 0 0-1.047-.768.956.956 0 0 0-.105-.06 8 8 0 0 0-1.325-.648 8.162 8.162 0 0 0-2.933-.538h-91.112a8.293 8.293 0 0 0-8.283 8.283v178.831a8.2 8.2 0 0 0 .38 2.481c.026.087.057.173.087.256.023.068.045.132.071.2a7.2 7.2 0 0 0 .441.964c.079.147.162.29.248.433s.162.256.252.38q.062.1.135.192a.079.079 0 0 0 .023.03 7.572 7.572 0 0 0 .689.813c.1.109.207.211.312.309a8.258 8.258 0 0 0 5.644 2.229h91.112a8.287 8.287 0 0 0 8.283-8.283V192.453a8.261 8.261 0 0 0-2.873-6.265Z" transform="translate(-321.045 -184.17)" fill="#e6e6e6"/><path id="Path_10701" data-name="Path 10701" d="M662.968 435.619h-.011c-.256-.008-.512 0-.768 0h-13.283a19.659 19.659 0 0 0-2.21 0 2.781 2.781 0 0 0-1.314.437 2.464 2.464 0 0 0-1.062 2.01 2.5 2.5 0 0 0 2.5 2.447c.376.007.757 0 1.133 0h13.392c1.423 0 3.057.181 3.807-1.374a2.475 2.475 0 0 0-2.187-3.52Z" transform="translate(-460.068 -340.93)" fill="#ccc"/><circle id="Ellipse_1777" data-name="Ellipse 1777" cx="3.765" cy="3.765" r="3.765" transform="translate(191.026 107.867)" fill="#ccc"/><circle id="Ellipse_1778" data-name="Ellipse 1778" cx="1.506" cy="1.506" r="1.506" transform="translate(193.285 110.126)" fill="#f2f2f2"/><path id="Path_10702" data-name="Path 10702" d="M428.127 493.909a14.053 14.053 0 0 0-4.134 9.977 8.694 8.694 0 0 0 8.692 8.693h91.045c1.4 0 1.837.907.892 1.939a1.248 1.248 0 0 1-1.081.32c-1.675.03-3.358 0-5.037 0H438.1a14.111 14.111 0 0 0-14.111 14.114v4.9a8.283 8.283 0 0 1-2.259-3.573v-.851a14.655 14.655 0 0 0-.38-3.324v-22.147a11.524 11.524 0 0 0 .38-2.948 11.178 11.178 0 0 0-.38-2.9v-19.215a11.545 11.545 0 0 0 .38-2.948 11.177 11.177 0 0 0-.38-2.9v-19.219a11.549 11.549 0 0 0 .38-2.948v-15.7h2.259v8.795a18.471 18.471 0 0 0 18.47 18.471h81.275c1.4 0 1.841.907.892 1.939a1.254 1.254 0 0 1-1.088.32c-1.675.03-3.358 0-5.037 0H438.1a14.113 14.113 0 0 0-14.111 14.112 8.7 8.7 0 0 0 8.7 8.7h91.041c1.4 0 1.837.9.892 1.939a1.248 1.248 0 0 1-1.081.32c-1.675.03-3.358 0-5.037 0H438.1a14.052 14.052 0 0 0-9.973 4.134Z" transform="translate(-321.048 -340.678)" fill="#ccc"/><path id="Path_10703" data-name="Path 10703" d="M524.623 236.028a1.248 1.248 0 0 1-1.081.32c-1.675.03-3.358 0-5.037 0H438.1a14.111 14.111 0 0 0-14.111 14.114v4.9a8.282 8.282 0 0 1-2.259-3.573v-.851a14.655 14.655 0 0 0-.38-3.324v-22.147a11.524 11.524 0 0 0 .38-2.948 11.178 11.178 0 0 0-.38-2.9v-27.16a8.293 8.293 0 0 1 8.283-8.283h91.112a8.163 8.163 0 0 1 2.933.538 8 8 0 0 1 1.325.648 2.131 2.131 0 0 1-.377.538 1.254 1.254 0 0 1-1.088.32c-1.675.03-3.358 0-5.037 0H438.1a14.113 14.113 0 0 0-14.111 14.112 8.7 8.7 0 0 0 8.7 8.7h91.041c1.4 0 1.837.9.892 1.939a1.248 1.248 0 0 1-1.081.32c-1.675.03-3.358 0-5.037 0H438.1a14.113 14.113 0 0 0-14.111 14.108 8.7 8.7 0 0 0 8.7 8.7h91.041c1.401-.01 1.838.901.893 1.929Z" transform="translate(-321.048 -184.172)" fill="#ccc"/><circle id="Ellipse_1779" data-name="Ellipse 1779" cx="5.647" cy="5.647" r="5.647" transform="translate(213.121 73.729)" fill="#fff"/><path id="Path_10704" data-name="Path 10704" d="M243.736 576.618c-.7 5.2-4.917 9.766-9.834 11.984a24.472 24.472 0 0 1-3.257 1.194c-4.883 1.427-10.162 1.487-15.3 1.517l-15.564.1c-4.092.026-8.317.026-12.1-1.544-.056-.023-.113-.045-.166-.071-3.708-1.6-6.875-5.124-6.784-9.156a8.282 8.282 0 0 1 1.167-4.021 11.818 11.818 0 0 1 1.724-2.259 28.243 28.243 0 0 1 7.586-5.151c4.864-2.444 10.429-5.689 10.956-11.107.3-3.125-1.216-6.005-3.155-8.576-.192-.26-.392-.516-.595-.768a57.613 57.613 0 0 0-1.333-1.6l-.572-.663c-2.541-2.944-5.113-6.178-5.211-10.026-.1-4.025 4.394-8.076 7.8-6.174l5.007-.5q3.072-.305 6.137-.614c.456-.042.907-.087 1.359-.136q6.376-.633 12.744-1.273c1.89-.188 4.108-.256 5.335 1.193 1.337 1.585.644 4.085-.678 5.681s-3.155 2.722-4.4 4.375a9.506 9.506 0 0 0-1.517 7.473 13.58 13.58 0 0 0 .595 2.259 15.126 15.126 0 0 0 1.913 3.682c2.786 3.908 6.912 6.6 10.579 9.695s7.1 7.033 7.605 11.8c.015.139.026.282.034.422a11.023 11.023 0 0 1-.075 2.264Z" transform="translate(-171.021 -398.348)" fill="#e6e6e6"/><path id="Path_10705" data-name="Path 10705" d="M242.191 420.7a53.9 53.9 0 0 1-9.354-12.382 54.975 54.975 0 0 1-5.478-14.446 52.808 52.808 0 0 1-1.133-15.629 54.724 54.724 0 0 1 11.336-29.3q.6-.771 1.231-1.518c.468-.557 1.264.245.8.8a52.876 52.876 0 0 0 3.4 71.68c.518.511-.28 1.31-.8.8Z" transform="translate(-199.287 -285.844)" fill="#e6e6e6"/><path id="Path_10706" data-name="Path 10706" d="M255.381 353.35a13.69 13.69 0 0 0 1.341-.585l.066.1Z" transform="translate(-217.563 -289.29)" fill="#e6e6e6"/><path id="Path_10707" data-name="Path 10707" d="M251.437 312.116c1.579-1.978 4.6-2.865 6.781-1.585a5.494 5.494 0 0 1 2.507 4.216 9.23 9.23 0 0 1-1.059 4.913 14.269 14.269 0 0 1-6.39 6.4 21.04 21.04 0 0 1-3.169-6.721 8.642 8.642 0 0 1 1.33-7.223Z" transform="translate(-214.117 -262.583)" fill="#e6e6e6"/><path id="Path_10708" data-name="Path 10708" d="M201.142 321.735a23.114 23.114 0 0 1 3.588-19.018c.4 6.624 7.34 10.842 9.881 16.972a13.794 13.794 0 0 1-.751 11.933l-.382 5.026a23.115 23.115 0 0 1-12.336-14.913Z" transform="translate(-183.312 -258.085)" fill="#e6e6e6"/><path id="Path_10709" data-name="Path 10709" d="M169.292 403.157c3.471 5.656 11.58 6.108 16.709 10.319a13.794 13.794 0 0 1 4.956 10.881l2.03 4.614a22.777 22.777 0 0 1-23.7-25.814Z" transform="translate(-163.756 -320.71)" fill="#e6e6e6"/><path id="Path_10710" data-name="Path 10710" d="M246.121 436.009a22.777 22.777 0 0 1 .625 35.035l-1.709-4.742a13.794 13.794 0 0 1-3.909-11.3c.814-6.585 6.372-12.502 4.993-18.993Z" transform="translate(-208.619 -341.193)" fill="#e6e6e6"/><path id="Path_10711" data-name="Path 10711" d="M539.9 255.946a37.371 37.371 0 0 1-.486 6.024q-.2 1.259-.493 2.489c-.072.3-.143.6-.222.9-.248.96-.538 1.909-.862 2.835a37.29 37.29 0 0 1-17.59 20.6 32.82 32.82 0 0 1-1.619.825q-1.039.5-2.112.926-.633.254-1.276.486a37.44 37.44 0 0 1-23.719.508 28.53 28.53 0 0 1-1.126-.373q-1.152-.4-2.263-.866a30.49 30.49 0 0 1-1.468-.663 37.374 37.374 0 0 1-19.25-21.441 38.176 38.176 0 0 1-1.081-3.735q-.288-1.231-.493-2.489a37.4 37.4 0 0 1 3.708-23.215c.023-.041.045-.087.068-.128a36.88 36.88 0 0 1 2.018-3.388l.147-.215a37.374 37.374 0 0 1 14.883-12.771 36.194 36.194 0 0 1 3.655-1.499c.4-.139.8-.271 1.2-.4a37.44 37.44 0 0 1 23.719.508c.456.162.907.335 1.355.516q1.034.418 2.033.9.819.39 1.619.821a37.282 37.282 0 0 1 13.226 11.927l.147.215a36.88 36.88 0 0 1 2.018 3.388c.023.041.045.087.068.128a37.082 37.082 0 0 1 4.196 17.187Z" transform="translate(-348.482 -205.683)" fill="#fff"/><path id="Path_10712" data-name="Path 10712" d="M461.285 722.281c-6.054 2.647-13.249 3.708-20.27 4.717-38.738 5.583-77.6 11.178-117.048 13.32q-14.056.768-28.207.892c-.629 0-1.258.008-1.886.008q-3.038.011-6.08-.011c-27.578-.215-55.07-2.609-81.334-8.276-11.178-2.41-22.24-5.459-31.584-10.319-7.391-3.844-13.663-8.938-17.089-14.811a21.068 21.068 0 0 1-2.09-4.815 19.363 19.363 0 0 1-.727-4.254 16.493 16.493 0 0 1-.03-1.555 22.349 22.349 0 0 1 .553-4.506H454.4q2.513 2.185 5.256 4.239c.117.087.237.177.354.267.693.512 1.4 1.032 2.1 1.555 3.7 2.748 7.368 5.647 8.825 9.07a7.918 7.918 0 0 1 .614 2.278c.551 4.92-4.21 9.551-10.264 12.201Z" transform="translate(-154.933 -501.223)" fill="#ccc"/><path id="Path_10713" data-name="Path 10713" d="M528.757 716.848c0-.61.034-1.227 0-1.837a3.039 3.039 0 0 0-3-2.846c-.384-.008-.768 0-1.152 0H423.542a3.078 3.078 0 0 0-3.215 3.091c-.019 2.2 0 4.39 0 6.585v3.825c0 .618-.041 1.258.019 1.875a3.028 3.028 0 0 0 2.989 2.7H525.768a3.04 3.04 0 0 0 2.989-3.068c.008-.783 0-1.57 0-2.357Z" transform="translate(-320.399 -513.375)" fill="#e6e6e6"/><circle id="Ellipse_1780" data-name="Ellipse 1780" cx="3.765" cy="3.765" r="3.765" transform="translate(199.136 94.689)" fill="#ccc"/><path id="Path_10714" data-name="Path 10714" d="M942.04 239.889v33.988a2.253 2.253 0 0 0 1.977 2.264c.073 0 .146.01.219.01a2.176 2.176 0 0 0 1.471-.57 2.208 2.208 0 0 0 .715-1.621v-34.324Z" transform="translate(-645.698 -218.753)" fill="url(#linear-gradient)"/><path id="Path_10715" data-name="Path 10715" d="M828.04 239.889v33.988a2.253 2.253 0 0 0 1.977 2.264c.073 0 .146.01.219.01a2.176 2.176 0 0 0 1.47-.57 2.208 2.208 0 0 0 .715-1.621v-34.324Z" transform="translate(-574.619 -218.753)" fill="url(#linear-gradient)"/><path id="Path_10716" data-name="Path 10716" d="M857.212 314.305a3.256 3.256 0 0 0-2.737-3.2l-2.545-.418-4.382-.719-5.169-.847L838 308.4l-30.221-4.962a3.3 3.3 0 0 0-1.344.06l-6.973 1.807-2.816.727-1.148.3-.41.105-4.153 1.073-1.314.339-.4.1-3.976 1.028-7.616 1.973a3.24 3.24 0 0 0-1.367.738v.007a3.225 3.225 0 0 0-1.077 2.413v38.278a3.024 3.024 0 0 0 .105.806 3.287 3.287 0 0 0 2.481 2.383l43.263 9.205 4.3.915a2.748 2.748 0 0 0 .553.064.73.73 0 0 0 .128.008 3.344 3.344 0 0 0 .433-.03 2.773 2.773 0 0 0 .546-.12l15.391-4.861 12.869-4.062a3.247 3.247 0 0 0 2.281-3.136Z" transform="translate(-541.654 -258.509)" fill="#fff"/><path id="Path_10717" data-name="Path 10717" d="M859.086 319.052a.4.4 0 0 0-.343-.4l-.32-.053-1.762-.29-.173-.03h-.007l-4.2-.685-5.169-.851-4.382-.719-30.684-5.041h-.068a.28.28 0 0 0-.1.015l-2.538.655-2.677.693-2.474.64-4.382 1.133-.4.105-5.06 1.31-4.379 1.129-2.888.749-1.879.486h-.007l-2.127.546a.4.4 0 0 0-.3.4v38.278a.406.406 0 0 0 .32.4l1.928.41 41.542 8.84 3.893.828.2.041a.386.386 0 0 0 .207-.008l.4-.128 11.374-3.592 4.371-1.378 12.118-3.835a.4.4 0 0 0 .286-.388Z" transform="translate(-546.387 -263.237)" fill="#3f3d56"/><path id="Path_10718" data-name="Path 10718" d="M857.212 314.305a3.256 3.256 0 0 0-2.737-3.2l-2.545-.418-4.382-.719-5.169-.847L838 308.4l-30.221-4.962a3.3 3.3 0 0 0-1.344.06l-6.973 1.807-2.816.727-1.148.3-.41.105-4.153 1.073-1.314.339-.4.1-3.976 1.028-7.616 1.973a3.24 3.24 0 0 0-1.367.738v.007a3.225 3.225 0 0 0-1.077 2.413v38.278a3.024 3.024 0 0 0 .105.806 3.287 3.287 0 0 0 2.481 2.383l43.263 9.205 4.3.915a2.748 2.748 0 0 0 .553.064.73.73 0 0 0 .128.008 3.344 3.344 0 0 0 .433-.03 2.773 2.773 0 0 0 .546-.12l15.391-4.861 12.869-4.062a3.247 3.247 0 0 0 2.281-3.136ZM855 355.919l-12.722 4.017-4.288 1.355-11.253 3.554c-.064.019-.128.034-.188.049a2.708 2.708 0 0 1-.817.049c-.075-.011-.154-.026-.233-.041l-4.255-.9-43.319-9.216a2.464 2.464 0 0 1-1.8-1.585 2.514 2.514 0 0 1-.136-.806v-38.282a2.45 2.45 0 0 1 .629-1.641 2.434 2.434 0 0 1 .971-.651 1.589 1.589 0 0 1 .226-.075l7.413-1.913 4.379-1.133.459-.124h.011l5-1.288 2.255-.583 1.83-.474.3-.075 7.172-1.856a2.476 2.476 0 0 1 .614-.079 2.858 2.858 0 0 1 .4.03L838 309.23l4.382.719 5.169.847 4.382.723 2.413.4a2.409 2.409 0 0 1 1.246.6h.008a2.467 2.467 0 0 1 .8 1.792l.316 39.257a2.435 2.435 0 0 1-1.716 2.351Z" transform="translate(-541.654 -258.509)" fill="#3f3d56"/><path id="Path_10719" data-name="Path 10719" d="M857.7 326.833a.354.354 0 0 1-.1.046l-13.737 3.714-4.276 1.155-12.163 3.287a.475.475 0 0 1-.106.014.655.655 0 0 1-.073-.006l-49.05-8.943-.163-.03a.409.409 0 1 1 .147-.8l.987.179 48.13 8.776 10.483-2.833 5.864-1.585 13.525-3.657.215-.057a.41.41 0 0 1 .476.223.318.318 0 0 1 .024.065.409.409 0 0 1-.183.452Z" transform="translate(-543.229 -272.141)" fill="#3f3d56"/><path id="Path_10720" data-name="Path 10720" d="M909.212 394.358a.408.408 0 0 1-.408-.4L908.4 349.5a.408.408 0 0 1 .4-.411.408.408 0 0 1 .408.4l.408 44.449a.408.408 0 0 1-.4.411Z" transform="translate(-624.722 -287)" fill="#3f3d56"/><path id="Path_10721" data-name="Path 10721" d="m865.524 365.318-4.276 1.155-1.8-43.856-45.99-9.151a1.07 1.07 0 0 1-.133-.033 1.621 1.621 0 0 1-.875-.617l6.28-1.626 1.846.367 43.639 8.681a1.622 1.622 0 0 1 1.1.794c.13.237.206 44.004.209 44.286Z" transform="translate(-564.896 -263.368)" fill="url(#linear-gradient)"/><path id="Path_10722" data-name="Path 10722" d="M859.465 202.456c-.749-.2-1.506-.392-2.255-.58v-3.419a4.812 4.812 0 0 0-1.3-3.313 4.535 4.535 0 0 0-1.288-.975 3.034 3.034 0 0 0-.335-.154 4.325 4.325 0 0 0-1.4-.324 4.573 4.573 0 0 0-1.525.151 4.775 4.775 0 0 0-.862.328 4.723 4.723 0 0 0-1.084.764 5.996 5.996 0 0 0-.211.211 4.63 4.63 0 0 0-1.25 3.163v1.48a179.39 179.39 0 0 0-70.6 0v-1.329a4.811 4.811 0 0 0-1.3-3.313 4.508 4.508 0 0 0-1.284-.975 3.458 3.458 0 0 0-.339-.154 4.329 4.329 0 0 0-1.4-.324 4.584 4.584 0 0 0-1.525.151 4.744 4.744 0 0 0-.859.328 4.662 4.662 0 0 0-1.088.764 3.762 3.762 0 0 0-.207.211 4.632 4.632 0 0 0-1.254 3.163v3.569c-.749.188-1.5.38-2.251.58l-.181.049v.184a10.435 10.435 0 0 0 .99 4.45l.5.919a10.461 10.461 0 0 0 8.979 5.1h3.166V247.4a2.25 2.25 0 0 0 1.977 2.263 2.177 2.177 0 0 0 1.687-.557 2.2 2.2 0 0 0 .716-1.623v-34.071a7.121 7.121 0 0 1 4.5 3.682 12.89 12.89 0 0 0 .968 1.619 12.189 12.189 0 0 0 9.988 5.154h27.032a12.47 12.47 0 0 0 5.9-1.476 11.618 11.618 0 0 0 4.383-4.059 11.008 11.008 0 0 0 .614-1.114 7.063 7.063 0 0 1 4.556-3.806V247.4a2.25 2.25 0 0 0 1.976 2.263 2.119 2.119 0 0 0 .218.011 2.186 2.186 0 0 0 1.472-.569 2.215 2.215 0 0 0 .715-1.623v-34.326h3.163a10.457 10.457 0 0 0 8.98-5.1 10.306 10.306 0 0 0 .5-.918 10.438 10.438 0 0 0 .994-4.45v-.184Z" transform="translate(-535.737 -190.1)" fill="url(#linear-gradient)"/><circle id="Ellipse_1781" data-name="Ellipse 1781" cx="11.685" cy="11.685" r="11.685" transform="translate(264.266 15.024)" fill="#3f3d56"/><circle id="Ellipse_1782" data-name="Ellipse 1782" cx="6.232" cy="6.232" r="6.232" transform="translate(269.719 20.477)" fill="url(#linear-gradient)"/><path id="Path_10723" data-name="Path 10723" d="M1016.369 188.51h-15.339v2.436h18a2.683 2.683 0 0 0-2.661-2.436Z" transform="translate(-682.479 -186.876)" fill="url(#linear-gradient)"/><path id="Path_10724" data-name="Path 10724" d="M948.119 188.51a2.69 2.69 0 0 0-2.669 2.436h18v-2.436Z" transform="translate(-647.825 -186.876)" fill="url(#linear-gradient)"/><path id="Path_10725" data-name="Path 10725" d="M993.725 189.328a4.183 4.183 0 0 0-1.408-2.436 4.131 4.131 0 0 0-6.736 2.436 3.88 3.88 0 0 0-.072.73v.245h8.279v-.245a4.665 4.665 0 0 0-.064-.73Z" transform="translate(-672.802 -185.258)" fill="#3f3d56"/><path id="Path_10726" data-name="Path 10726" d="M804.288 188.51H788.95v2.436h18a2.683 2.683 0 0 0-2.662-2.436Z" transform="translate(-550.246 -186.876)" fill="url(#linear-gradient)"/><path id="Path_10727" data-name="Path 10727" d="M736.039 188.51a2.69 2.69 0 0 0-2.669 2.436h18v-2.436Z" transform="translate(-515.592 -186.876)" fill="url(#linear-gradient)"/><path id="Path_10728" data-name="Path 10728" d="M781.651 189.325a4.135 4.135 0 0 0-8.144 0 3.879 3.879 0 0 0-.068.73v.245h8.275v-.245a4.664 4.664 0 0 0-.063-.73Z" transform="translate(-540.576 -185.255)" fill="#3f3d56"/><path id="Path_10729" data-name="Path 10729" d="M768.315 224.592a363.475 363.475 0 0 1 91.979 0q-.225.472-.5.92a361.655 361.655 0 0 0-45.191-2.868h-.01c-.862 0-1.728 0-2.59.01h-.015a360.933 360.933 0 0 0-43.18 2.858Z" transform="translate(-537.38 -207.552)" fill="#3f3d56"/><path id="Path_10730" data-name="Path 10730" d="M819.445 417.289a.738.738 0 0 1-.161-.018l-15.093-3.408a.73.73 0 1 1 .321-1.425l15.093 3.408a.731.731 0 0 1-.16 1.443Z" transform="translate(-559.394 -326.485)" fill="url(#linear-gradient)"/><path id="Path_10731" data-name="Path 10731" d="M809.1 392.719a.727.727 0 0 1-.161-.018l-15.093-3.408a.73.73 0 0 1 .322-1.425l15.093 3.408a.73.73 0 0 1-.16 1.443Z" transform="translate(-552.943 -311.166)" fill="url(#linear-gradient)"/></g></svg>