<svg xmlns="http://www.w3.org/2000/svg" xmlns:xlink="http://www.w3.org/1999/xlink" viewBox="0 0 137.771 120"><style>.B{fill:url(#svge7f5346a30)}.C{fill:#e6e6e6}.D{fill:#fff}.E{fill:#3f3d56}.F{fill:#2f2e41}.G{fill:#ffb6b6}.H{fill:#cacaca}</style><defs><path id="svg9ac7c5666d" d="M69.186 29.165h-3.61a.42.42 0 0 0-.421.421v3.607a.42.42 0 0 0 .421.42h3.61a.42.42 0 0 0 .421-.42v-3.607a.423.423 0 0 0-.421-.421z"/><path id="svga09cd25ec0" d="M84.33 41.459h-3.606a.42.42 0 0 0-.421.421v3.606a.42.42 0 0 0 .421.421h3.606a.42.42 0 0 0 .421-.421V41.88a.423.423 0 0 0-.421-.421z"/><path id="svgb392353d7e" d="M99.479 29.165h-3.607a.42.42 0 0 0-.419.421v3.607a.42.42 0 0 0 .419.42h3.607a.42.42 0 0 0 .421-.42v-3.607a.423.423 0 0 0-.421-.421z"/><path id="svg9115a7240b" d="M107.057 29.165h-3.607a.42.42 0 0 0-.42.421v3.607a.42.42 0 0 0 .419.42h3.608a.42.42 0 0 0 .421-.42v-3.607a.423.423 0 0 0-.421-.421z"/><path id="svgd15f259433" d="M107.057 47.606h-3.607a.42.42 0 0 0-.42.421v3.606a.42.42 0 0 0 .42.421h3.607a.42.42 0 0 0 .421-.421v-3.606a.423.423 0 0 0-.421-.421z"/><path id="svg3524ef3478" d="M107.057 53.753h-3.607a.42.42 0 0 0-.42.421v3.606a.42.42 0 0 0 .42.421h3.607a.42.42 0 0 0 .421-.421v-3.606a.42.42 0 0 0-.421-.421z"/><path id="svg721489b7e5" d="M129.776 29.165h-3.607a.42.42 0 0 0-.42.421v3.607a.42.42 0 0 0 .419.42h3.607a.42.42 0 0 0 .421-.42v-3.607a.422.422 0 0 0-.42-.421z"/><linearGradient id="svge7f5346a30" x1=".5" x2=".5" y2="1"><stop offset="0" stop-color="#009343"/><stop offset="1" stop-color="#069b00"/></linearGradient></defs><path d="M124.219 62.45a57.376 57.376 0 0 1-16.012 39.831q-.931.974-1.911 1.9-1.494 1.421-3.089 2.733a57.33 57.33 0 0 1-35.244 13.07q-.644.015-1.293.015c-10.274 0-23.2-5.488-34.925-13.085q-1.455-.943-2.885-1.929-.668-.457-1.33-.927a118.4 118.4 0 0 1-12.848-10.5 83.327 83.327 0 0 1-7.413-7.919c-9.011-11.115-11-21.13 1.848-23.189q2.281-.364 4.429-.779 3.11-.6 5.953-1.291 3.829-.931 7.2-2.018 1.132-.364 2.213-.743c10.649-3.74 17.776-8.617 22.627-13.909q1.234-1.344 2.276-2.72a38.24 38.24 0 0 0 2.888-4.393 41.29 41.29 0 0 0 2.982-6.649l.044-.126c3.86-11.135 2.686-21.462 6.944-24.919 18.2-14.777 40.866 6.267 51.5 31.084q.8 1.876 1.513 3.774.318.848.614 1.7.777 2.218 1.411 4.448.243.85.463 1.7l.447 1.829a58.01 58.01 0 0 1 1.598 13.012z" fill="#f2f2f2"/><path d="M67.963 119.986q-.644.015-1.293.015c-10.274 0-23.2-5.488-34.925-13.085q-1.455-.943-2.885-1.929l.836-5.086 25.3-3.359 12.7 9.711z" class="F"/><use xlink:href="#svg9ac7c5666d" class="D"/><g class="C"><use xlink:href="#svg9ac7c5666d" y="6.147"/><path d="M69.186 41.459h-3.61a.42.42 0 0 0-.421.421v3.606a.42.42 0 0 0 .421.421h3.61a.42.42 0 0 0 .421-.421V41.88a.423.423 0 0 0-.421-.421zm.411 6.493a.424.424 0 0 0-.415-.347h-3.606a.42.42 0 0 0-.421.421v3.606a.42.42 0 0 0 .421.421h3.61a.42.42 0 0 0 .421-.421v-3.606a.366.366 0 0 0-.01-.074zm-.251 5.833a.44.44 0 0 0-.164-.032h-3.606a.42.42 0 0 0-.421.421v3.606a.42.42 0 0 0 .421.421h3.61a.42.42 0 0 0 .421-.421v-3.606a.424.424 0 0 0-.261-.389zm7.41-24.62H73.15a.42.42 0 0 0-.421.421v3.607a.42.42 0 0 0 .421.42h3.606a.42.42 0 0 0 .421-.42v-3.607a.423.423 0 0 0-.421-.421z"/></g><g class="B"><path d="M76.756 35.312H73.15a.42.42 0 0 0-.421.421v3.607a.42.42 0 0 0 .421.42h3.606a.42.42 0 0 0 .421-.42v-3.607a.423.423 0 0 0-.421-.421zM76.756 41.459H73.15a.42.42 0 0 0-.421.421v3.606a.42.42 0 0 0 .421.421h3.606a.42.42 0 0 0 .421-.421V41.88a.423.423 0 0 0-.421-.421zM76.756 47.606H73.15a.42.42 0 0 0-.4.288.4.4 0 0 0-.023.133v3.606a.42.42 0 0 0 .421.421h3.606a.42.42 0 0 0 .421-.421v-3.606a.422.422 0 0 0-.419-.421z"/></g><path d="M76.756 53.753H73.15a.42.42 0 0 0-.421.421v3.606a.42.42 0 0 0 .421.421h3.606a.42.42 0 0 0 .421-.421v-3.606a.42.42 0 0 0-.421-.421z" class="C"/><g class="B"><path d="M84.33 29.165h-3.606a.42.42 0 0 0-.421.421v3.607a.42.42 0 0 0 .421.42h3.606a.42.42 0 0 0 .421-.42v-3.607a.423.423 0 0 0-.421-.421zM84.33 35.312h-3.606a.42.42 0 0 0-.421.421v3.607a.42.42 0 0 0 .421.42h3.606a.42.42 0 0 0 .421-.42v-3.607a.423.423 0 0 0-.421-.421z"/></g><use xlink:href="#svga09cd25ec0" class="C"/><g class="B"><path d="M84.33 47.606h-3.606a.42.42 0 0 0-.421.421v3.606a.42.42 0 0 0 .421.421h3.606a.42.42 0 0 0 .421-.421v-3.606a.423.423 0 0 0-.421-.421zM84.33 53.753h-3.606a.42.42 0 0 0-.421.421v3.606a.42.42 0 0 0 .421.421h3.606a.42.42 0 0 0 .421-.421v-3.606a.42.42 0 0 0-.421-.421zM91.904 29.165h-3.606a.42.42 0 0 0-.421.421v3.607a.42.42 0 0 0 .421.42h3.606a.42.42 0 0 0 .421-.42v-3.607a.423.423 0 0 0-.421-.421z"/></g><g class="D"><path d="M91.904 35.312h-3.606a.42.42 0 0 0-.421.421v3.607a.42.42 0 0 0 .421.419h3.606a.42.42 0 0 0 .421-.42v-3.607a.422.422 0 0 0-.421-.42z"/><use xlink:href="#svga09cd25ec0" x="7.574"/></g><path d="M91.904 47.606h-3.606a.42.42 0 0 0-.421.421v3.606a.42.42 0 0 0 .421.421h3.606a.42.42 0 0 0 .421-.421v-3.606a.423.423 0 0 0-.421-.421z" class="C"/><path d="M91.904 53.753h-3.606a.42.42 0 0 0-.421.421v3.606a.42.42 0 0 0 .421.421h3.606a.42.42 0 0 0 .421-.421v-3.606a.42.42 0 0 0-.421-.421z" class="B"/><g class="D"><use xlink:href="#svgb392353d7e"/><use xlink:href="#svgb392353d7e" y="6.147"/><path d="M99.479 41.459h-3.607a.42.42 0 0 0-.419.421v3.606a.42.42 0 0 0 .419.421h3.607a.42.42 0 0 0 .421-.421V41.88a.423.423 0 0 0-.421-.421z"/></g><path d="M99.479 47.606h-3.607a.42.42 0 0 0-.419.421v3.606a.42.42 0 0 0 .419.421h3.607a.42.42 0 0 0 .421-.421v-3.606a.423.423 0 0 0-.421-.421z" class="B"/><path d="M99.479 53.753h-3.607a.42.42 0 0 0-.419.421v3.606a.42.42 0 0 0 .419.421h3.607a.42.42 0 0 0 .421-.421v-3.606a.42.42 0 0 0-.421-.421z" class="C"/><g class="D"><use xlink:href="#svg9115a7240b"/><use xlink:href="#svg9115a7240b" y="6.147"/></g><path d="M107.057 41.459h-3.607a.42.42 0 0 0-.419.421v3.606a.42.42 0 0 0 .42.421h3.606a.42.42 0 0 0 .421-.421V41.88a.423.423 0 0 0-.421-.421z" class="B"/><use xlink:href="#svgd15f259433" class="C"/><use xlink:href="#svg3524ef3478" class="D"/><g class="B"><path d="M114.627 29.165h-3.607a.42.42 0 0 0-.42.421v3.607a.42.42 0 0 0 .419.42h3.607a.42.42 0 0 0 .421-.42v-3.607a.422.422 0 0 0-.42-.421zM114.627 35.312h-3.607a.42.42 0 0 0-.42.421v3.607a.42.42 0 0 0 .419.42h3.607a.42.42 0 0 0 .421-.42v-3.607a.422.422 0 0 0-.42-.421z"/></g><path d="M114.627 41.459h-3.607a.42.42 0 0 0-.42.421v3.606a.42.42 0 0 0 .42.421h3.607a.42.42 0 0 0 .421-.421V41.88a.423.423 0 0 0-.421-.421z" class="C"/><use xlink:href="#svgd15f259433" x="7.57" class="D"/><g class="B"><path d="M114.627 53.753h-3.607a.42.42 0 0 0-.42.421v3.606a.42.42 0 0 0 .42.421h3.607a.42.42 0 0 0 .421-.421v-3.606a.42.42 0 0 0-.421-.421zM122.201 29.165h-3.607a.42.42 0 0 0-.42.421v3.607a.42.42 0 0 0 .419.42h3.607a.42.42 0 0 0 .421-.42v-3.607a.422.422 0 0 0-.42-.421zM122.201 35.312h-3.607a.42.42 0 0 0-.42.421v3.607a.42.42 0 0 0 .419.42h3.607a.42.42 0 0 0 .421-.42v-3.607a.422.422 0 0 0-.42-.421z"/></g><path d="M122.201 41.459h-3.607a.42.42 0 0 0-.419.421v3.606a.42.42 0 0 0 .42.421h3.607a.42.42 0 0 0 .421-.421V41.88a.422.422 0 0 0-.422-.421z" class="C"/><g class="B"><path d="M122.201 47.606h-3.607a.42.42 0 0 0-.42.421v3.606a.42.42 0 0 0 .42.421h3.607a.42.42 0 0 0 .421-.421v-3.606a.423.423 0 0 0-.421-.421zM122.201 53.753h-3.607a.42.42 0 0 0-.42.421v3.606a.42.42 0 0 0 .42.421h3.607a.42.42 0 0 0 .421-.421v-3.606a.42.42 0 0 0-.421-.421z"/></g><use xlink:href="#svg721489b7e5" class="C"/><g class="B"><path d="M129.776 35.312h-3.607a.42.42 0 0 0-.42.421v3.607a.42.42 0 0 0 .419.42h3.607a.42.42 0 0 0 .421-.42v-3.607a.422.422 0 0 0-.42-.421zM129.776 41.459h-3.607a.42.42 0 0 0-.42.421v3.606a.42.42 0 0 0 .42.421h3.607a.42.42 0 0 0 .421-.421V41.88a.423.423 0 0 0-.421-.421zM129.776 47.606h-3.607a.42.42 0 0 0-.42.421v3.606a.42.42 0 0 0 .42.421h3.607a.42.42 0 0 0 .421-.421v-3.606a.423.423 0 0 0-.421-.421z"/></g><g class="C"><use xlink:href="#svg3524ef3478" x="22.719"/><use xlink:href="#svg721489b7e5" x="7.574"/><use xlink:href="#svg721489b7e5" x="7.574" y="6.147"/></g><path d="M137.35 41.459h-3.607a.42.42 0 0 0-.42.421v3.606a.42.42 0 0 0 .42.421h3.607a.42.42 0 0 0 .421-.421V41.88a.423.423 0 0 0-.421-.421z" class="B"/><g class="C"><use xlink:href="#svgd15f259433" x="30.293"/><use xlink:href="#svg3524ef3478" x="30.293"/></g><path d="M54.44 106.915h-.1l.086-.011z" class="F"/><circle cx="45.811" cy="28.628" r="11.067" class="G"/><path d="M55.502 20.514s2.895-5.533-3.473-6.036c0 0-5.429-4.925-10.962-.9a5.558 5.558 0 0 0-4.669 3.415s-2.374-.9-2.9 1.509c0 0-1.737 5.03 0 9.558s2.314 5.03 2.314 5.03-2.854-9.492 4.093-9.995 14.722-4.845 15.3.689 1.45 6.9 1.45 6.9 5.505-7.906-1.153-10.17z" class="F"/><path d="m74.438 55.901-.036.188-.4 2.112-2.765 14.611-.164.86-.343 1.819-.47 2.482-1.042 5.5-.3 1.576-.112.591-.039.207-.309 1.631-.094.492-.755 5.593-.659 4.874 2.206 2.206-1.315 1.315-.863 4.945v.011H31.746q-2.138-1.385-4.215-2.856l.29-2.171s1-3.876.578-4.339-1.335-1.291-1.335-1.291l1.155-2.7.16-.374-.269-5.577-.006-.134-.088-1.836-.011-.236-.018-.355-.342-7.075-.006-.117-.1-2.145-.1-2.039-.042-.86-.416-8.606-.282-5.844-.246-5.088.99-.335 10.585-3.6 4.385-5.7 9.126.068 4.467.034 7.454 6.913 1.7.81.013.006 1.216.582 3.084 1.472 3.261 1.558 1.673.8z" class="H"/><path d="M43.59 90.313a4.91 4.91 0 0 1-6.587-3.633l-17.26-2.449 6-6.787 15.471 3.366a4.932 4.932 0 0 1 2.376 9.5z" class="G"/><path d="M35.895 77.973a2.19 2.19 0 0 0-1.278-.789l-7.082-1.472-.727-.151a3.068 3.068 0 0 1-2.03-1.469 3.1 3.1 0 0 1-.4-1.28 3.06 3.06 0 0 1 .144-1.212l2.454-7.394 1.592-4.8a6.77 6.77 0 0 0 .339-1.79 7.02 7.02 0 0 0-1.469-4.68 6.915 6.915 0 0 0-7.939-2.209l-.123.047a6.9 6.9 0 0 0-4.1 4.6l-1.73 6.293-3.565 12.98a9.359 9.359 0 0 0 7.931 11.773l10.2 1.2 4.72.554a2.185 2.185 0 0 0 2.4-1.738.79.79 0 0 0 .018-.089l.113-.7.961-5.893.01-.06a2.183 2.183 0 0 0-.439-1.721z" class="H"/><path d="M54.581 90.501a4.91 4.91 0 0 0 6.009-4.526l16.743-4.858-6.9-5.873-14.842 5.514a4.932 4.932 0 0 0-1.012 9.743z" class="G"/><path d="m85.648 70.249-7.963-18.326a6.933 6.933 0 0 0-4.705-3.976l-.228-.052a6.824 6.824 0 0 0-3.155.058 6.932 6.932 0 0 0-4.429 3.52l-.013.023a6.98 6.98 0 0 0-.06 6.293l.1.2 5.627 11.3a3.06 3.06 0 0 1-1.7 4.242l-.4.143-7.108 2.567a2.186 2.186 0 0 0-1.349 2.72l.018.057 1.992 6.376.031.087a1.14 1.14 0 0 0 .065.16 2.183 2.183 0 0 0 2.561 1.22l3.836-1.012.782-.207 9.905-2.616a9.36 9.36 0 0 0 6.191-12.774z" class="H"/><path d="M7.273 85.639a83.113 83.113 0 0 0 7.411 7.924h73.21a2.664 2.664 0 0 1 2.66 2.661l.105 18.552a57.543 57.543 0 0 0 12.549-7.861q1.594-1.31 3.089-2.733.979-.928 1.911-1.9a57.621 57.621 0 0 0 11.148-16.642z" class="E"/><path d="M108.208 102.281q-.931.974-1.911 1.9H90.712v-1.9z" class="D"/><g class="E"><path d="M74.292 41.454a.9.9 0 0 0-.789-.47h-53.1a.9.9 0 0 0-.9.9v31.784h54.9v-31.78a.87.87 0 0 0-.111-.434z"/><path d="M19.454 72.811v3.922a1.24 1.24 0 0 0 1.238 1.238h20.263v7.74h-.269a.16.16 0 0 0-.161.161v.538a.16.16 0 0 0 .161.161h12.579a.16.16 0 0 0 .161-.161v-.538a.16.16 0 0 0-.161-.161h-.269v-7.74h20.263a1.24 1.24 0 0 0 1.238-1.238v-3.922z"/></g><g class="B"><circle cx="46.311" cy="56.483" r="5.071"/><path d="M59.231 28.022h-.81c0-6.123-6.06-10.135-12.173-10.138a13.377 13.377 0 0 0-2.648.258c-.982.2-2 .431-3 .737-3.947 1.21-7.608 3.549-7.608 9.144a12.73 12.73 0 0 0 .411 3.22l-.784.2a13.549 13.549 0 0 1-.437-3.424c0-4.889 2.007-8.246 5.473-10.249a17.686 17.686 0 0 1 6.594-2.062 15.706 15.706 0 0 1 3.2-.1c6.634.279 11.849 5.774 11.782 12.414z"/><path d="m60.58 28.471-.319-2.358a2.58 2.58 0 0 0-2.956-2.2l-.507.07a1.067 1.067 0 0 0-.914 1.2l.737 5.433c.063.453.409.816.859.9a1 1 0 0 0 .2.019 1.05 1.05 0 0 0 .142-.01l.567-.076a2.56 2.56 0 0 0 1.74-1.042l.125-.19a2.718 2.718 0 0 0 .326-1.746z"/></g><path d="M56.471 24.085a1.04 1.04 0 0 0-.377.311 1.06 1.06 0 0 0-.209.789l.737 5.433c.063.453.409.816.859.9z" class="D"/><g class="E"><path d="m60.58 28.472-.319-2.358a2.55 2.55 0 0 0-.81-1.549l.734 5.405a1 1 0 0 0 .066.253c.304-.53.42-1.147.329-1.751z"/><ellipse cx=".405" cy="1.134" rx=".405" ry="1.134" transform="rotate(352.274 235.838 -410.688)"/><ellipse cx=".405" cy="1.134" rx=".405" ry="1.134" transform="rotate(352.274 214.01 -408.546)"/><ellipse cx=".405" cy="1.134" rx=".405" ry="1.134" transform="rotate(352.274 223.946 -430.771)"/><path d="M46.249 17.884a13.377 13.377 0 0 0-2.648.258l-3 .737c-1.563-.076-2.713-.481-2.945-1.1a17.686 17.686 0 0 1 6.594-2.062 15.706 15.706 0 0 1 3.2-.1.93.93 0 0 1 .441.619c.074.561-.57 1.16-1.642 1.648z"/></g><path d="m35.906 33.644-1.247-5.185a.976.976 0 0 0-1.179-.722l-.483.117a2.414 2.414 0 0 0-1.78 2.909l.559 2.326c.127.549.431 1.041.865 1.4a2.28 2.28 0 0 0 .22.157 2.4 2.4 0 0 0 1.842.3l.481-.117a.962.962 0 0 0 .352-.164.97.97 0 0 0 .37-1.021z" class="B"/><g class="E"><ellipse cx=".405" cy="1.134" rx=".405" ry="1.134" transform="rotate(346.47 145.034 -121.152)"/><ellipse cx=".405" cy="1.134" rx=".405" ry="1.134" transform="rotate(346.47 146.272 -114.08)"/></g><path d="m35.987 33.624-1.247-5.185a1.06 1.06 0 0 0-.857-.8l1.7 7.082c.343-.251.503-.683.404-1.097z" class="D"/><path d="M31.5 29.733a1.05 1.05 0 0 0-.19-.4 2.39 2.39 0 0 0-.092 1.424l.559 2.326c.127.549.431 1.041.865 1.4z" class="E"/></svg>