<svg width="71" height="17" viewBox="0 0 71 17" fill="none" xmlns="http://www.w3.org/2000/svg"><g id="Layer_1" clip-path="url(#clip0_58_332)"><g id="Group"><path id="Vector" d="M16.677 8.501c0 4.693-3.732 8.496-8.337 8.496-4.605 0-8.34-3.8-8.34-8.496C0 3.806 3.732.005 8.337.005c4.605 0 8.338 3.803 8.338 8.496" fill="#fff"/><path id="Vector_2" d="M7.791 5.677c-.667 0-.936-.255-.834-.832l.9-4.827C8.007 0 8.173 0 8.34 0c3.636 0 6.739 2.363 7.874 5.677H7.791ZM0 8.499A8.497 8.497 0 0 1 5.472.526L2.885 6.56c-1.219 2.855.316 4.829 3.87 4.829h9.427C15.03 14.655 11.942 17 8.34 17 3.738 17 0 13.191 0 8.499Z" fill="#009343"/><path id="Vector_3" d="M6.956 9.792c-2.453 0-3.553-1.376-2.802-3.553L6.223.27a8.84 8.84 0 0 1 .95-.186L5.839 5.252c-.366 1.445.102 2.023 1.619 2.023h9.141c.05.391.084.816.084 1.224 0 .443-.033.865-.101 1.29H6.956v.003Z" fill="#F00023"/><path id="Vector_4" d="M19.436 9.29c0-3.536 2.57-6.205 5.988-6.205 2.17 0 3.887 1.29 4.605 3.314l-2.402.698c-.367-1.087-1.267-1.7-2.435-1.7-1.986 0-3.42 1.545-3.42 3.671 0 1.665 1.053 2.77 2.752 2.77 1.15 0 2.185-.628 2.703-1.7l2.12 1.087a5.754 5.754 0 0 1-5.056 2.959c-2.903 0-4.855-2.108-4.855-4.897" fill="#F00023"/><path id="Vector_5" d="M36.667 9.408c0-1.242-.85-2.09-2.102-2.09-1.451 0-2.551 1.173-2.551 2.704 0 1.242.817 2.09 2.068 2.09 1.467 0 2.587-1.173 2.587-2.704m-6.822.833c0-2.755 2.05-5.015 4.536-5.015 1.169 0 2.036.407 2.602 1.242l.435-1.002h1.819l-.886 8.498h-2.151l.116-1.002c-.751.832-1.684 1.242-2.853 1.242-2.068 0-3.62-1.716-3.62-3.96" fill="#F00023"/><path id="Vector_6" d="m48.213 11.107.367-3.536h-1.452l.218-2.108h1.451l.185-1.716 2.218-.662-.25 2.38h1.883l-.217 2.109h-1.887l-.366 3.535c-.066.699.3.902 1.135.902.185 0 .435-.018.668-.033l-.218 1.99a8.982 8.982 0 0 1-1.117.066c-2.17 0-2.82-.969-2.62-2.925" fill="#F00023"/><path id="Vector_7" d="m53.101 13.964.885-8.498h1.818l.233 1.002c.65-.783 1.684-1.172 2.653-1.172l-.233 2.278h-.352c-1.183 0-2.268.698-2.42 2.174l-.432 4.216h-2.152Z" fill="#F00023"/><path id="Vector_8" d="M65.063 9.408c0-1.206-.802-2.04-2.018-2.04-1.419 0-2.504 1.138-2.504 2.651 0 1.206.802 2.041 2.018 2.041 1.419 0 2.504-1.139 2.504-2.652Zm-6.689.8c0-2.771 2.17-4.982 4.888-4.982 2.301 0 3.97 1.716 3.97 3.994 0 2.77-2.17 4.981-4.888 4.981-2.301 0-3.97-1.716-3.97-3.994Z" fill="#F00023"/></g><path id="Vector_9" d="m67.73 13.964 1.052-10.217L71 3.085l-1.118 10.88H67.73Z" fill="#F00023"/><path id="Vector_10" d="m39.17 11.857 2.185-.748c.284.732.802 1.106 1.568 1.106.767 0 1.169-.289 1.169-.696 0-1.224-3.955-.662-3.955-3.299 0-1.734 1.466-2.991 3.469-2.991 1.419 0 2.486.85 2.918 2.363l-2.119.613c-.167-.68-.534-1.02-1.1-1.02-.566 0-.95.322-.95.731 0 1.206 4.002.493 4.002 3.332 0 1.75-1.484 2.959-3.704 2.959-1.753 0-2.936-.8-3.487-2.345" fill="#F00023"/></g><defs><clipPath id="clip0_58_332"><path fill="#fff" d="M0 0h71v17H0z"/></clipPath></defs></svg>