<svg xmlns="http://www.w3.org/2000/svg" viewBox="0 0 256 256"><g stroke-miterlimit="10" font-family="none" font-weight="none" font-size="none" text-anchor="none" style="mix-blend-mode:normal"><path d="M0 256V0h256v256z" fill="none"/><g fill="#1e3150"><path d="M63.104 82.592h185.824C230.496 34.282 183.595 0 128.608 0 111.68 0 94.869 3.712 83.733 9.355L63.104 82.592z" fill="#388e3c"/><path d="M54.453 166.347c-8.256 0-15.306-.896-20.149-3.19-7.723-3.424-13.632-10.538-13.632-21.984 0-9.664 2.805-18.506 6.07-29.749l24.693-85.845C20.192 48.928 0 86.123 0 127.979 0 198.795 57.59 256 128.608 256c57.61 0 106.368-37.643 122.752-89.653H54.453z" fill="#388e3c"/><path d="M253.653 101.867H68.48L55.04 147.2h199.04c1.28-6.933 1.92-14.187 1.92-21.44 0-8.213-.853-16.107-2.347-23.893z" fill="#f44336"/></g></g></svg>