<svg width="107" height="27" viewBox="0 0 107 27" fill="none" xmlns="http://www.w3.org/2000/svg"><g id="Group 52" fill="#fff"><path id="Vector" d="M11.72 9.264c-1.004 0-1.407-.383-1.255-1.25L11.82.76c.225-.027.476-.027.727-.027 5.472 0 10.138 3.55 11.846 8.53H11.72ZM0 13.506C0 8.014 3.415 3.338 8.233 1.526l-3.89 9.07c-1.833 4.291.475 7.252 5.822 7.252h14.18c-1.73 4.904-6.373 8.43-11.796 8.43C5.621 26.278 0 20.554 0 13.506Z"/><path id="Vector_2" d="M10.466 15.448c-3.69 0-5.347-2.07-4.218-5.337l3.115-8.968c.475-.127.954-.205 1.43-.282L8.785 8.625c-.552 2.171.152 3.038 2.434 3.038h13.755c.076.588.125 1.227.125 1.839 0 .665-.05 1.304-.152 1.942H10.466v.004Z"/><path id="Vector_3" d="M29.24 14.69c0-5.314 3.864-9.323 9.01-9.323 3.262 0 5.848 1.942 6.928 4.98l-3.613 1.05c-.551-1.634-1.909-2.555-3.666-2.555-2.985 0-5.145 2.326-5.145 5.52 0 2.503 1.582 4.164 4.141 4.164 1.73 0 3.29-.945 4.066-2.555l3.186 1.634c-1.505 2.709-4.365 4.443-7.605 4.443-4.366 0-7.302-3.166-7.302-7.358Z"/><path id="Vector_4" d="M55.168 14.868c0-1.866-1.282-3.143-3.164-3.143-2.183 0-3.84 1.761-3.84 4.06 0 1.866 1.227 3.143 3.11 3.143 2.21 0 3.89-1.761 3.89-4.06M44.9 16.118c0-4.138 3.088-7.536 6.826-7.536 1.757 0 3.062.612 3.914 1.866l.654-1.506h2.734l-1.331 12.772H54.46l.175-1.505c-1.13 1.25-2.537 1.865-4.294 1.865-3.11 0-5.445-2.581-5.445-5.952"/><path id="Vector_5" d="m72.536 17.423.551-5.314h-2.183l.327-3.166h2.183l.278-2.582 3.339-.994-.377 3.576h2.837l-.327 3.166h-2.837l-.551 5.314c-.1 1.049.452 1.354 1.707 1.354.278 0 .654-.027 1.004-.05l-.327 2.988c-.627.077-1.179.1-1.68.1-3.264 0-4.24-1.455-3.94-4.392"/><path id="Vector_6" d="m79.89 21.715 1.332-12.773h2.734l.35 1.506c.977-1.177 2.536-1.761 3.989-1.761l-.35 3.421h-.529c-1.78 0-3.41 1.05-3.639 3.27l-.654 6.337h-3.236.004Z"/><path id="Vector_7" d="M97.886 14.868c0-1.815-1.206-3.066-3.039-3.066-2.133 0-3.765 1.711-3.765 3.987 0 1.815 1.206 3.065 3.039 3.065 2.133 0 3.765-1.71 3.765-3.982m-10.063 1.2c0-4.165 3.263-7.486 7.355-7.486 3.464 0 5.974 2.578 5.974 6.003 0 4.165-3.263 7.485-7.355 7.485-3.464 0-5.974-2.577-5.974-6.003Z"/><path id="Vector_8" d="m101.901 21.715 1.582-15.35 3.339-.998-1.684 16.348h-3.237Z"/><path id="Vector_9" d="m58.933 18.549 3.29-1.123c.425 1.1 1.205 1.66 2.357 1.66 1.153 0 1.757-.433 1.757-1.048 0-1.839-5.947-.995-5.947-4.954 0-2.605 2.21-4.494 5.22-4.494 2.134 0 3.74 1.277 4.393 3.55l-3.187.92c-.25-1.021-.802-1.532-1.658-1.532-.855 0-1.43.484-1.43 1.099 0 1.815 6.024.74 6.024 5.008 0 2.632-2.232 4.443-5.571 4.443-2.635 0-4.415-1.2-5.244-3.525"/></g></svg>