<svg width="181" height="109" viewBox="0 0 181 109" fill="none" xmlns="http://www.w3.org/2000/svg"><g id="Group 102"><g id="Group 98"><path id="Vector" d="M73.976 100.815a2.465 2.465 0 0 0 2.46-2.469 2.465 2.465 0 0 0-2.46-2.47 2.465 2.465 0 0 0-2.46 2.47 2.465 2.465 0 0 0 2.46 2.469Z" fill="#F00023"/><path id="Vector_2" d="M76.611 68.153a40.97 40.97 0 0 0 14.257-16.79c4.449-1.281 8.154-4.105 10.732-8.186 2.615-4.14 3.997-9.477 3.997-15.43 0-3.377-2.74-6.126-6.106-6.126h-4.83v-2.287c0-3.378-2.74-6.127-6.106-6.127H44.814c-3.366 0-6.106 2.75-6.106 6.127v2.287h-4.83c-3.366 0-6.105 2.749-6.105 6.127 0 5.953 1.383 11.289 3.998 15.431 2.578 4.08 6.285 6.905 10.734 8.185a40.97 40.97 0 0 0 14.256 16.79c1.25.845 1.996 2.298 1.996 3.887v9.597a7.923 7.923 0 0 0-3.146 1.94 7.913 7.913 0 0 0-2.298 4.986h-1.21c-3.367 0-6.106 2.75-6.106 6.128v10.974a2.469 2.469 0 0 0 2.46 2.469H84.91a2.469 2.469 0 0 0 2.46-2.469V94.692c0-3.379-2.739-6.128-6.105-6.128h-1.21a7.952 7.952 0 0 0-5.443-6.924v-9.59c0-1.593.747-3.049 1.998-3.894l.001-.003Zm18.052-34.06v-7.536h4.83c.652 0 1.184.534 1.184 1.19 0 7.911-2.699 14.072-7.463 17.186a41.081 41.081 0 0 0 1.449-10.84Zm-61.97-6.347a1.19 1.19 0 0 1 1.185-1.189h4.83v7.536c0 3.681.487 7.32 1.45 10.84-4.765-3.113-7.465-9.275-7.465-17.187ZM81.267 93.5a1.19 1.19 0 0 1 1.185 1.189v8.505H50.92v-8.505a1.19 1.19 0 0 1 1.184-1.189h29.162Zm-9.113-7.316c1.44 0 2.647 1.02 2.94 2.378H58.278c.12-.562.399-1.078.814-1.493a2.998 2.998 0 0 1 1.974-.881 2.472 2.472 0 0 0 2.612-2.47V72.038c0-3.233-1.558-6.217-4.168-7.982a36.019 36.019 0 0 1-12.985-15.766 35.998 35.998 0 0 1-2.896-14.196V19.333c0-.655.532-1.19 1.185-1.19h43.743c.652 0 1.185.535 1.185 1.19v14.76c0 4.909-.974 9.686-2.895 14.196a36.025 36.025 0 0 1-12.982 15.767c-2.612 1.763-4.17 4.751-4.17 7.99v11.668c0 1.36 1.104 2.469 2.46 2.469h-.002Z" fill="#009343"/><path id="Vector_3" d="M75.951 53.069a2.46 2.46 0 0 0 .979-2.416l-1.289-7.53 5.452-5.332c.676-.66.915-1.631.623-2.531a2.449 2.449 0 0 0-1.986-1.681l-7.533-1.098-3.37-6.85a2.446 2.446 0 0 0-2.208-1.378c-.944 0-1.79.527-2.207 1.377l-3.37 6.851-7.533 1.098a2.452 2.452 0 0 0-1.986 1.68c-.292.9-.053 1.872.623 2.532l5.453 5.334-1.286 7.53a2.458 2.458 0 0 0 .978 2.414c.432.314.935.474 1.444.474.392 0 .784-.096 1.146-.288L66.62 49.7l6.74 3.555a2.44 2.44 0 0 0 2.592-.188v.002ZM71.28 40.493a2.47 2.47 0 0 0-.707 2.185l.663 3.88-3.472-1.831a2.46 2.46 0 0 0-2.29 0l-3.47 1.83.664-3.879a2.476 2.476 0 0 0-.707-2.185l-2.807-2.746 3.878-.565a2.462 2.462 0 0 0 1.854-1.352l1.735-3.53 1.735 3.53a2.456 2.456 0 0 0 1.854 1.35l3.879.565-2.807 2.746-.002.002Z" fill="#F00023"/><path id="Vector_4" d="M59.395 100.815h7.29a2.468 2.468 0 0 0 2.46-2.469c0-1.36-1.104-2.47-2.46-2.47h-7.29a2.469 2.469 0 0 0-2.46 2.47 2.468 2.468 0 0 0 2.46 2.469Z" fill="#F00023"/><path id="Vector_5" d="M23.288 62.909h-7.62v-7.647a2.557 2.557 0 0 0-2.552-2.56 2.557 2.557 0 0 0-2.551 2.56v7.647h-7.62a2.557 2.557 0 0 0-2.552 2.56 2.557 2.557 0 0 0 2.551 2.561h7.62v7.647a2.557 2.557 0 0 0 2.552 2.56 2.557 2.557 0 0 0 2.552-2.56V68.03h7.62a2.557 2.557 0 0 0 2.552-2.56 2.557 2.557 0 0 0-2.552-2.561Z" fill="#009343"/><path id="Vector_6" d="M128.761 12.67h-4.534V8.119a2.557 2.557 0 0 0-2.552-2.56 2.557 2.557 0 0 0-2.552 2.56v4.55h-4.534a2.557 2.557 0 0 0-2.552 2.561 2.557 2.557 0 0 0 2.552 2.56h4.534v4.551a2.557 2.557 0 0 0 2.552 2.561 2.557 2.557 0 0 0 2.552-2.56V17.79h4.534a2.557 2.557 0 0 0 2.552-2.56 2.557 2.557 0 0 0-2.552-2.561Z" fill="#009343"/><path id="Vector_7" d="M109.335 66.503c-6.181 0-11.21 5.046-11.21 11.248 0 6.203 5.029 11.249 11.21 11.249 6.18 0 11.209-5.046 11.209-11.249 0-6.202-5.029-11.248-11.209-11.248Zm0 17.376c-3.367 0-6.106-2.75-6.106-6.128s2.739-6.127 6.106-6.127c3.366 0 6.105 2.75 6.105 6.127 0 3.379-2.739 6.128-6.105 6.128Z" fill="#009343"/></g><circle id="Ellipse 5" cx="160.494" cy="20.715" r="20.506" fill="#F00023"/><path id="3" d="M162.824 18.724c1.693.276 2.99.91 3.892 1.905.902.975 1.353 2.19 1.353 3.643a5.84 5.84 0 0 1-.884 3.12c-.589.938-1.49 1.693-2.705 2.263-1.196.57-2.668.856-4.416.856-1.362 0-2.706-.175-4.031-.525-1.306-.368-2.42-.883-3.34-1.546l1.739-3.422a8.702 8.702 0 0 0 2.54 1.297 10.26 10.26 0 0 0 2.981.442c1.123 0 2.006-.212 2.65-.635.644-.442.966-1.058.966-1.85 0-1.582-1.205-2.374-3.616-2.374h-2.043v-2.953l3.975-4.5h-8.226v-3.588h13.526v2.898l-4.361 4.969Z" fill="#fff"/></g></svg>