<svg width="124" height="108" viewBox="0 0 124 108" fill="none" xmlns="http://www.w3.org/2000/svg"><g id="Group 101"><g id="Group 99"><g id="Group 96" fill="#F00023"><path id="Vector" d="M27.524 34.979h-8.935a1.959 1.959 0 0 0-1.948 1.964v9.008c0 1.084.875 1.964 1.948 1.964h8.935a1.959 1.959 0 0 0 1.948-1.964v-9.008a1.959 1.959 0 0 0-1.948-1.964Zm-1.948 3.93v5.08h-5.039v-5.08h5.039Z"/><path id="Vector_2" d="M11.395 42.512a1.959 1.959 0 0 0 1.948-1.964v-8.846h8.775a1.959 1.959 0 0 0 1.948-1.964 1.96 1.96 0 0 0-1.948-1.964H11.395a1.958 1.958 0 0 0-1.949 1.964v10.81c0 1.084.875 1.964 1.949 1.964Z"/><path id="Vector_3" d="M39.99 31.702h8.775v8.846c0 1.084.875 1.964 1.949 1.964a1.96 1.96 0 0 0 1.948-1.964v-10.81a1.959 1.959 0 0 0-1.948-1.964H39.99a1.958 1.958 0 0 0-1.948 1.964 1.96 1.96 0 0 0 1.948 1.964Z"/><path id="Vector_4" d="M50.714 56.6a1.958 1.958 0 0 0-1.949 1.964v8.847H39.99a1.958 1.958 0 0 0-1.948 1.964 1.96 1.96 0 0 0 1.948 1.964h10.724a1.959 1.959 0 0 0 1.948-1.964v-10.81a1.959 1.959 0 0 0-1.948-1.965Z"/><path id="Vector_5" d="M11.395 71.34h10.723a1.959 1.959 0 0 0 1.948-1.963 1.96 1.96 0 0 0-1.948-1.964h-8.775v-8.847a1.958 1.958 0 0 0-1.948-1.964 1.96 1.96 0 0 0-1.949 1.964v10.81c0 1.084.875 1.965 1.949 1.965Z"/><path id="Vector_6" d="M43.55 47.917a1.959 1.959 0 0 0 1.948-1.964v-9.008a1.959 1.959 0 0 0-1.948-1.964h-8.935a1.959 1.959 0 0 0-1.949 1.964v9.008c0 1.084.876 1.964 1.949 1.964h8.935Zm-6.987-3.93v-5.08h5.039v5.08h-5.04Z"/><path id="Vector_7" d="M27.479 51.196h-8.936a1.958 1.958 0 0 0-1.948 1.964v9.008c0 1.084.875 1.964 1.948 1.964h8.936a1.959 1.959 0 0 0 1.948-1.964V53.16a1.958 1.958 0 0 0-1.948-1.964Zm-1.949 3.928v5.08h-5.038v-5.08h5.038Z"/><path id="Vector_8" d="M38.35 60.53h3.28v3.604h3.898v-3.93h-3.59v-3.278h3.575v-3.93h-3.898V56.6h-3.25v-3.603h-3.9v3.93h3.575v3.277h-3.587v3.93h3.896V60.53Z"/></g><g id="Group 97" fill="#009343"><path id="Vector_9" d="M54.168 5.42H7.94C3.562 5.42 0 9.013 0 13.427v86.328c0 4.415 3.562 8.005 7.94 8.005h46.228c4.378 0 7.94-3.59 7.94-8.005V13.426c0-4.414-3.562-8.005-7.94-8.005ZM7.94 10.557h46.228c1.57 0 2.847 1.287 2.847 2.87v70.847H5.093V13.426c0-1.583 1.277-2.87 2.847-2.87Zm46.228 92.068H7.94c-1.57 0-2.847-1.287-2.847-2.87V89.408h51.922v10.346c0 1.583-1.277 2.87-2.847 2.87Z"/><path id="Vector_10" d="M31.053 100.629c2.54 0 4.6-2.076 4.6-4.638 0-2.56-2.06-4.637-4.6-4.637-2.54 0-4.6 2.076-4.6 4.638 0 2.56 2.06 4.637 4.6 4.637Z"/><path id="Vector_11" d="M27.624 17.735h6.86a2.558 2.558 0 0 0 2.547-2.567 2.558 2.558 0 0 0-2.547-2.567h-6.86a2.558 2.558 0 0 0-2.546 2.567 2.558 2.558 0 0 0 2.546 2.567Z"/></g></g><circle id="Ellipse 4" cx="103.317" cy="20.689" r="20.506" fill="#F00023"/><path id="2" d="M111.084 26.51v3.643H96.481v-2.898l7.453-7.039c.792-.755 1.325-1.399 1.602-1.932.276-.552.414-1.095.414-1.629 0-.773-.267-1.362-.801-1.767-.515-.423-1.279-.634-2.291-.634-.847 0-1.61.165-2.291.497a4.275 4.275 0 0 0-1.712 1.435l-3.257-2.098c.755-1.123 1.794-1.997 3.12-2.622 1.324-.644 2.843-.966 4.554-.966 1.435 0 2.687.239 3.754.717 1.086.46 1.923 1.123 2.512 1.988.607.846.911 1.85.911 3.008a6.733 6.733 0 0 1-.663 2.954c-.441.92-1.297 1.97-2.567 3.147l-4.444 4.196h8.309Z" fill="#fff"/></g></svg>