<svg width="140" height="105" viewBox="0 0 140 105" fill="none" xmlns="http://www.w3.org/2000/svg"><g id="Group 100"><g id="Group 95"><path id="Vector" d="M55.148 51.14 39.472 35.336a2.712 2.712 0 0 0-3.859 0 2.765 2.765 0 0 0 0 3.89L51.29 55.03a2.716 2.716 0 0 0 3.86 0 2.765 2.765 0 0 0 0-3.89h-.002Z" fill="#009343"/><path id="Vector_2" d="m25.614 39.44-6.749-7.937-6.748 7.937c-2.322 2.729-2.818 6.309-1.327 9.575 1.49 3.266 4.51 5.215 8.075 5.215 3.566 0 6.585-1.95 8.075-5.215 1.49-3.266.995-6.846-1.326-9.577v.002Zm-2.97 7.583c-.708 1.552-2.085 2.441-3.779 2.441-1.693 0-3.07-.89-3.778-2.44-.707-1.552-.482-3.184.62-4.481l3.158-3.714 3.158 3.714c1.102 1.297 1.328 2.929.62 4.48Z" fill="#009343"/><path id="Vector_3" d="M55.767 89.741h-5.094v5.135h5.094V89.74Z" fill="#009343"/><path id="Vector_4" d="M25.321 89.741h-5.072v5.135h5.072V89.74Z" fill="#009343"/><path id="Vector_5" d="M45.604 89.741h-5.072v5.135h5.072V89.74Z" fill="#009343"/><path id="Vector_6" d="M35.463 89.741H30.39v5.135h5.072V89.74Z" fill="#009343"/><path id="Vector_7" d="M15.178 89.741h-5.093v5.135h5.093V89.74Z" fill="#009343"/><path id="Vector_8" d="M15.178 69.558h-5.093v5.046h5.093v-5.046Z" fill="#009343"/><path id="Vector_9" d="M15.178 79.65h-5.093v5.044h5.093V79.65Z" fill="#009343"/><path id="Vector_10" d="M15.178 59.378h-5.093v5.135h5.093v-5.135Z" fill="#009343"/><path id="Vector_11" d="M25.321 59.378h-5.072v5.135h5.072v-5.135Z" fill="#009343"/><path id="Vector_12" d="M35.463 59.378H30.39v5.135h5.072v-5.135Z" fill="#009343"/><path id="Vector_13" d="M45.604 59.378h-5.072v5.135h5.072v-5.135Z" fill="#009343"/><path id="Vector_14" d="M55.767 59.378h-5.094v5.135h5.094v-5.135Z" fill="#009343"/><path id="Vector_15" d="M55.767 79.65h-5.094v5.046h5.094V79.65Z" fill="#009343"/><path id="Vector_16" d="M55.767 69.558h-5.094v5.045h5.094v-5.045Z" fill="#009343"/><path id="Vector_17" d="M62.38 96.35c0 1.517-1.223 2.751-2.728 2.751H8.186c-1.506 0-2.729-1.232-2.729-2.75V28.045h34.515c.318 0 .617.125.842.352l21.22 21.393c.225.227.349.528.349.849v16.425c0 1.519 1.222 2.751 2.728 2.751 1.507 0 2.729-1.232 2.729-2.75V50.638c0-1.79-.691-3.473-1.947-4.738L44.675 24.509a6.58 6.58 0 0 0-4.7-1.964h-14.71v-5.133c0-3.703-2.977-6.703-6.648-6.703H6.646c-3.67 0-6.646 3-6.646 6.701v78.94c0 4.557 3.665 8.253 8.186 8.253h51.466c4.52 0 8.186-3.696 8.186-8.253v-9.958c0-1.518-1.222-2.75-2.728-2.75-1.507 0-2.73 1.232-2.73 2.75v9.958ZM5.458 17.41c0-.662.535-1.2 1.19-1.2h11.97c.656 0 1.189.54 1.189 1.2v5.133H5.457V17.41Z" fill="#009343"/><path id="Vector_18" d="m76.086 69.193 5.504 5.549H64.746a2.374 2.374 0 0 0-2.365 2.384 2.374 2.374 0 0 0 2.365 2.384H81.59l-5.504 5.55a2.396 2.396 0 0 0 0 3.37 2.35 2.35 0 0 0 3.343 0l11.213-11.304-11.213-11.304a2.35 2.35 0 0 0-3.343 0 2.396 2.396 0 0 0 0 3.37Z" fill="#009343"/><g id="Group" fill="#F00023"><path id="Vector_19" d="M128.909 73.792h-24.306a2.375 2.375 0 0 1-2.365-2.384 2.375 2.375 0 0 1 2.365-2.384h24.306a2.375 2.375 0 0 1 2.365 2.384 2.375 2.375 0 0 1-2.365 2.384Z"/><path id="Vector_20" d="M128.909 85.228h-24.306a2.375 2.375 0 0 1-2.365-2.384 2.375 2.375 0 0 1 2.365-2.384h24.306a2.375 2.375 0 0 1 2.365 2.384 2.375 2.375 0 0 1-2.365 2.384Z"/><path id="Vector_21" d="M137.05 94.876H96.461a2.558 2.558 0 0 1-2.546-2.568V61.945a2.558 2.558 0 0 1 2.546-2.567h40.589a2.558 2.558 0 0 1 2.547 2.567v30.363a2.558 2.558 0 0 1-2.547 2.568ZM99.008 89.74h35.495V64.513H99.008V89.74Z"/></g></g><circle id="Ellipse 3" cx="119.091" cy="21.372" r="20.506" fill="#F00023"/><path id="1" d="M122.215 11.514v19.323h-4.472V15.102h-3.864v-3.588h8.336Z" fill="#fff"/></g></svg>