<svg width="32" height="33" viewBox="0 0 32 33" fill="none" xmlns="http://www.w3.org/2000/svg"><path id="Vector" d="M16.01.971C24.846.98 32.016 8.161 32 16.989c-.017 8.84-7.204 16.007-16.027 15.982C7.145 32.947 0 25.789 0 16.97 0 8.136 7.18.961 16.01.97Zm-1.418 13.858c-.301 0-.582-.002-.864 0-3.55.03-6.108 3.183-5.407 6.665.531 2.644 3.046 4.54 5.777 4.356 2.71-.183 4.987-2.391 5.097-5.076.087-2.13.033-4.265.04-6.398v-.473c1.41.939 2.886 1.463 4.552 1.509v-2.037c0-.752-.002-.745-.747-.888-1.852-.353-3.115-1.365-3.587-3.245-.095-.376-.17-.758-.254-1.142H16.39V19.945c0 .213-.003.427-.021.64a2.666 2.666 0 0 1-2.538 2.427 2.69 2.69 0 0 1-2.792-2.623c-.039-1.45 1.15-2.68 2.626-2.713.304-.007.609 0 .926 0v-2.847Z" fill="#fff"/></svg>